999
dxfrw 0.6.3
  0
SECTION
  2
HEADER
  9
$ACADVER
  1
AC1021
  9
$DWGCODEPAGE
  3
ANSI_1252
  9
$INSBASE
 10
0
 20
0
 30
0
  9
$EXTMIN
 10
-0.1703703810186017
 20
-1.626016260162602
 30
0
  9
$EXTMAX
 10
293.571915221585
 20
156.295349715332
 30
0
  9
$LIMMIN
 10
0
 20
0
  9
$LIMMAX
 10
420
 20
297
  9
$ORTHOMODE
 70
    0
  9
$REGENMODE
 70
    1
  9
$FILLMODE
 70
    1
  9
$QTEXTMODE
 70
    0
  9
$MIRRTEXT
 70
    0
  9
$LTSCALE
 40
1
  9
$ATTMODE
 70
    0
  9
$TEXTSIZE
 40
2.5
  9
$TRACEWID
 40
15.68
  9
$TEXTSTYLE
  7
STANDARD
  9
$CLAYER
  8
plate
  9
$CELTYPE
  6
BYLAYER
  9
$CECOLOR
 62
  256
  9
$CELTSCALE
 40
1
  9
$DISPSILH
 70
    0
  9
$DIMSCALE
 40
2.5
  9
$DIMASZ
 40
2.5
  9
$DIMEXO
 40
0.625
  9
$DIMDLI
 40
3.75
  9
$DIMRND
 40
0
  9
$DIMDLE
 40
0
  9
$DIMEXE
 40
1.25
  9
$DIMTP
 40
0
  9
$DIMTM
 40
0
  9
$DIMTXT
 40
2.5
  9
$DIMCEN
 40
2.5
  9
$DIMTSZ
 40
0
  9
$DIMTOL
 70
    0
  9
$DIMLIM
 70
    0
  9
$DIMTIH
 70
    0
  9
$DIMTOH
 70
    0
  9
$DIMSE1
 70
    0
  9
$DIMSE2
 70
    0
  9
$DIMTAD
 70
    1
  9
$DIMZIN
 70
    8
  9
$DIMBLK
  1

  9
$DIMASO
 70
    1
  9
$DIMSHO
 70
    1
  9
$DIMPOST
  1

  9
$DIMAPOST
  1

  9
$DIMALT
 70
    0
  9
$DIMALTD
 70
    3
  9
$DIMALTF
 40
0.03937
  9
$DIMLFAC
 40
1
  9
$DIMTOFL
 70
    1
  9
$DIMTVP
 40
0
  9
$DIMTIX
 70
    0
  9
$DIMSOXD
 70
    0
  9
$DIMSAH
 70
    0
  9
$DIMBLK1
  1

  9
$DIMBLK2
  1

  9
$DIMSTYLE
  2
STANDARD
  9
$DIMCLRD
 70
    0
  9
$DIMCLRE
 70
    0
  9
$DIMCLRT
 70
    0
  9
$DIMTFAC
 40
1
  9
$DIMGAP
 40
0.625
  9
$DIMJUST
 70
    0
  9
$DIMSD1
 70
    0
  9
$DIMSD2
 70
    0
  9
$DIMTOLJ
 70
    0
  9
$DIMTZIN
 70
    8
  9
$DIMALTZ
 70
    0
  9
$DIMALTTZ
 70
    0
  9
$DIMUPT
 70
    0
  9
$DIMDEC
 70
    2
  9
$DIMTDEC
 70
    2
  9
$DIMALTU
 70
    2
  9
$DIMALTTD
 70
    3
  9
$DIMTXSTY
  7
STANDARD
  9
$DIMAUNIT
 70
    0
  9
$DIMADEC
 70
    0
  9
$DIMALTRND
 40
0
  9
$DIMAZIN
 70
    0
  9
$DIMDSEP
 70
   44
  9
$DIMATFIT
 70
    3
  9
$DIMFRAC
 70
    0
  9
$DIMLDRBLK
  1
STANDARD
  9
$DIMLUNIT
 70
    2
  9
$DIMLWD
 70
   -2
  9
$DIMLWE
 70
   -2
  9
$DIMTMOVE
 70
    0
  9
$DIMFXL
 40
1
  9
$DIMFXLON
 70
    0
  9
$DIMJOGANG
 40
0.7854
  9
$DIMTFILL
 70
    0
  9
$DIMTFILLCLR
 70
    0
  9
$DIMARCSYM
 70
    0
  9
$DIMLTYPE
  6

  9
$DIMLTEX1
  6

  9
$DIMLTEX2
  6

  9
$LUNITS
 70
    2
  9
$LUPREC
 70
    4
  9
$SKETCHINC
 40
1
  9
$FILLETRAD
 40
0
  9
$AUNITS
 70
    0
  9
$AUPREC
 70
    2
  9
$MENU
  1
.
  9
$ELEVATION
 40
0
  9
$PELEVATION
 40
0
  9
$THICKNESS
 40
0
  9
$LIMCHECK
 70
    0
  9
$CHAMFERA
 40
0
  9
$CHAMFERB
 40
0
  9
$CHAMFERC
 40
0
  9
$CHAMFERD
 40
0
  9
$SKPOLY
 70
    0
  9
$USRTIMER
 70
    1
  9
$ANGBASE
 50
0
  9
$ANGDIR
 70
    0
  9
$PDMODE
 70
   34
  9
$PDSIZE
 40
0
  9
$PLINEWID
 40
0
  9
$SPLFRAME
 70
    0
  9
$SPLINETYPE
 70
    2
  9
$SPLINESEGS
 70
    8
  9
$HANDSEED
  5
20000
  9
$SURFTAB1
 70
    6
  9
$SURFTAB2
 70
    6
  9
$SURFTYPE
 70
    6
  9
$SURFU
 70
    6
  9
$SURFV
 70
    6
  9
$UCSBASE
  2

  9
$UCSNAME
  2

  9
$UCSORG
 10
0
 20
0
 30
0
  9
$UCSXDIR
 10
1
 20
0
 30
0
  9
$UCSYDIR
 10
0
 20
1
 30
0
  9
$UCSORTHOREF
  2

  9
$UCSORTHOVIEW
 70
    0
  9
$UCSORGTOP
 10
0
 20
0
 30
0
  9
$UCSORGBOTTOM
 10
0
 20
0
 30
0
  9
$UCSORGLEFT
 10
0
 20
0
 30
0
  9
$UCSORGRIGHT
 10
0
 20
0
 30
0
  9
$UCSORGFRONT
 10
0
 20
0
 30
0
  9
$UCSORGBACK
 10
0
 20
0
 30
0
  9
$PUCSBASE
  2

  9
$PUCSNAME
  2

  9
$PUCSORG
 10
0
 20
0
 30
0
  9
$PUCSXDIR
 10
1
 20
0
 30
0
  9
$PUCSYDIR
 10
0
 20
1
 30
0
  9
$PUCSORTHOREF
  2

  9
$PUCSORTHOVIEW
 70
    0
  9
$PUCSORGTOP
 10
0
 20
0
 30
0
  9
$PUCSORGBOTTOM
 10
0
 20
0
 30
0
  9
$PUCSORGLEFT
 10
0
 20
0
 30
0
  9
$PUCSORGRIGHT
 10
0
 20
0
 30
0
  9
$PUCSORGFRONT
 10
0
 20
0
 30
0
  9
$PUCSORGBACK
 10
0
 20
0
 30
0
  9
$USERI1
 70
    0
  9
$USERI2
 70
    0
  9
$USERI3
 70
    0
  9
$USERI4
 70
    0
  9
$USERI5
 70
    0
  9
$USERR1
 40
0
  9
$USERR2
 40
0
  9
$USERR3
 40
0
  9
$USERR4
 40
0
  9
$USERR5
 40
0
  9
$WORLDVIEW
 70
    1
  9
$SHADEDGE
 70
    3
  9
$SHADEDIF
 70
   70
  9
$TILEMODE
 70
    1
  9
$MAXACTVP
 70
   64
  9
$PINSBASE
 10
0
 20
0
 30
0
  9
$PLIMCHECK
 70
    0
  9
$PEXTMIN
 10
0
 20
0
 30
0
  9
$PEXTMAX
 10
0
 20
0
 30
0
  9
$GRIDMODE
 70
    1
  9
$SNAPSTYLE
 70
    0
  9
$PLIMMIN
 10
0
 20
0
  9
$PLIMMAX
 10
0.3255
 20
0.46035
  9
$UNITMODE
 70
    0
  9
$VISRETAIN
 70
    1
  9
$PLINEGEN
 70
    0
  9
$PSLTSCALE
 70
    1
  9
$TREEDEPTH
 70
 3020
  9
$CMLSTYLE
  2
Standard
  9
$CMLJUST
 70
    0
  9
$CMLSCALE
 40
20
  9
$PROXYGRAPHICS
 70
    1
  9
$MEASUREMENT
 70
    1
  9
$CELWEIGHT
370
   -1
  9
$ENDCAPS
280
    0
  9
$JOINSTYLE
280
    0
  9
$LWDISPLAY
290
    0
  9
$INSUNITS
 70
    4
  9
$HYPERLINKBASE
  1

  9
$STYLESHEET
  1

  9
$XEDIT
290
    1
  9
$CEPSNTYPE
380
    0
  9
$PSTYLEMODE
290
    1
  9
$EXTNAMES
290
    1
  9
$PSVPSCALE
 40
1
  9
$OLESTARTUP
290
    0
  9
$SORTENTS
280
  127
  9
$INDEXCTL
280
    0
  9
$HIDETEXT
280
    1
  9
$XCLIPFRAME
290
    0
  9
$HALOGAP
280
    0
  9
$OBSCOLOR
 70
  257
  9
$OBSLTYPE
280
    0
  9
$INTERSECTIONDISPLAY
280
    0
  9
$INTERSECTIONCOLOR
 70
  257
  9
$DIMASSOC
280
    1
  9
$PROJECTNAME
  1

  9
$CAMERADISPLAY
290
    0
  9
$LENSLENGTH
 40
50
  9
$CAMERAHEIGHT
 40
0
  9
$STEPSPERSEC
 40
2
  9
$STEPSIZE
 40
50
  9
$3DDWFPREC
 40
2
  9
$PSOLWIDTH
 40
5
  9
$PSOLHEIGHT
 40
80
  9
$LOFTANG1
 40
1.570796326794897
  9
$LOFTANG2
 40
1.570796326794897
  9
$LOFTMAG1
 40
0
  9
$LOFTMAG2
 40
0
  9
$LOFTPARAM
 70
    7
  9
$LOFTNORMALS
280
    1
  9
$LATITUDE
 40
1
  9
$LONGITUDE
 40
1
  9
$NORTHDIRECTION
 40
0
  9
$TIMEZONE
 70
-8000
  9
$LIGHTGLYPHDISPLAY
280
    1
  9
$TILEMODELIGHTSYNCH
280
    1
  9
$SOLIDHIST
280
    1
  9
$SHOWHIST
280
    1
  9
$DWFFRAME
280
    2
  9
$DGNFRAME
280
    0
  9
$REALWORLDSCALE
290
    1
  9
$INTERFERECOLOR
 62
    1
  9
$CSHADOW
280
    0
  9
$SHADOWPLANELOCATION
 40
0
  0
ENDSEC
  0
SECTION
  2
CLASSES
  0
ENDSEC
  0
SECTION
  2
TABLES
  0
TABLE
  2
VPORT
  5
8
330
0
100
AcDbSymbolTable
 70
    1
  0
VPORT
  5
31
330
2
100
AcDbSymbolTableRecord
100
AcDbViewportTableRecord
  2
*ACTIVE
 70
    0
 10
0
 20
0
 11
1
 21
1
 12
162.0919132685057
 22
88.15723138071239
 13
0
 23
0
 14
10
 24
10
 15
10
 25
10
 16
0
 26
0
 36
1
 17
0
 27
0
 37
0
 40
184.8931434079474
 41
1.936507936507937
 42
50
 43
0
 44
0
 50
0
 51
0
 71
    0
 72
  100
 73
    1
 74
    3
 75
    0
 76
    1
 77
    0
 78
    0
281
    0
 65
    1
110
0
120
0
130
0
111
1
121
0
131
0
112
0
122
1
132
0
 79
    0
146
0
348
10020
 60
    7
 61
    5
292
1
282
    1
141
0
142
0
 63
  250
421
3358443
  0
ENDTAB
  0
TABLE
  2
LTYPE
  5
5
330
0
100
AcDbSymbolTable
 70
    4
  0
LTYPE
  5
14
330
5
100
AcDbSymbolTableRecord
100
AcDbLinetypeTableRecord
  2
ByBlock
 70
    0
  3

 72
   65
 73
    0
 40
0
  0
LTYPE
  5
15
330
5
100
AcDbSymbolTableRecord
100
AcDbLinetypeTableRecord
  2
ByLayer
 70
    0
  3

 72
   65
 73
    0
 40
0
  0
LTYPE
  5
16
330
5
100
AcDbSymbolTableRecord
100
AcDbLinetypeTableRecord
  2
Continuous
 70
    0
  3
Solid line
 72
   65
 73
    0
 40
0
  0
LTYPE
  5
32
330
5
100
AcDbSymbolTableRecord
100
AcDbLinetypeTableRecord
  2
DOT
 70
    0
  3
Dot . . . . . . . . . . . . . . . . . . . . . .
 72
   65
 73
    2
 40
6.35
 49
0
 74
    0
 49
-6.35
 74
    0
  0
LTYPE
  5
33
330
5
100
AcDbSymbolTableRecord
100
AcDbLinetypeTableRecord
  2
DOTTINY
 70
    0
  3
Dot (.15x) .....................................
 72
   65
 73
    2
 40
0.9525
 49
0
 74
    0
 49
-0.9525
 74
    0
  0
LTYPE
  5
34
330
5
100
AcDbSymbolTableRecord
100
AcDbLinetypeTableRecord
  2
DOT2
 70
    0
  3
Dot (.5x) .....................................
 72
   65
 73
    2
 40
3.175
 49
0
 74
    0
 49
-3.175
 74
    0
  0
LTYPE
  5
35
330
5
100
AcDbSymbolTableRecord
100
AcDbLinetypeTableRecord
  2
DOTX2
 70
    0
  3
Dot (2x) .  .  .  .  .  .  .  .  .  .  .  .  .
 72
   65
 73
    2
 40
12.7
 49
0
 74
    0
 49
-12.7
 74
    0
  0
LTYPE
  5
36
330
5
100
AcDbSymbolTableRecord
100
AcDbLinetypeTableRecord
  2
DASHED
 70
    0
  3
Dashed _ _ _ _ _ _ _ _ _ _ _ _ _ _ _ _ _
 72
   65
 73
    2
 40
19.05
 49
12.7
 74
    0
 49
-6.35
 74
    0
  0
LTYPE
  5
37
330
5
100
AcDbSymbolTableRecord
100
AcDbLinetypeTableRecord
  2
DASHEDTINY
 70
    0
  3
Dashed (.15x) _ _ _ _ _ _ _ _ _ _ _ _ _ _ _ _ _
 72
   65
 73
    2
 40
2.8575
 49
1.905
 74
    0
 49
-0.9525
 74
    0
  0
LTYPE
  5
38
330
5
100
AcDbSymbolTableRecord
100
AcDbLinetypeTableRecord
  2
DASHED2
 70
    0
  3
Dashed (.5x) _ _ _ _ _ _ _ _ _ _ _ _ _ _ _ _ _
 72
   65
 73
    2
 40
9.524999999999999
 49
6.35
 74
    0
 49
-3.175
 74
    0
  0
LTYPE
  5
39
330
5
100
AcDbSymbolTableRecord
100
AcDbLinetypeTableRecord
  2
DASHEDX2
 70
    0
  3
Dashed (2x) ____  ____  ____  ____  ____  ___
 72
   65
 73
    2
 40
38.09999999999999
 49
25.4
 74
    0
 49
-12.7
 74
    0
  0
LTYPE
  5
3A
330
5
100
AcDbSymbolTableRecord
100
AcDbLinetypeTableRecord
  2
DASHDOT
 70
    0
  3
Dash dot __ . __ . __ . __ . __ . __ . __ . __
 72
   65
 73
    4
 40
25.4
 49
12.7
 74
    0
 49
-6.35
 74
    0
 49
0
 74
    0
 49
-6.35
 74
    0
  0
LTYPE
  5
3B
330
5
100
AcDbSymbolTableRecord
100
AcDbLinetypeTableRecord
  2
DASHDOTTINY
 70
    0
  3
Dash dot (.15x) _._._._._._._._._._._._._._._.
 72
   65
 73
    4
 40
3.81
 49
1.905
 74
    0
 49
-0.9525
 74
    0
 49
0
 74
    0
 49
-0.9525
 74
    0
  0
LTYPE
  5
3C
330
5
100
AcDbSymbolTableRecord
100
AcDbLinetypeTableRecord
  2
DASHDOT2
 70
    0
  3
Dash dot (.5x) _._._._._._._._._._._._._._._.
 72
   65
 73
    4
 40
12.7
 49
6.35
 74
    0
 49
-3.175
 74
    0
 49
0
 74
    0
 49
-3.175
 74
    0
  0
LTYPE
  5
3D
330
5
100
AcDbSymbolTableRecord
100
AcDbLinetypeTableRecord
  2
DASHDOTX2
 70
    0
  3
Dash dot (2x) ____  .  ____  .  ____  .  ___
 72
   65
 73
    4
 40
50.8
 49
25.4
 74
    0
 49
-12.7
 74
    0
 49
0
 74
    0
 49
-12.7
 74
    0
  0
LTYPE
  5
3E
330
5
100
AcDbSymbolTableRecord
100
AcDbLinetypeTableRecord
  2
DIVIDE
 70
    0
  3
Divide ____ . . ____ . . ____ . . ____ . . ____
 72
   65
 73
    6
 40
31.75
 49
12.7
 74
    0
 49
-6.35
 74
    0
 49
0
 74
    0
 49
-6.35
 74
    0
 49
0
 74
    0
 49
-6.35
 74
    0
  0
LTYPE
  5
3F
330
5
100
AcDbSymbolTableRecord
100
AcDbLinetypeTableRecord
  2
DIVIDETINY
 70
    0
  3
Divide (.15x) __..__..__..__..__..__..__..__.._
 72
   65
 73
    6
 40
4.7625
 49
1.905
 74
    0
 49
-0.9525
 74
    0
 49
0
 74
    0
 49
-0.9525
 74
    0
 49
0
 74
    0
 49
-0.9525
 74
    0
  0
LTYPE
  5
40
330
5
100
AcDbSymbolTableRecord
100
AcDbLinetypeTableRecord
  2
DIVIDE2
 70
    0
  3
Divide (.5x) __..__..__..__..__..__..__..__.._
 72
   65
 73
    6
 40
15.875
 49
6.35
 74
    0
 49
-3.175
 74
    0
 49
0
 74
    0
 49
-3.175
 74
    0
 49
0
 74
    0
 49
-3.175
 74
    0
  0
LTYPE
  5
41
330
5
100
AcDbSymbolTableRecord
100
AcDbLinetypeTableRecord
  2
DIVIDEX2
 70
    0
  3
Divide (2x) ________  .  .  ________  .  .  _
 72
   65
 73
    6
 40
63.5
 49
25.4
 74
    0
 49
-12.7
 74
    0
 49
0
 74
    0
 49
-12.7
 74
    0
 49
0
 74
    0
 49
-12.7
 74
    0
  0
LTYPE
  5
42
330
5
100
AcDbSymbolTableRecord
100
AcDbLinetypeTableRecord
  2
BORDER
 70
    0
  3
Border __ __ . __ __ . __ __ . __ __ . __ __ .
 72
   65
 73
    6
 40
44.45
 49
12.7
 74
    0
 49
-6.35
 74
    0
 49
12.7
 74
    0
 49
-6.35
 74
    0
 49
0
 74
    0
 49
-6.35
 74
    0
  0
LTYPE
  5
43
330
5
100
AcDbSymbolTableRecord
100
AcDbLinetypeTableRecord
  2
BORDERTINY
 70
    0
  3
Border (.15x) __.__.__.__.__.__.__.__.__.__.__.
 72
   65
 73
    6
 40
6.6675
 49
1.905
 74
    0
 49
-0.9525
 74
    0
 49
1.905
 74
    0
 49
-0.9525
 74
    0
 49
0
 74
    0
 49
-0.9525
 74
    0
  0
LTYPE
  5
44
330
5
100
AcDbSymbolTableRecord
100
AcDbLinetypeTableRecord
  2
BORDER2
 70
    0
  3
Border (.5x) __.__.__.__.__.__.__.__.__.__.__.
 72
   65
 73
    6
 40
22.225
 49
6.35
 74
    0
 49
-3.175
 74
    0
 49
6.35
 74
    0
 49
-3.175
 74
    0
 49
0
 74
    0
 49
-3.175
 74
    0
  0
LTYPE
  5
45
330
5
100
AcDbSymbolTableRecord
100
AcDbLinetypeTableRecord
  2
BORDERX2
 70
    0
  3
Border (2x) ____  ____  .  ____  ____  .  ___
 72
   65
 73
    6
 40
88.89999999999999
 49
25.4
 74
    0
 49
-12.7
 74
    0
 49
25.4
 74
    0
 49
-12.7
 74
    0
 49
0
 74
    0
 49
-12.7
 74
    0
  0
LTYPE
  5
46
330
5
100
AcDbSymbolTableRecord
100
AcDbLinetypeTableRecord
  2
CENTER
 70
    0
  3
Center ____ _ ____ _ ____ _ ____ _ ____ _ ____
 72
   65
 73
    4
 40
50.8
 49
31.75
 74
    0
 49
-6.35
 74
    0
 49
6.35
 74
    0
 49
-6.35
 74
    0
  0
LTYPE
  5
47
330
5
100
AcDbSymbolTableRecord
100
AcDbLinetypeTableRecord
  2
CENTERTINY
 70
    0
  3
Center (.15x) ___ _ ___ _ ___ _ ___ _ ___ _ ___
 72
   65
 73
    4
 40
7.62
 49
4.7625
 74
    0
 49
-0.9525
 74
    0
 49
0.9525
 74
    0
 49
-0.9525
 74
    0
  0
LTYPE
  5
48
330
5
100
AcDbSymbolTableRecord
100
AcDbLinetypeTableRecord
  2
CENTER2
 70
    0
  3
Center (.5x) ___ _ ___ _ ___ _ ___ _ ___ _ ___
 72
   65
 73
    4
 40
28.575
 49
19.05
 74
    0
 49
-3.175
 74
    0
 49
3.175
 74
    0
 49
-3.175
 74
    0
  0
LTYPE
  5
49
330
5
100
AcDbSymbolTableRecord
100
AcDbLinetypeTableRecord
  2
CENTERX2
 70
    0
  3
Center (2x) ________  __  ________  __  _____
 72
   65
 73
    4
 40
101.6
 49
63.5
 74
    0
 49
-12.7
 74
    0
 49
12.7
 74
    0
 49
-12.7
 74
    0
  0
ENDTAB
  0
TABLE
  2
LAYER
  5
2
330
0
100
AcDbSymbolTable
 70
    1
  0
LAYER
  5
10
330
2
100
AcDbSymbolTableRecord
100
AcDbLayerTableRecord
  2
0
 70
    0
 62
    7
  6
CONTINUOUS
370
    0
390
F
  0
LAYER
  5
4A
330
2
100
AcDbSymbolTableRecord
100
AcDbLayerTableRecord
  2
plate
 70
    0
 62
    4
  6
CONTINUOUS
370
    0
390
F
  0
ENDTAB
  0
TABLE
  2
STYLE
  5
3
330
0
100
AcDbSymbolTable
 70
    3
  0
STYLE
  5
4B
330
2
100
AcDbSymbolTableRecord
100
AcDbTextStyleTableRecord
  2
Standard
 70
    0
 40
0
 41
1
 50
0
 71
    0
 42
1
  3
txt
  4

  0
ENDTAB
  0
TABLE
  2
VIEW
  5
6
330
0
100
AcDbSymbolTable
 70
    0
  0
ENDTAB
  0
TABLE
  2
UCS
  5
7
330
0
100
AcDbSymbolTable
 70
    0
  0
ENDTAB
  0
TABLE
  2
APPID
  5
9
330
0
100
AcDbSymbolTable
 70
    1
  0
APPID
  5
12
330
9
100
AcDbSymbolTableRecord
100
AcDbRegAppTableRecord
  2
ACAD
 70
    0
  0
APPID
  5
4C
330
9
100
AcDbSymbolTableRecord
100
AcDbRegAppTableRecord
  2
LibreCad
 70
    0
  0
ENDTAB
  0
TABLE
  2
DIMSTYLE
  5
A
330
0
100
AcDbSymbolTable
 70
    1
100
AcDbDimStyleTable
 71
    1
  0
DIMSTYLE
105
4D
330
A
100
AcDbSymbolTableRecord
100
AcDbDimStyleTableRecord
  2
Standard
 70
    0
 40
2.5
 41
2.5
 42
0.625
 43
0.38
 44
1.25
 45
0
 46
0
 47
0
 48
0
 49
1
140
2.5
141
0.09
142
0
143
25.4
144
1
145
0
146
1
147
0.625
148
0
 71
    0
 72
    0
 73
    0
 74
    1
 75
    0
 76
    0
 77
    0
 78
    8
 79
    0
170
    0
171
    2
172
    0
173
    0
174
    0
175
    0
176
    0
177
    0
178
    0
179
    0
271
    2
272
    4
273
    2
274
    2
275
    0
276
    0
277
    2
278
   44
279
    0
280
    0
281
    0
282
    0
283
    1
284
    0
285
    0
286
    0
288
    0
289
    3
340
STANDARD
341

371
   -2
372
   -2
  0
ENDTAB
  0
TABLE
  2
BLOCK_RECORD
  5
1
330
0
100
AcDbSymbolTable
 70
    2
  0
BLOCK_RECORD
  5
1F
330
1
100
AcDbSymbolTableRecord
100
AcDbBlockTableRecord
  2
*Model_Space
 70
    0
280
    1
281
    0
  0
BLOCK_RECORD
  5
1E
330
1
100
AcDbSymbolTableRecord
100
AcDbBlockTableRecord
  2
*Paper_Space
 70
    0
280
    1
281
    0
  0
ENDTAB
  0
ENDSEC
  0
SECTION
  2
BLOCKS
  0
BLOCK
  5
20
330
1F
100
AcDbEntity
  8
0
100
AcDbBlockBegin
  2
*Model_Space
 70
    0
 10
0
 20
0
 30
0
  3
*Model_Space
  1

  0
ENDBLK
  5
21
330
1F
100
AcDbEntity
  8
0
100
AcDbBlockEnd
  0
BLOCK
  5
1C
330
1B
100
AcDbEntity
  8
0
100
AcDbBlockBegin
  2
*Paper_Space
 70
    0
 10
0
 20
0
 30
0
  3
*Paper_Space
  1

  0
ENDBLK
  5
1D
330
1F
100
AcDbEntity
  8
0
100
AcDbBlockEnd
  0
ENDSEC
  0
SECTION
  2
ENTITIES
  0
ARC
  5
4E
100
AcDbEntity
  8
plate
  6
ByLayer
 62
    4
370
   -1
100
AcDbCircle
 10
80.8204745575735
 20
152.2160238553739
 40
1.000000000008245
100
AcDbArc
 50
254.9349276791966
 51
344.9351615658097
  0
ARC
  5
4F
100
AcDbEntity
  8
plate
  6
ByLayer
 62
    4
370
   -1
100
AcDbCircle
 10
84.51954818911673
 20
151.2174131196111
 40
2.831500000008929
100
AcDbArc
 50
74.93516156580655
 51
164.8773435819725
  0
ARC
  5
50
100
AcDbEntity
  8
plate
  6
ByLayer
 62
    4
370
   -1
100
AcDbCircle
 10
56.83023295709114
 20
148.7878181025254
 40
0.9999999999999248
100
AcDbArc
 50
255.0000199644594
 51
344.9351615658128
  0
ARC
  5
51
100
AcDbEntity
  8
plate
  6
ByLayer
 62
    4
370
   -1
100
AcDbCircle
 10
4.829629618981357
 20
78.70590659399699
 40
4.999999999999958
100
AcDbArc
 50
165.0000199644476
 51
255.0000199644486
  0
ARC
  5
52
100
AcDbEntity
  8
plate
  6
ByLayer
 62
    4
370
   -1
100
AcDbCircle
 10
63.54757179725993
 20
150.647405805063
 40
5.002247394237348
100
AcDbArc
 50
74.94630903463418
 51
164.9205615779951
  0
ARC
  5
53
100
AcDbEntity
  8
plate
  6
ByLayer
 62
    4
370
   -1
100
AcDbCircle
 10
24.28004694052083
 20
151.295349715332
 40
5.000000000000036
100
AcDbArc
 50
75.00449670517722
 51
165.0044967051765
  0
ARC
  5
54
100
AcDbEntity
  8
plate
  6
ByLayer
 62
    4
370
   -1
100
AcDbCircle
 10
66.24351049859382
 20
54.97386123741541
 40
2.028336325767703
100
AcDbArc
 50
345.4087023547804
 51
75.00001996445867
  0
ARC
  5
55
100
AcDbEntity
  8
plate
  6
ByLayer
 62
    4
370
   -1
100
AcDbCircle
 10
130.1642623607074
 20
5.124171521960704
 40
2.804699999999767
100
AcDbArc
 50
210.5366928563004
 51
270
  0
ARC
  5
56
100
AcDbEntity
  8
plate
  6
ByLayer
 62
    4
370
   -1
100
AcDbCircle
 10
57.22645884106055
 20
-37.90241930534384
 40
81.87830124872117
100
AcDbArc
 50
30.53669285629998
 51
80.83800492591675
  0
ARC
  5
57
100
AcDbEntity
  8
plate
  6
ByLayer
 62
    4
370
   -1
100
AcDbCircle
 10
71.5576861284714
 20
47.76092999470893
 40
5.000000000000023
100
AcDbArc
 50
164.7110069447887
 51
255.0006283598694
  0
CIRCLE
  5
58
100
AcDbEntity
  8
plate
  6
ByLayer
 62
    4
370
   -1
100
AcDbCircle
 10
129.7263183521356
 20
5.53329124046445
 40
1
  0
CIRCLE
  5
59
100
AcDbEntity
  8
plate
  6
ByLayer
 62
    4
370
   -1
100
AcDbCircle
 10
69.81345335163076
 20
46.78201527640175
 40
1
  0
CIRCLE
  5
5A
100
AcDbEntity
  8
plate
  6
ByLayer
 62
    4
370
   -1
100
AcDbCircle
 10
3.091594368793579
 20
77.71622451446603
 40
1
  0
CIRCLE
  5
5B
100
AcDbEntity
  8
plate
  6
ByLayer
 62
    4
370
   -1
100
AcDbCircle
 10
23.28116405021945
 20
153.0280460135604
 40
1
  0
CIRCLE
  5
5C
100
AcDbEntity
  8
plate
  6
ByLayer
 62
    4
370
   -1
100
AcDbCircle
 10
92.1432763891508
 20
148.9901482657596
 40
1
  0
CIRCLE
  5
5D
100
AcDbEntity
  8
plate
  6
ByLayer
 62
    4
370
   -1
100
AcDbCircle
 10
27.67097611365176
 20
91.89346296538474
 40
1
  0
CIRCLE
  5
5E
100
AcDbEntity
  8
plate
  6
ByLayer
 62
    4
370
   -1
100
AcDbCircle
 10
37.37892778443842
 20
128.6070750278989
 40
1
  0
CIRCLE
  5
5F
100
AcDbEntity
  8
plate
  6
ByLayer
 62
    4
370
   -1
100
AcDbCircle
 10
72.20867929841717
 20
111.3837857595321
 40
1
  0
CIRCLE
  5
60
100
AcDbEntity
  8
plate
  6
ByLayer
 62
    4
370
   -1
100
AcDbCircle
 10
112.7084472452929
 20
115.3240068743928
 40
1
  0
CIRCLE
  5
61
100
AcDbEntity
  8
plate
  6
ByLayer
 62
    4
370
   -1
100
AcDbCircle
 10
102.8480948691384
 20
78.52193998338032
 40
1
  0
CIRCLE
  5
62
100
AcDbEntity
  8
plate
  6
ByLayer
 62
    4
370
   -1
100
AcDbCircle
 10
115.9964244858112
 20
51.24928334636093
 40
1
  0
ARC
  5
63
100
AcDbEntity
  8
plate
  6
ByLayer
 62
    4
370
   -1
100
AcDbCircle
 10
212.581070282993
 20
152.2160238553733
 40
1.000000000008245
100
AcDbArc
 50
195.0648384341903
 51
285.0650723208034
  0
ARC
  5
64
100
AcDbEntity
  8
plate
  6
ByLayer
 62
    4
370
   -1
100
AcDbCircle
 10
208.8819966514499
 20
151.2174131196105
 40
2.831500000008929
100
AcDbArc
 50
15.12265641802747
 51
105.0648384341935
  0
ARC
  5
65
100
AcDbEntity
  8
plate
  6
ByLayer
 62
    4
370
   -1
100
AcDbCircle
 10
236.5713118834755
 20
148.7878181025248
 40
0.9999999999999248
100
AcDbArc
 50
195.0648384341872
 51
284.9999800355406
  0
ARC
  5
66
100
AcDbEntity
  8
plate
  6
ByLayer
 62
    4
370
   -1
100
AcDbCircle
 10
288.5719152215851
 20
78.70590659399642
 40
4.999999999999958
100
AcDbArc
 50
284.9999800355514
 51
14.9999800355524
  0
ARC
  5
67
100
AcDbEntity
  8
plate
  6
ByLayer
 62
    4
370
   -1
100
AcDbCircle
 10
229.8539730433066
 20
150.6474058050624
 40
5.002247394237348
100
AcDbArc
 50
15.0794384220049
 51
105.0536909653658
  0
ARC
  5
68
100
AcDbEntity
  8
plate
  6
ByLayer
 62
    4
370
   -1
100
AcDbCircle
 10
269.1214979000457
 20
151.2953497153314
 40
5.000000000000036
100
AcDbArc
 50
14.99550329482346
 51
104.9955032948228
  0
ARC
  5
69
100
AcDbEntity
  8
plate
  6
ByLayer
 62
    4
370
   -1
100
AcDbCircle
 10
227.1580343419727
 20
54.97386123741484
 40
2.028336325767703
100
AcDbArc
 50
104.9999800355413
 51
194.5912976452196
  0
ARC
  5
6A
100
AcDbEntity
  8
plate
  6
ByLayer
 62
    4
370
   -1
100
AcDbCircle
 10
163.2372824798591
 20
5.124171521960108
 40
2.804699999999767
100
AcDbArc
 50
270
 51
329.4633071436996
  0
ARC
  5
6B
100
AcDbEntity
  8
plate
  6
ByLayer
 62
    4
370
   -1
100
AcDbCircle
 10
236.175085999506
 20
-37.90241930534444
 40
81.87830124872117
100
AcDbArc
 50
99.16199507408322
 51
149.4633071437
  0
ARC
  5
6C
100
AcDbEntity
  8
plate
  6
ByLayer
 62
    4
370
   -1
100
AcDbCircle
 10
221.8438587120951
 20
47.76092999470831
 40
5.000000000000023
100
AcDbArc
 50
284.9993716401306
 51
15.2889930552113
  0
CIRCLE
  5
6D
100
AcDbEntity
  8
plate
  6
ByLayer
 62
    4
370
   -1
100
AcDbCircle
 10
163.6752264884309
 20
5.533291240463853
 40
1
  0
CIRCLE
  5
6E
100
AcDbEntity
  8
plate
  6
ByLayer
 62
    4
370
   -1
100
AcDbCircle
 10
223.5880914889358
 20
46.78201527640118
 40
1
  0
CIRCLE
  5
6F
100
AcDbEntity
  8
plate
  6
ByLayer
 62
    4
370
   -1
100
AcDbCircle
 10
290.3099504717729
 20
77.71622451446541
 40
1
  0
CIRCLE
  5
70
100
AcDbEntity
  8
plate
  6
ByLayer
 62
    4
370
   -1
100
AcDbCircle
 10
270.1203807903471
 20
153.0280460135597
 40
1
  0
CIRCLE
  5
71
100
AcDbEntity
  8
plate
  6
ByLayer
 62
    4
370
   -1
100
AcDbCircle
 10
201.2582684514158
 20
148.9901482657589
 40
1
  0
CIRCLE
  5
72
100
AcDbEntity
  8
plate
  6
ByLayer
 62
    4
370
   -1
100
AcDbCircle
 10
265.7305687269148
 20
91.89346296538412
 40
1
  0
CIRCLE
  5
73
100
AcDbEntity
  8
plate
  6
ByLayer
 62
    4
370
   -1
100
AcDbCircle
 10
256.0226170561281
 20
128.6070750278982
 40
1
  0
CIRCLE
  5
74
100
AcDbEntity
  8
plate
  6
ByLayer
 62
    4
370
   -1
100
AcDbCircle
 10
221.1928655421494
 20
111.3837857595315
 40
1
  0
CIRCLE
  5
75
100
AcDbEntity
  8
plate
  6
ByLayer
 62
    4
370
   -1
100
AcDbCircle
 10
180.6930975952736
 20
115.3240068743922
 40
1
  0
CIRCLE
  5
76
100
AcDbEntity
  8
plate
  6
ByLayer
 62
    4
370
   -1
100
AcDbCircle
 10
190.5534499714282
 20
78.5219399833797
 40
1
  0
CIRCLE
  5
77
100
AcDbEntity
  8
plate
  6
ByLayer
 62
    4
370
   -1
100
AcDbCircle
 10
177.4051203547552
 20
51.2492833463603
 40
1
  0
ARC
  5
78
100
AcDbEntity
  8
plate
  6
ByLayer
 62
  256
370
   -1
100
AcDbCircle
 10
0
 20
0
 40
0
100
AcDbArc
 50
0
 51
0
  0
ARC
  5
79
100
AcDbEntity
  8
plate
  6
ByLayer
 62
  256
370
   -1
100
AcDbCircle
 10
106.2135739486989
 20
145.2154588661641
 40
3.000000000000964
100
AcDbArc
 50
180.0000000000174
 51
255.3281948451157
  0
ARC
  5
7A
100
AcDbEntity
  8
plate
  6
ByLayer
 62
  256
370
   -1
100
AcDbCircle
 10
98.21387056962115
 20
145.2843489726939
 40
5.00000000000001
100
AcDbArc
 50
359.2105806507352
 51
74.9299610159029
  0
ARC
  5
7B
100
AcDbEntity
  8
plate
  6
ByLayer
 62
  256
370
   -1
100
AcDbCircle
 10
187.1879684366531
 20
145.2154582050729
 40
3.000000000000964
100
AcDbArc
 50
284.6718051548842
 51
359.9999999999827
  0
ARC
  5
7C
100
AcDbEntity
  8
plate
  6
ByLayer
 62
  256
370
   -1
100
AcDbCircle
 10
195.1876718157309
 20
145.2843483116027
 40
5.00000000000001
100
AcDbArc
 50
105.0700389840971
 51
180.7894193492649
  0
LINE
  5
7D
100
AcDbEntity
  8
plate
  6
ByLayer
 62
    4
370
   -1
100
AcDbLine
 10
25.57376312159366
 20
156.125080395487
 11
56.57141424856121
 21
147.8218921860521
  0
LINE
  5
7E
100
AcDbEntity
  8
plate
  6
ByLayer
 62
    4
370
   -1
100
AcDbLine
 10
57.795865273891
 20
148.5279061390617
 11
58.71757151346901
 21
151.9487805595953
  0
LINE
  5
7F
100
AcDbEntity
  8
plate
  6
ByLayer
 62
    4
370
   -1
100
AcDbLine
 10
64.84677592511747
 20
155.4779904101923
 11
80.56055865231025
 21
151.2503925995584
  0
LINE
  5
80
100
AcDbEntity
  8
plate
  6
ByLayer
 62
    4
370
   -1
100
AcDbLine
 10
193.8876737673809
 20
150.1123919189334
 11
208.1460559268995
 21
153.9516010246381
  0
LINE
  5
81
100
AcDbEntity
  8
plate
  6
ByLayer
 62
    4
370
   -1
100
AcDbLine
 10
212.8409861882562
 20
151.2503925995579
 11
228.5547689154491
 21
155.4779904101917
  0
LINE
  5
82
100
AcDbEntity
  8
plate
  6
ByLayer
 62
    4
370
   -1
100
AcDbLine
 10
234.6839733270975
 20
151.9487805595947
 11
235.6056795666756
 21
148.527906139061
  0
LINE
  5
83
100
AcDbEntity
  8
plate
  6
ByLayer
 62
    4
370
   -1
100
AcDbLine
 10
236.8301305920054
 20
147.8218921860515
 11
267.8277817189729
 21
156.1250803954864
  0
LINE
  5
84
100
AcDbEntity
  8
plate
  6
ByLayer
 62
    4
370
   -1
100
AcDbLine
 10
273.9512285802008
 20
152.589065896404
 11
293.4015448039516
 21
80.00000013664715
  0
LINE
  5
85
100
AcDbEntity
  8
plate
  6
ByLayer
 62
    4
370
   -1
100
AcDbLine
 10
289.8660087642358
 20
73.87627701162992
 11
226.6330629536731
 21
56.9330838617982
  0
LINE
  5
86
100
AcDbEntity
  8
plate
  6
ByLayer
 62
    4
370
   -1
100
AcDbLine
 10
225.1951170454964
 20
54.46287793277258
 11
226.666899175253
 21
49.07936872697513
  0
LINE
  5
87
100
AcDbEntity
  8
plate
  6
ByLayer
 62
    4
370
   -1
100
AcDbLine
 10
163.2372824798591
 20
2.319471521960341
 11
130.1642623607074
 21
2.319471521960938
  0
LINE
  5
88
100
AcDbEntity
  8
plate
  6
ByLayer
 62
    4
370
   -1
100
AcDbLine
 10
66.76848188689343
 20
56.93308386179876
 11
3.535536076330708
 21
73.87627701163051
  0
LINE
  5
89
100
AcDbEntity
  8
plate
  6
ByLayer
 62
    4
370
   -1
100
AcDbLine
 10
3.661489333950385e-08
 20
80.00000013664771
 11
19.45031626036582
 21
152.5890658964048
  0
LINE
  5
8A
100
AcDbEntity
  8
plate
  6
ByLayer
 62
    4
370
   -1
100
AcDbLine
 10
85.25548891366704
 20
153.9516010246386
 11
99.51386861797118
 21
150.1123925800245
  0
LINE
  5
8B
100
AcDbEntity
  8
plate
  6
ByLayer
 62
    4
370
   -1
100
AcDbLine
 10
68.20642779507008
 20
54.46287793277315
 11
66.73464566531345
 21
49.07936872697576
  0
LINE
  5
8C
100
AcDbEntity
  8
plate
  6
ByLayer
 62
    4
370
   -1
100
AcDbLine
 10
104.2572662967774
 20
74.02679153936769
 11
104.1278572677127
 21
73.54382801786622
  0
LINE
  5
8D
100
AcDbEntity
  8
plate
  6
ByLayer
 62
    4
370
   -1
100
AcDbLine
 10
103.2219917878571
 20
70.1630873102096
 11
101.9278982452063
 21
65.33345772784301
  0
LINE
  5
8E
100
AcDbEntity
  8
plate
  6
ByLayer
 62
    4
370
   -1
100
AcDbLine
 10
101.0220327653508
 20
61.95271702018636
 11
100.8926219788252
 21
61.46975323502816
  0
LINE
  5
8F
100
AcDbEntity
  8
plate
  6
ByLayer
 62
    4
370
   -1
100
AcDbLine
 10
101.2461761524033
 20
60.85738125139398
 11
113.803214106549
 21
57.49273823139922
  0
LINE
  5
90
100
AcDbEntity
  8
plate
  6
ByLayer
 62
    4
370
   -1
100
AcDbLine
 10
114.4155865089522
 20
57.8462916796509
 11
114.544995595977
 21
58.32925510076431
  0
LINE
  5
91
100
AcDbEntity
  8
plate
  6
ByLayer
 62
    4
370
   -1
100
AcDbLine
 10
115.4508610758326
 20
61.70999580842094
 11
116.7449546184833
 21
66.53962539078736
  0
LINE
  5
92
100
AcDbEntity
  8
plate
  6
ByLayer
 62
    4
370
   -1
100
AcDbLine
 10
117.6508200983388
 20
69.92036609844403
 11
117.780229452604
 21
70.4033290566807
  0
LINE
  5
93
100
AcDbEntity
  8
plate
  6
ByLayer
 62
    4
370
   -1
100
AcDbLine
 10
117.4266744774043
 20
71.01570057750098
 11
104.8696389344794
 21
74.38034458007166
  0
LINE
  5
94
100
AcDbEntity
  8
plate
  6
ByLayer
 62
    4
370
   -1
100
AcDbLine
 10
86.3492862804007
 20
80.7969784658947
 11
86.21987725133594
 21
80.31401494439322
  0
LINE
  5
95
100
AcDbEntity
  8
plate
  6
ByLayer
 62
    4
370
   -1
100
AcDbLine
 10
85.31401177148034
 20
76.93327423673661
 11
84.01991822882961
 21
72.10364465437002
  0
LINE
  5
96
100
AcDbEntity
  8
plate
  6
ByLayer
 62
    4
370
   -1
100
AcDbLine
 10
83.11405274897407
 20
68.72290394671336
 11
82.98464196244848
 21
68.23994016155517
  0
LINE
  5
97
100
AcDbEntity
  8
plate
  6
ByLayer
 62
    4
370
   -1
100
AcDbLine
 10
83.33819613602658
 20
67.62756817792098
 11
95.89523409017229
 21
64.26292515792622
  0
LINE
  5
98
100
AcDbEntity
  8
plate
  6
ByLayer
 62
    4
370
   -1
100
AcDbLine
 10
96.50760649257546
 20
64.61647860617791
 11
96.6370155796003
 21
65.0994420272913
  0
LINE
  5
99
100
AcDbEntity
  8
plate
  6
ByLayer
 62
    4
370
   -1
100
AcDbLine
 10
97.54288105945585
 20
68.48018273494795
 11
98.83697460210659
 21
73.30981231731437
  0
LINE
  5
9A
100
AcDbEntity
  8
plate
  6
ByLayer
 62
    4
370
   -1
100
AcDbLine
 10
99.74284008196211
 20
76.69055302497104
 11
99.87224943622725
 21
77.17351598320771
  0
LINE
  5
9B
100
AcDbEntity
  8
plate
  6
ByLayer
 62
    4
370
   -1
100
AcDbLine
 10
99.51869446102762
 20
77.78588750402798
 11
86.96165891810271
 21
81.15053150659867
  0
LINE
  5
9C
100
AcDbEntity
  8
plate
  6
ByLayer
 62
    4
370
   -1
100
AcDbLine
 10
69.42739122398457
 20
91.2475875335068
 11
69.29798219491981
 21
90.76462401200533
  0
LINE
  5
9D
100
AcDbEntity
  8
plate
  6
ByLayer
 62
    4
370
   -1
100
AcDbLine
 10
68.3921167150642
 20
87.38388330434871
 11
67.09802317241348
 21
82.55425372198212
  0
LINE
  5
9E
100
AcDbEntity
  8
plate
  6
ByLayer
 62
    4
370
   -1
100
AcDbLine
 10
66.19215769255794
 20
79.17351301432547
 11
66.06274690603234
 21
78.69054922916727
  0
LINE
  5
9F
100
AcDbEntity
  8
plate
  6
ByLayer
 62
    4
370
   -1
100
AcDbLine
 10
66.41630107961045
 20
78.07817724553308
 11
78.97333903375616
 21
74.71353422553833
  0
LINE
  5
A0
100
AcDbEntity
  8
plate
  6
ByLayer
 62
    4
370
   -1
100
AcDbLine
 10
79.58571143615933
 20
75.06708767379001
 11
79.71512052318417
 21
75.55005109490341
  0
LINE
  5
A1
100
AcDbEntity
  8
plate
  6
ByLayer
 62
    4
370
   -1
100
AcDbLine
 10
80.62098600303972
 20
78.93079180256005
 11
81.91507954569046
 21
83.76042138492647
  0
LINE
  5
A2
100
AcDbEntity
  8
plate
  6
ByLayer
 62
    4
370
   -1
100
AcDbLine
 10
82.82094502554598
 20
87.14116209258314
 11
82.95035437981112
 21
87.62412505081981
  0
LINE
  5
A3
100
AcDbEntity
  8
plate
  6
ByLayer
 62
    4
370
   -1
100
AcDbLine
 10
82.59679940461149
 20
88.23649657164009
 11
70.03976386168658
 21
91.60114057421077
  0
LINE
  5
A4
100
AcDbEntity
  8
plate
  6
ByLayer
 62
    4
370
   -1
100
AcDbLine
 10
50.03971231397437
 20
92.49777619957261
 11
49.91030328490961
 21
92.01481267807114
  0
LINE
  5
A5
100
AcDbEntity
  8
plate
  6
ByLayer
 62
    4
370
   -1
100
AcDbLine
 10
49.004437805054
 20
88.63407197041452
 11
47.71034426240328
 21
83.80444238804793
  0
LINE
  5
A6
100
AcDbEntity
  8
plate
  6
ByLayer
 62
    4
370
   -1
100
AcDbLine
 10
46.80447878254774
 20
80.42370168039128
 11
46.67506799602214
 21
79.94073789523308
  0
LINE
  5
A7
100
AcDbEntity
  8
plate
  6
ByLayer
 62
    4
370
   -1
100
AcDbLine
 10
47.02862216960025
 20
79.32836591159889
 11
59.58566012374596
 21
75.96372289160414
  0
LINE
  5
A8
100
AcDbEntity
  8
plate
  6
ByLayer
 62
    4
370
   -1
100
AcDbLine
 10
60.19803252614913
 20
76.31727633985582
 11
60.32744161317397
 21
76.80023976096922
  0
LINE
  5
A9
100
AcDbEntity
  8
plate
  6
ByLayer
 62
    4
370
   -1
100
AcDbLine
 10
61.23330709302952
 20
80.18098046862586
 11
62.52740063568026
 21
85.01061005099228
  0
LINE
  5
AA
100
AcDbEntity
  8
plate
  6
ByLayer
 62
    4
370
   -1
100
AcDbLine
 10
63.43326611553578
 20
88.39135075864895
 11
63.56267546980092
 21
88.87431371688562
  0
LINE
  5
AB
100
AcDbEntity
  8
plate
  6
ByLayer
 62
    4
370
   -1
100
AcDbLine
 10
63.20912049460129
 20
89.4866852377059
 11
50.65208495167638
 21
92.85132924027658
  0
LINE
  5
AC
100
AcDbEntity
  8
plate
  6
ByLayer
 62
    4
370
   -1
100
AcDbLine
 10
29.17423936400778
 20
88.2297444612423
 11
29.04483033494301
 21
87.74678093974083
  0
LINE
  5
AD
100
AcDbEntity
  8
plate
  6
ByLayer
 62
    4
370
   -1
100
AcDbLine
 10
28.13896485508741
 20
84.36604023208422
 11
26.84487131243668
 21
79.53641064971762
  0
LINE
  5
AE
100
AcDbEntity
  8
plate
  6
ByLayer
 62
    4
370
   -1
100
AcDbLine
 10
25.93900583258115
 20
76.15566994206097
 11
25.80959504605555
 21
75.67270615690278
  0
LINE
  5
AF
100
AcDbEntity
  8
plate
  6
ByLayer
 62
    4
370
   -1
100
AcDbLine
 10
26.16314921963365
 20
75.06033417326859
 11
38.72018717377937
 21
71.69569115327383
  0
LINE
  5
B0
100
AcDbEntity
  8
plate
  6
ByLayer
 62
    4
370
   -1
100
AcDbLine
 10
39.33255957618253
 20
72.04924460152552
 11
39.46196866320737
 21
72.53220802263891
  0
LINE
  5
B1
100
AcDbEntity
  8
plate
  6
ByLayer
 62
    4
370
   -1
100
AcDbLine
 10
40.36783414306292
 20
75.91294873029555
 11
41.66192768571366
 21
80.74257831266198
  0
LINE
  5
B2
100
AcDbEntity
  8
plate
  6
ByLayer
 62
    4
370
   -1
100
AcDbLine
 10
42.56779316556919
 20
84.12331902031865
 11
42.69720251983432
 21
84.60628197855532
  0
LINE
  5
B3
100
AcDbEntity
  8
plate
  6
ByLayer
 62
    4
370
   -1
100
AcDbLine
 10
42.34364754463469
 20
85.21865349937559
 11
29.78661200170978
 21
88.58329750194628
  0
LINE
  5
B4
100
AcDbEntity
  8
plate
  6
ByLayer
 62
    4
370
   -1
100
AcDbLine
 10
10.7727724036986
 20
93.16022827813849
 11
10.64336337463384
 21
92.67726475663702
  0
LINE
  5
B5
100
AcDbEntity
  8
plate
  6
ByLayer
 62
    4
370
   -1
100
AcDbLine
 10
9.737497894778237
 20
89.2965240489804
 11
8.443404352127509
 21
84.46689446661381
  0
LINE
  5
B6
100
AcDbEntity
  8
plate
  6
ByLayer
 62
    4
370
   -1
100
AcDbLine
 10
7.537538872271973
 20
81.08615375895715
 11
7.408128085746377
 21
80.60318997379896
  0
LINE
  5
B7
100
AcDbEntity
  8
plate
  6
ByLayer
 62
    4
370
   -1
100
AcDbLine
 10
7.761682259324481
 20
79.99081799016477
 11
20.31872021347019
 21
76.62617497017001
  0
LINE
  5
B8
100
AcDbEntity
  8
plate
  6
ByLayer
 62
    4
370
   -1
100
AcDbLine
 10
20.93109261587336
 20
76.9797284184217
 11
21.0605017028982
 21
77.4626918395351
  0
LINE
  5
B9
100
AcDbEntity
  8
plate
  6
ByLayer
 62
    4
370
   -1
100
AcDbLine
 10
21.96636718275375
 20
80.84343254719174
 11
23.26046072540449
 21
85.67306212955816
  0
LINE
  5
BA
100
AcDbEntity
  8
plate
  6
ByLayer
 62
    4
370
   -1
100
AcDbLine
 10
24.16632620526001
 20
89.05380283721483
 11
24.29573555952515
 21
89.5367657954515
  0
LINE
  5
BB
100
AcDbEntity
  8
plate
  6
ByLayer
 62
    4
370
   -1
100
AcDbLine
 10
23.94218058432552
 20
90.14913731627178
 11
11.38514504140061
 21
93.51378131884246
  0
LINE
  5
BC
100
AcDbEntity
  8
plate
  6
ByLayer
 62
    4
370
   -1
100
AcDbLine
 10
109.1877857772513
 20
92.42761512617282
 11
109.0583767481866
 21
91.94465160467135
  0
LINE
  5
BD
100
AcDbEntity
  8
plate
  6
ByLayer
 62
    4
370
   -1
100
AcDbLine
 10
108.152511268331
 20
88.56391089701474
 11
106.8584177256802
 21
83.73428131464814
  0
LINE
  5
BE
100
AcDbEntity
  8
plate
  6
ByLayer
 62
    4
370
   -1
100
AcDbLine
 10
105.9525522458247
 20
80.35354060699149
 11
105.8231414592991
 21
79.8705768218333
  0
LINE
  5
BF
100
AcDbEntity
  8
plate
  6
ByLayer
 62
    4
370
   -1
100
AcDbLine
 10
106.1766956328772
 20
79.25820483819911
 11
118.7337335870229
 21
75.89356181820435
  0
LINE
  5
C0
100
AcDbEntity
  8
plate
  6
ByLayer
 62
    4
370
   -1
100
AcDbLine
 10
119.3461059894261
 20
76.24711526645603
 11
119.4755150764509
 21
76.73007868756943
  0
LINE
  5
C1
100
AcDbEntity
  8
plate
  6
ByLayer
 62
    4
370
   -1
100
AcDbLine
 10
120.3813805563065
 20
80.11081939522607
 11
121.6754740989572
 21
84.9404489775925
  0
LINE
  5
C2
100
AcDbEntity
  8
plate
  6
ByLayer
 62
    4
370
   -1
100
AcDbLine
 10
122.5813395788127
 20
88.32118968524917
 11
122.7107489330779
 21
88.80415264348584
  0
LINE
  5
C3
100
AcDbEntity
  8
plate
  6
ByLayer
 62
    4
370
   -1
100
AcDbLine
 10
122.3571939578782
 20
89.41652416430611
 11
109.8001584149533
 21
92.7811681668768
  0
LINE
  5
C4
100
AcDbEntity
  8
plate
  6
ByLayer
 62
    4
370
   -1
100
AcDbLine
 10
91.27980576087459
 20
99.19780205269983
 11
91.15039673180983
 21
98.71483853119835
  0
LINE
  5
C5
100
AcDbEntity
  8
plate
  6
ByLayer
 62
    4
370
   -1
100
AcDbLine
 10
90.24453125195423
 20
95.33409782354174
 11
88.9504377093035
 21
90.50446824117515
  0
LINE
  5
C6
100
AcDbEntity
  8
plate
  6
ByLayer
 62
    4
370
   -1
100
AcDbLine
 10
88.04457222944797
 20
87.12372753351849
 11
87.91516144292237
 21
86.6407637483603
  0
LINE
  5
C7
100
AcDbEntity
  8
plate
  6
ByLayer
 62
    4
370
   -1
100
AcDbLine
 10
88.26871561650047
 20
86.02839176472611
 11
100.8257535706462
 21
82.66374874473135
  0
LINE
  5
C8
100
AcDbEntity
  8
plate
  6
ByLayer
 62
    4
370
   -1
100
AcDbLine
 10
101.4381259730494
 20
83.01730219298304
 11
101.5675350600742
 21
83.50026561409643
  0
LINE
  5
C9
100
AcDbEntity
  8
plate
  6
ByLayer
 62
    4
370
   -1
100
AcDbLine
 10
102.4734005399297
 20
86.88100632175308
 11
103.7674940825805
 21
91.7106359041195
  0
LINE
  5
CA
100
AcDbEntity
  8
plate
  6
ByLayer
 62
    4
370
   -1
100
AcDbLine
 10
104.673359562436
 20
95.09137661177617
 11
104.8027689167011
 21
95.57433957001284
  0
LINE
  5
CB
100
AcDbEntity
  8
plate
  6
ByLayer
 62
    4
370
   -1
100
AcDbLine
 10
104.4492139415015
 20
96.18671109083311
 11
91.8921783985766
 21
99.5513550934038
  0
LINE
  5
CC
100
AcDbEntity
  8
plate
  6
ByLayer
 62
    4
370
   -1
100
AcDbLine
 10
74.35791070445846
 20
109.6484111203119
 11
74.2285016753937
 21
109.1654475988105
  0
LINE
  5
CD
100
AcDbEntity
  8
plate
  6
ByLayer
 62
    4
370
   -1
100
AcDbLine
 10
73.3226361955381
 20
105.7847068911538
 11
72.02854265288737
 21
100.9550773087873
  0
LINE
  5
CE
100
AcDbEntity
  8
plate
  6
ByLayer
 62
    4
370
   -1
100
AcDbLine
 10
71.12267717303183
 20
97.5743366011306
 11
70.99326638650624
 21
97.09137281597241
  0
LINE
  5
CF
100
AcDbEntity
  8
plate
  6
ByLayer
 62
    4
370
   -1
100
AcDbLine
 10
71.34682056008434
 20
96.47900083233822
 11
83.90385851423005
 21
93.11435781234346
  0
LINE
  5
D0
100
AcDbEntity
  8
plate
  6
ByLayer
 62
    4
370
   -1
100
AcDbLine
 10
84.51623091663322
 20
93.46791126059514
 11
84.64564000365806
 21
93.95087468170854
  0
LINE
  5
D1
100
AcDbEntity
  8
plate
  6
ByLayer
 62
    4
370
   -1
100
AcDbLine
 10
85.55150548351361
 20
97.33161538936518
 11
86.84559902616435
 21
102.1612449717316
  0
LINE
  5
D2
100
AcDbEntity
  8
plate
  6
ByLayer
 62
    4
370
   -1
100
AcDbLine
 10
87.75146450601987
 20
105.5419856793883
 11
87.88087386028501
 21
106.0249486376249
  0
LINE
  5
D3
100
AcDbEntity
  8
plate
  6
ByLayer
 62
    4
370
   -1
100
AcDbLine
 10
87.52731888508538
 20
106.6373201584452
 11
74.97028334216047
 21
110.0019641610159
  0
LINE
  5
D4
100
AcDbEntity
  8
plate
  6
ByLayer
 62
    4
370
   -1
100
AcDbLine
 10
54.97023179444827
 20
110.8985997863777
 11
54.84082276538351
 21
110.4156362648763
  0
LINE
  5
D5
100
AcDbEntity
  8
plate
  6
ByLayer
 62
    4
370
   -1
100
AcDbLine
 10
53.9349572855279
 20
107.0348955572197
 11
52.64086374287717
 21
102.2052659748531
  0
LINE
  5
D6
100
AcDbEntity
  8
plate
  6
ByLayer
 62
    4
370
   -1
100
AcDbLine
 10
51.73499826302162
 20
98.82452526719641
 11
51.60558747649603
 21
98.34156148203822
  0
LINE
  5
D7
100
AcDbEntity
  8
plate
  6
ByLayer
 62
    4
370
   -1
100
AcDbLine
 10
51.95914165007414
 20
97.72918949840403
 11
64.51617960421984
 21
94.36454647840927
  0
LINE
  5
D8
100
AcDbEntity
  8
plate
  6
ByLayer
 62
    4
370
   -1
100
AcDbLine
 10
65.12855200662301
 20
94.71809992666095
 11
65.25796109364785
 21
95.20106334777435
  0
LINE
  5
D9
100
AcDbEntity
  8
plate
  6
ByLayer
 62
    4
370
   -1
100
AcDbLine
 10
66.1638265735034
 20
98.58180405543099
 11
67.45792011615416
 21
103.4114336377974
  0
LINE
  5
DA
100
AcDbEntity
  8
plate
  6
ByLayer
 62
    4
370
   -1
100
AcDbLine
 10
68.36378559600968
 20
106.7921743454541
 11
68.49319495027481
 21
107.2751373036908
  0
LINE
  5
DB
100
AcDbEntity
  8
plate
  6
ByLayer
 62
    4
370
   -1
100
AcDbLine
 10
68.13963997507517
 20
107.887508824511
 11
55.58260443215027
 21
111.2521528270817
  0
LINE
  5
DC
100
AcDbEntity
  8
plate
  6
ByLayer
 62
    4
370
   -1
100
AcDbLine
 10
34.10475884448167
 20
106.6305680480474
 11
33.97534981541691
 21
106.147604526546
  0
LINE
  5
DD
100
AcDbEntity
  8
plate
  6
ByLayer
 62
    4
370
   -1
100
AcDbLine
 10
33.0694843355613
 20
102.7668638188893
 11
31.77539079291057
 21
97.93723423652276
  0
LINE
  5
DE
100
AcDbEntity
  8
plate
  6
ByLayer
 62
    4
370
   -1
100
AcDbLine
 10
30.86952531305504
 20
94.5564935288661
 11
30.74011452652944
 21
94.07352974370791
  0
LINE
  5
DF
100
AcDbEntity
  8
plate
  6
ByLayer
 62
    4
370
   -1
100
AcDbLine
 10
31.09366870010754
 20
93.46115776007372
 11
43.65070665425326
 21
90.09651474007896
  0
LINE
  5
E0
100
AcDbEntity
  8
plate
  6
ByLayer
 62
    4
370
   -1
100
AcDbLine
 10
44.26307905665642
 20
90.45006818833065
 11
44.39248814368126
 21
90.93303160944404
  0
LINE
  5
E1
100
AcDbEntity
  8
plate
  6
ByLayer
 62
    4
370
   -1
100
AcDbLine
 10
45.29835362353681
 20
94.31377231710069
 11
46.59244716618755
 21
99.14340189946711
  0
LINE
  5
E2
100
AcDbEntity
  8
plate
  6
ByLayer
 62
    4
370
   -1
100
AcDbLine
 10
47.49831264604308
 20
102.5241426071238
 11
47.62772200030821
 21
103.0071055653604
  0
LINE
  5
E3
100
AcDbEntity
  8
plate
  6
ByLayer
 62
    4
370
   -1
100
AcDbLine
 10
47.27416702510858
 20
103.6194770861807
 11
34.71713148218367
 21
106.9841210887514
  0
LINE
  5
E4
100
AcDbEntity
  8
plate
  6
ByLayer
 62
    4
370
   -1
100
AcDbLine
 10
15.7032918841725
 20
111.5610518649436
 11
15.57388285510774
 21
111.0780883434421
  0
LINE
  5
E5
100
AcDbEntity
  8
plate
  6
ByLayer
 62
    4
370
   -1
100
AcDbLine
 10
14.66801737525213
 20
107.6973476357855
 11
13.37392383260141
 21
102.8677180534189
  0
LINE
  5
E6
100
AcDbEntity
  8
plate
  6
ByLayer
 62
    4
370
   -1
100
AcDbLine
 10
12.46805835274586
 20
99.48697734576228
 11
12.33864756622026
 21
99.00401356060409
  0
LINE
  5
E7
100
AcDbEntity
  8
plate
  6
ByLayer
 62
    4
370
   -1
100
AcDbLine
 10
12.69220173979838
 20
98.3916415769699
 11
25.24923969394408
 21
95.02699855697514
  0
LINE
  5
E8
100
AcDbEntity
  8
plate
  6
ByLayer
 62
    4
370
   -1
100
AcDbLine
 10
25.86161209634724
 20
95.38055200522683
 11
25.99102118337208
 21
95.86351542634023
  0
LINE
  5
E9
100
AcDbEntity
  8
plate
  6
ByLayer
 62
    4
370
   -1
100
AcDbLine
 10
26.89688666322763
 20
99.24425613399687
 11
28.19098020587839
 21
104.0738857163633
  0
LINE
  5
EA
100
AcDbEntity
  8
plate
  6
ByLayer
 62
    4
370
   -1
100
AcDbLine
 10
29.09684568573391
 20
107.45462642402
 11
29.22625503999905
 21
107.9375893822566
  0
LINE
  5
EB
100
AcDbEntity
  8
plate
  6
ByLayer
 62
    4
370
   -1
100
AcDbLine
 10
28.8727000647994
 20
108.5499609030769
 11
16.31566452187451
 21
111.9146049056476
  0
LINE
  5
EC
100
AcDbEntity
  8
plate
  6
ByLayer
 62
    4
370
   -1
100
AcDbLine
 10
114.118640060985
 20
110.8281879862145
 11
113.9892310319203
 21
110.345224464713
  0
LINE
  5
ED
100
AcDbEntity
  8
plate
  6
ByLayer
 62
    4
370
   -1
100
AcDbLine
 10
113.0833655520647
 20
106.9644837570564
 11
111.7892720094139
 21
102.1348541746898
  0
LINE
  5
EE
100
AcDbEntity
  8
plate
  6
ByLayer
 62
    4
370
   -1
100
AcDbLine
 10
110.8834065295584
 20
98.75411346703316
 11
110.7539957430328
 21
98.27114968187497
  0
LINE
  5
EF
100
AcDbEntity
  8
plate
  6
ByLayer
 62
    4
370
   -1
100
AcDbLine
 10
111.1075499166109
 20
97.65877769824078
 11
123.6645878707566
 21
94.29413467824602
  0
LINE
  5
F0
100
AcDbEntity
  8
plate
  6
ByLayer
 62
    4
370
   -1
100
AcDbLine
 10
124.2769602731598
 20
94.64768812649771
 11
124.4063693601846
 21
95.13065154761111
  0
LINE
  5
F1
100
AcDbEntity
  8
plate
  6
ByLayer
 62
    4
370
   -1
100
AcDbLine
 10
125.3122348400402
 20
98.51139225526775
 11
126.6063283826909
 21
103.3410218376342
  0
LINE
  5
F2
100
AcDbEntity
  8
plate
  6
ByLayer
 62
    4
370
   -1
100
AcDbLine
 10
127.5121938625464
 20
106.7217625452908
 11
127.6416032168116
 21
107.2047255035275
  0
LINE
  5
F3
100
AcDbEntity
  8
plate
  6
ByLayer
 62
    4
370
   -1
100
AcDbLine
 10
127.2880482416119
 20
107.8170970243478
 11
114.731012698687
 21
111.1817410269185
  0
LINE
  5
F4
100
AcDbEntity
  8
plate
  6
ByLayer
 62
    4
370
   -1
100
AcDbLine
 10
96.2106600446083
 20
117.5983749127415
 11
96.08125101554354
 21
117.11541139124
  0
LINE
  5
F5
100
AcDbEntity
  8
plate
  6
ByLayer
 62
    4
370
   -1
100
AcDbLine
 10
95.17538553568794
 20
113.7346706835834
 11
93.88129199303721
 21
108.9050411012168
  0
LINE
  5
F6
100
AcDbEntity
  8
plate
  6
ByLayer
 62
    4
370
   -1
100
AcDbLine
 10
92.97542651318167
 20
105.5243003935602
 11
92.84601572665608
 21
105.041336608402
  0
LINE
  5
F7
100
AcDbEntity
  8
plate
  6
ByLayer
 62
    4
370
   -1
100
AcDbLine
 10
93.19956990023418
 20
104.4289646247678
 11
105.7566078543799
 21
101.064321604773
  0
LINE
  5
F8
100
AcDbEntity
  8
plate
  6
ByLayer
 62
    4
370
   -1
100
AcDbLine
 10
106.3689802567831
 20
101.4178750530247
 11
106.4983893438079
 21
101.9008384741381
  0
LINE
  5
F9
100
AcDbEntity
  8
plate
  6
ByLayer
 62
    4
370
   -1
100
AcDbLine
 10
107.4042548236635
 20
105.2815791817948
 11
108.6983483663142
 21
110.1112087641612
  0
LINE
  5
FA
100
AcDbEntity
  8
plate
  6
ByLayer
 62
    4
370
   -1
100
AcDbLine
 10
109.6042138461697
 20
113.4919494718178
 11
109.7336232004348
 21
113.9749124300545
  0
LINE
  5
FB
100
AcDbEntity
  8
plate
  6
ByLayer
 62
    4
370
   -1
100
AcDbLine
 10
109.3800682252352
 20
114.5872839508748
 11
96.82303268231031
 21
117.9519279534455
  0
LINE
  5
FC
100
AcDbEntity
  8
plate
  6
ByLayer
 62
    4
370
   -1
100
AcDbLine
 10
79.28876498819217
 20
128.0489839803536
 11
79.15935595912741
 21
127.5660204588521
  0
LINE
  5
FD
100
AcDbEntity
  8
plate
  6
ByLayer
 62
    4
370
   -1
100
AcDbLine
 10
78.2534904792718
 20
124.1852797511955
 11
76.95939693662108
 21
119.3556501688289
  0
LINE
  5
FE
100
AcDbEntity
  8
plate
  6
ByLayer
 62
    4
370
   -1
100
AcDbLine
 10
76.05353145676554
 20
115.9749094611723
 11
75.92412067023994
 21
115.4919456760141
  0
LINE
  5
FF
100
AcDbEntity
  8
plate
  6
ByLayer
 62
    4
370
   -1
100
AcDbLine
 10
76.27767484381805
 20
114.8795736923799
 11
88.83471279796376
 21
111.5149306723851
  0
LINE
  5
100
100
AcDbEntity
  8
plate
  6
ByLayer
 62
    4
370
   -1
100
AcDbLine
 10
89.44708520036693
 20
111.8684841206368
 11
89.57649428739177
 21
112.3514475417502
  0
LINE
  5
101
100
AcDbEntity
  8
plate
  6
ByLayer
 62
    4
370
   -1
100
AcDbLine
 10
90.48235976724732
 20
115.7321882494069
 11
91.77645330989806
 21
120.5618178317733
  0
LINE
  5
102
100
AcDbEntity
  8
plate
  6
ByLayer
 62
    4
370
   -1
100
AcDbLine
 10
92.68231878975358
 20
123.94255853943
 11
92.81172814401872
 21
124.4255214976666
  0
LINE
  5
103
100
AcDbEntity
  8
plate
  6
ByLayer
 62
    4
370
   -1
100
AcDbLine
 10
92.45817316881909
 20
125.0378930184869
 11
79.90113762589418
 21
128.4025370210576
  0
LINE
  5
104
100
AcDbEntity
  8
plate
  6
ByLayer
 62
    4
370
   -1
100
AcDbLine
 10
59.90108607818198
 20
129.2991726464194
 11
59.77167704911722
 21
128.8162091249179
  0
LINE
  5
105
100
AcDbEntity
  8
plate
  6
ByLayer
 62
    4
370
   -1
100
AcDbLine
 10
58.86581156926161
 20
125.4354684172613
 11
57.57171802661088
 21
120.6058388348947
  0
LINE
  5
106
100
AcDbEntity
  8
plate
  6
ByLayer
 62
    4
370
   -1
100
AcDbLine
 10
56.66585254675533
 20
117.2250981272381
 11
56.53644176022974
 21
116.7421343420799
  0
LINE
  5
107
100
AcDbEntity
  8
plate
  6
ByLayer
 62
    4
370
   -1
100
AcDbLine
 10
56.88999593380785
 20
116.1297623584457
 11
69.44703388795355
 21
112.7651193384509
  0
LINE
  5
108
100
AcDbEntity
  8
plate
  6
ByLayer
 62
    4
370
   -1
100
AcDbLine
 10
70.05940629035672
 20
113.1186727867026
 11
70.18881537738156
 21
113.601636207816
  0
LINE
  5
109
100
AcDbEntity
  8
plate
  6
ByLayer
 62
    4
370
   -1
100
AcDbLine
 10
71.09468085723711
 20
116.9823769154727
 11
72.38877439988786
 21
121.8120064978391
  0
LINE
  5
10A
100
AcDbEntity
  8
plate
  6
ByLayer
 62
    4
370
   -1
100
AcDbLine
 10
73.29463987974339
 20
125.1927472054958
 11
73.42404923400852
 21
125.6757101637324
  0
LINE
  5
10B
100
AcDbEntity
  8
plate
  6
ByLayer
 62
    4
370
   -1
100
AcDbLine
 10
73.07049425880888
 20
126.2880816845527
 11
60.51345871588398
 21
129.6527256871234
  0
LINE
  5
10C
100
AcDbEntity
  8
plate
  6
ByLayer
 62
    4
370
   -1
100
AcDbLine
 10
39.03561312821537
 20
125.0311409080891
 11
38.90620409915061
 21
124.5481773865876
  0
LINE
  5
10D
100
AcDbEntity
  8
plate
  6
ByLayer
 62
    4
370
   -1
100
AcDbLine
 10
38.00033861929501
 20
121.167436678931
 11
36.70624507664428
 21
116.3378070965644
  0
LINE
  5
10E
100
AcDbEntity
  8
plate
  6
ByLayer
 62
    4
370
   -1
100
AcDbLine
 10
35.80037959678874
 20
112.9570663889078
 11
35.67096881026315
 21
112.4741026037496
  0
LINE
  5
10F
100
AcDbEntity
  8
plate
  6
ByLayer
 62
    4
370
   -1
100
AcDbLine
 10
36.02452298384125
 20
111.8617306201154
 11
48.58156093798696
 21
108.4970876001206
  0
LINE
  5
110
100
AcDbEntity
  8
plate
  6
ByLayer
 62
    4
370
   -1
100
AcDbLine
 10
49.19393334039013
 20
108.8506410483723
 11
49.32334242741497
 21
109.3336044694857
  0
LINE
  5
111
100
AcDbEntity
  8
plate
  6
ByLayer
 62
    4
370
   -1
100
AcDbLine
 10
50.22920790727052
 20
112.7143451771424
 11
51.52330144992126
 21
117.5439747595088
  0
LINE
  5
112
100
AcDbEntity
  8
plate
  6
ByLayer
 62
    4
370
   -1
100
AcDbLine
 10
52.42916692977678
 20
120.9247154671655
 11
52.55857628404192
 21
121.4076784254021
  0
LINE
  5
113
100
AcDbEntity
  8
plate
  6
ByLayer
 62
    4
370
   -1
100
AcDbLine
 10
52.20502130884229
 20
122.0200499462224
 11
39.64798576591738
 21
125.3846939487931
  0
LINE
  5
114
100
AcDbEntity
  8
plate
  6
ByLayer
 62
    4
370
   -1
100
AcDbLine
 10
20.63414616790621
 20
129.9616247249853
 11
20.50473713884145
 21
129.4786612034838
  0
LINE
  5
115
100
AcDbEntity
  8
plate
  6
ByLayer
 62
    4
370
   -1
100
AcDbLine
 10
19.59887165898584
 20
126.0979204958272
 11
18.30477811633511
 21
121.2682909134606
  0
LINE
  5
116
100
AcDbEntity
  8
plate
  6
ByLayer
 62
    4
370
   -1
100
AcDbLine
 10
17.39891263647957
 20
117.887550205804
 11
17.26950184995397
 21
117.4045864206458
  0
LINE
  5
117
100
AcDbEntity
  8
plate
  6
ByLayer
 62
    4
370
   -1
100
AcDbLine
 10
17.62305602353209
 20
116.7922144370116
 11
30.18009397767779
 21
113.4275714170168
  0
LINE
  5
118
100
AcDbEntity
  8
plate
  6
ByLayer
 62
    4
370
   -1
100
AcDbLine
 10
30.79246638008095
 20
113.7811248652685
 11
30.92187546710579
 21
114.2640882863819
  0
LINE
  5
119
100
AcDbEntity
  8
plate
  6
ByLayer
 62
    4
370
   -1
100
AcDbLine
 10
31.82774094696134
 20
117.6448289940385
 11
33.1218344896121
 21
122.474458576405
  0
LINE
  5
11A
100
AcDbEntity
  8
plate
  6
ByLayer
 62
    4
370
   -1
100
AcDbLine
 10
34.02769996946762
 20
125.8551992840616
 11
34.15710932373275
 21
126.3381622422983
  0
LINE
  5
11B
100
AcDbEntity
  8
plate
  6
ByLayer
 62
    4
370
   -1
100
AcDbLine
 10
33.80355434853311
 20
126.9505337631186
 11
21.24651880560822
 21
130.3151777656893
  0
LINE
  5
11C
100
AcDbEntity
  8
plate
  6
ByLayer
 62
    4
370
   -1
100
AcDbLine
 10
119.0479996225766
 20
129.2300320534553
 11
118.9185905935119
 21
128.7470685319538
  0
LINE
  5
11D
100
AcDbEntity
  8
plate
  6
ByLayer
 62
    4
370
   -1
100
AcDbLine
 10
118.0127251136563
 20
125.3663278242972
 11
116.7186315710055
 21
120.5366982419306
  0
LINE
  5
11E
100
AcDbEntity
  8
plate
  6
ByLayer
 62
    4
370
   -1
100
AcDbLine
 10
115.81276609115
 20
117.155957534274
 11
115.6833553046244
 21
116.6729937491158
  0
LINE
  5
11F
100
AcDbEntity
  8
plate
  6
ByLayer
 62
    4
370
   -1
100
AcDbLine
 10
116.0369094782025
 20
116.0606217654816
 11
128.5939474323482
 21
112.6959787454868
  0
LINE
  5
120
100
AcDbEntity
  8
plate
  6
ByLayer
 62
    4
370
   -1
100
AcDbLine
 10
129.2063198347514
 20
113.0495321937385
 11
129.3357289217763
 21
113.5324956148519
  0
LINE
  5
121
100
AcDbEntity
  8
plate
  6
ByLayer
 62
    4
370
   -1
100
AcDbLine
 10
130.2415944016318
 20
116.9132363225085
 11
131.5356879442825
 21
121.742865904875
  0
LINE
  5
122
100
AcDbEntity
  8
plate
  6
ByLayer
 62
    4
370
   -1
100
AcDbLine
 10
132.441553424138
 20
125.1236066125316
 11
132.5709627784032
 21
125.6065695707683
  0
LINE
  5
123
100
AcDbEntity
  8
plate
  6
ByLayer
 62
    4
370
   -1
100
AcDbLine
 10
132.2174078032036
 20
126.2189410915886
 11
119.6603722602786
 21
129.5835850941593
  0
LINE
  5
124
100
AcDbEntity
  8
plate
  6
ByLayer
 62
    4
370
   -1
100
AcDbLine
 10
101.1400196061999
 20
136.0002189799823
 11
101.0106105771352
 21
135.5172554584808
  0
LINE
  5
125
100
AcDbEntity
  8
plate
  6
ByLayer
 62
    4
370
   -1
100
AcDbLine
 10
100.1047450972795
 20
132.1365147508242
 11
98.81065155462882
 21
127.3068851684576
  0
LINE
  5
126
100
AcDbEntity
  8
plate
  6
ByLayer
 62
    4
370
   -1
100
AcDbLine
 10
97.90478607477328
 20
123.926144460801
 11
97.77537528824769
 21
123.4431806756428
  0
LINE
  5
127
100
AcDbEntity
  8
plate
  6
ByLayer
 62
    4
370
   -1
100
AcDbLine
 10
98.12892946182579
 20
122.8308086920086
 11
110.6859674159715
 21
119.4661656720138
  0
LINE
  5
128
100
AcDbEntity
  8
plate
  6
ByLayer
 62
    4
370
   -1
100
AcDbLine
 10
111.2983398183747
 20
119.8197191202655
 11
111.4277489053995
 21
120.3026825413789
  0
LINE
  5
129
100
AcDbEntity
  8
plate
  6
ByLayer
 62
    4
370
   -1
100
AcDbLine
 10
112.3336143852551
 20
123.6834232490355
 11
113.6277079279058
 21
128.513052831402
  0
LINE
  5
12A
100
AcDbEntity
  8
plate
  6
ByLayer
 62
    4
370
   -1
100
AcDbLine
 10
114.5335734077613
 20
131.8937935390586
 11
114.6629827620265
 21
132.3767564972953
  0
LINE
  5
12B
100
AcDbEntity
  8
plate
  6
ByLayer
 62
    4
370
   -1
100
AcDbLine
 10
114.3094277868268
 20
132.9891280181156
 11
101.7523922439019
 21
136.3537720206863
  0
LINE
  5
12C
100
AcDbEntity
  8
plate
  6
ByLayer
 62
    4
370
   -1
100
AcDbLine
 10
84.21812454978378
 20
146.4508280475944
 11
84.08871552071902
 21
145.9678645260929
  0
LINE
  5
12D
100
AcDbEntity
  8
plate
  6
ByLayer
 62
    4
370
   -1
100
AcDbLine
 10
83.18285004086341
 20
142.5871238184363
 11
81.88875649821269
 21
137.7574942360697
  0
LINE
  5
12E
100
AcDbEntity
  8
plate
  6
ByLayer
 62
    4
370
   -1
100
AcDbLine
 10
80.98289101835715
 20
134.3767535284131
 11
80.85348023183155
 21
133.8937897432549
  0
LINE
  5
12F
100
AcDbEntity
  8
plate
  6
ByLayer
 62
    4
370
   -1
100
AcDbLine
 10
81.20703440540966
 20
133.2814177596207
 11
93.76407235955537
 21
129.9167747396259
  0
LINE
  5
130
100
AcDbEntity
  8
plate
  6
ByLayer
 62
    4
370
   -1
100
AcDbLine
 10
94.37644476195854
 20
130.2703281878776
 11
94.50585384898338
 21
130.753291608991
  0
LINE
  5
131
100
AcDbEntity
  8
plate
  6
ByLayer
 62
    4
370
   -1
100
AcDbLine
 10
95.41171932883893
 20
134.1340323166476
 11
96.70581287148967
 21
138.9636618990141
  0
LINE
  5
132
100
AcDbEntity
  8
plate
  6
ByLayer
 62
    4
370
   -1
100
AcDbLine
 10
97.61167835134519
 20
142.3444026066707
 11
97.74108770561033
 21
142.8273655649074
  0
LINE
  5
133
100
AcDbEntity
  8
plate
  6
ByLayer
 62
    4
370
   -1
100
AcDbLine
 10
97.3875327304107
 20
143.4397370857277
 11
84.83049718748579
 21
146.8043810882984
  0
LINE
  5
134
100
AcDbEntity
  8
plate
  6
ByLayer
 62
    4
370
   -1
100
AcDbLine
 10
64.83044563977359
 20
147.7010167136602
 11
64.70103661070883
 21
147.2180531921587
  0
LINE
  5
135
100
AcDbEntity
  8
plate
  6
ByLayer
 62
    4
370
   -1
100
AcDbLine
 10
63.79517113085322
 20
143.8373124845021
 11
62.50107758820249
 21
139.0076829021355
  0
LINE
  5
136
100
AcDbEntity
  8
plate
  6
ByLayer
 62
    4
370
   -1
100
AcDbLine
 10
61.59521210834694
 20
135.6269421944789
 11
61.46580132182135
 21
135.1439784093207
  0
LINE
  5
137
100
AcDbEntity
  8
plate
  6
ByLayer
 62
    4
370
   -1
100
AcDbLine
 10
61.81935549539946
 20
134.5316064256865
 11
74.37639344954516
 21
131.1669634056917
  0
LINE
  5
138
100
AcDbEntity
  8
plate
  6
ByLayer
 62
    4
370
   -1
100
AcDbLine
 10
74.98876585194833
 20
131.5205168539434
 11
75.11817493897317
 21
132.0034802750568
  0
LINE
  5
139
100
AcDbEntity
  8
plate
  6
ByLayer
 62
    4
370
   -1
100
AcDbLine
 10
76.02404041882872
 20
135.3842209827135
 11
77.31813396147948
 21
140.2138505650799
  0
LINE
  5
13A
100
AcDbEntity
  8
plate
  6
ByLayer
 62
    4
370
   -1
100
AcDbLine
 10
78.223999441335
 20
143.5945912727366
 11
78.35340879560013
 21
144.0775542309732
  0
LINE
  5
13B
100
AcDbEntity
  8
plate
  6
ByLayer
 62
    4
370
   -1
100
AcDbLine
 10
77.99985382040049
 20
144.6899257517935
 11
65.4428182774756
 21
148.0545697543642
  0
LINE
  5
13C
100
AcDbEntity
  8
plate
  6
ByLayer
 62
    4
370
   -1
100
AcDbLine
 10
43.96497268980698
 20
143.4329849753299
 11
43.83556366074222
 21
142.9500214538284
  0
LINE
  5
13D
100
AcDbEntity
  8
plate
  6
ByLayer
 62
    4
370
   -1
100
AcDbLine
 10
42.92969818088662
 20
139.5692807461718
 11
41.63560463823589
 21
134.7396511638052
  0
LINE
  5
13E
100
AcDbEntity
  8
plate
  6
ByLayer
 62
    4
370
   -1
100
AcDbLine
 10
40.72973915838035
 20
131.3589104561486
 11
40.60032837185476
 21
130.8759466709904
  0
LINE
  5
13F
100
AcDbEntity
  8
plate
  6
ByLayer
 62
    4
370
   -1
100
AcDbLine
 10
40.95388254543286
 20
130.2635746873562
 11
53.51092049957857
 21
126.8989316673614
  0
LINE
  5
140
100
AcDbEntity
  8
plate
  6
ByLayer
 62
    4
370
   -1
100
AcDbLine
 10
54.12329290198174
 20
127.2524851156131
 11
54.25270198900658
 21
127.7354485367265
  0
LINE
  5
141
100
AcDbEntity
  8
plate
  6
ByLayer
 62
    4
370
   -1
100
AcDbLine
 10
55.15856746886213
 20
131.1161892443832
 11
56.45266101151287
 21
135.9458188267496
  0
LINE
  5
142
100
AcDbEntity
  8
plate
  6
ByLayer
 62
    4
370
   -1
100
AcDbLine
 10
57.35852649136839
 20
139.3265595344062
 11
57.48793584563353
 21
139.8095224926429
  0
LINE
  5
143
100
AcDbEntity
  8
plate
  6
ByLayer
 62
    4
370
   -1
100
AcDbLine
 10
57.1343808704339
 20
140.4218940134632
 11
44.57734532750899
 21
143.7865380160339
  0
LINE
  5
144
100
AcDbEntity
  8
plate
  6
ByLayer
 62
    4
370
   -1
100
AcDbLine
 10
25.56350572949782
 20
148.3634687922261
 11
25.43409670043306
 21
147.8805052707246
  0
LINE
  5
145
100
AcDbEntity
  8
plate
  6
ByLayer
 62
    4
370
   -1
100
AcDbLine
 10
24.52823122057745
 20
144.499764563068
 11
23.23413767792673
 21
139.6701349807014
  0
LINE
  5
146
100
AcDbEntity
  8
plate
  6
ByLayer
 62
    4
370
   -1
100
AcDbLine
 10
22.32827219807118
 20
136.2893942730448
 11
22.19886141154558
 21
135.8064304878866
  0
LINE
  5
147
100
AcDbEntity
  8
plate
  6
ByLayer
 62
    4
370
   -1
100
AcDbLine
 10
22.5524155851237
 20
135.1940585042524
 11
35.1094535392694
 21
131.8294154842576
  0
LINE
  5
148
100
AcDbEntity
  8
plate
  6
ByLayer
 62
    4
370
   -1
100
AcDbLine
 10
35.72182594167256
 20
132.1829689325093
 11
35.8512350286974
 21
132.6659323536227
  0
LINE
  5
149
100
AcDbEntity
  8
plate
  6
ByLayer
 62
    4
370
   -1
100
AcDbLine
 10
36.75710050855295
 20
136.0466730612793
 11
38.05119405120371
 21
140.8763026436458
  0
LINE
  5
14A
100
AcDbEntity
  8
plate
  6
ByLayer
 62
    4
370
   -1
100
AcDbLine
 10
38.73291391012472
 20
145.3523778303594
 11
26.17587836719983
 21
148.7170218329301
  0
LINE
  5
14B
100
AcDbEntity
  8
plate
  6
ByLayer
 62
    4
370
   -1
100
AcDbLine
 10
174.4158666909152
 20
129.2300320534547
 11
174.5452757199799
 21
128.7470685319532
  0
LINE
  5
14C
100
AcDbEntity
  8
plate
  6
ByLayer
 62
    4
370
   -1
100
AcDbLine
 10
175.4511411998355
 20
125.3663278242966
 11
176.7452347424863
 21
120.53669824193
  0
LINE
  5
14D
100
AcDbEntity
  8
plate
  6
ByLayer
 62
    4
370
   -1
100
AcDbLine
 10
177.6511002223418
 20
117.1559575342734
 11
177.7805110088674
 21
116.6729937491152
  0
LINE
  5
14E
100
AcDbEntity
  8
plate
  6
ByLayer
 62
    4
370
   -1
100
AcDbLine
 10
177.4269568352893
 20
116.060621765481
 11
164.8699188811436
 21
112.6959787454862
  0
LINE
  5
14F
100
AcDbEntity
  8
plate
  6
ByLayer
 62
    4
370
   -1
100
AcDbLine
 10
164.2575464787404
 20
113.0495321937379
 11
164.1281373917156
 21
113.5324956148513
  0
LINE
  5
150
100
AcDbEntity
  8
plate
  6
ByLayer
 62
    4
370
   -1
100
AcDbLine
 10
163.22227191186
 20
116.9132363225079
 11
161.9281783692093
 21
121.7428659048744
  0
LINE
  5
151
100
AcDbEntity
  8
plate
  6
ByLayer
 62
    4
370
   -1
100
AcDbLine
 10
161.0223128893538
 20
125.123606612531
 11
160.8929035350886
 21
125.6065695707677
  0
LINE
  5
152
100
AcDbEntity
  8
plate
  6
ByLayer
 62
    4
370
   -1
100
AcDbLine
 10
161.2464585102883
 20
126.218941091588
 11
173.8034940532132
 21
129.5835850941587
  0
LINE
  5
153
100
AcDbEntity
  8
plate
  6
ByLayer
 62
    4
370
   -1
100
AcDbLine
 10
192.3238467072919
 20
136.0002189799817
 11
192.4532557363567
 21
135.5172554584802
  0
LINE
  5
154
100
AcDbEntity
  8
plate
  6
ByLayer
 62
    4
370
   -1
100
AcDbLine
 10
193.3591212162123
 20
132.1365147508236
 11
194.653214758863
 21
127.306885168457
  0
LINE
  5
155
100
AcDbEntity
  8
plate
  6
ByLayer
 62
    4
370
   -1
100
AcDbLine
 10
195.5590802387185
 20
123.9261444608004
 11
195.6884910252441
 21
123.4431806756422
  0
LINE
  5
156
100
AcDbEntity
  8
plate
  6
ByLayer
 62
    4
370
   -1
100
AcDbLine
 10
195.334936851666
 20
122.830808692008
 11
182.7778988975203
 21
119.4661656720132
  0
LINE
  5
157
100
AcDbEntity
  8
plate
  6
ByLayer
 62
    4
370
   -1
100
AcDbLine
 10
182.1655264951171
 20
119.8197191202649
 11
182.0361174080923
 21
120.3026825413783
  0
LINE
  5
158
100
AcDbEntity
  8
plate
  6
ByLayer
 62
    4
370
   -1
100
AcDbLine
 10
181.1302519282368
 20
123.6834232490349
 11
179.836158385586
 21
128.5130528314014
  0
LINE
  5
159
100
AcDbEntity
  8
plate
  6
ByLayer
 62
    4
370
   -1
100
AcDbLine
 10
178.9302929057305
 20
131.893793539058
 11
178.8008835514653
 21
132.3767564972947
  0
LINE
  5
15A
100
AcDbEntity
  8
plate
  6
ByLayer
 62
    4
370
   -1
100
AcDbLine
 10
179.154438526665
 20
132.989128018115
 11
191.7114740695899
 21
136.3537720206857
  0
LINE
  5
15B
100
AcDbEntity
  8
plate
  6
ByLayer
 62
    4
370
   -1
100
AcDbLine
 10
209.2457417637081
 20
146.4508280475938
 11
209.3751507927728
 21
145.9678645260923
  0
LINE
  5
15C
100
AcDbEntity
  8
plate
  6
ByLayer
 62
    4
370
   -1
100
AcDbLine
 10
210.2810162726284
 20
142.5871238184357
 11
211.5751098152791
 21
137.7574942360691
  0
LINE
  5
15D
100
AcDbEntity
  8
plate
  6
ByLayer
 62
    4
370
   -1
100
AcDbLine
 10
212.4809752951347
 20
134.3767535284125
 11
212.6103860816603
 21
133.8937897432543
  0
LINE
  5
15E
100
AcDbEntity
  8
plate
  6
ByLayer
 62
    4
370
   -1
100
AcDbLine
 10
212.2568319080822
 20
133.2814177596201
 11
199.6997939539364
 21
129.9167747396253
  0
LINE
  5
15F
100
AcDbEntity
  8
plate
  6
ByLayer
 62
    4
370
   -1
100
AcDbLine
 10
199.0874215515333
 20
130.270328187877
 11
198.9580124645084
 21
130.7532916089904
  0
LINE
  5
160
100
AcDbEntity
  8
plate
  6
ByLayer
 62
    4
370
   -1
100
AcDbLine
 10
198.0521469846529
 20
134.1340323166471
 11
196.7580534420022
 21
138.9636618990135
  0
LINE
  5
161
100
AcDbEntity
  8
plate
  6
ByLayer
 62
    4
370
   -1
100
AcDbLine
 10
195.8521879621466
 20
142.3444026066701
 11
195.7227786078815
 21
142.8273655649068
  0
LINE
  5
162
100
AcDbEntity
  8
plate
  6
ByLayer
 62
    4
370
   -1
100
AcDbLine
 10
196.0763335830811
 20
143.4397370857271
 11
208.633369126006
 21
146.8043810882978
  0
LINE
  5
163
100
AcDbEntity
  8
plate
  6
ByLayer
 62
    4
370
   -1
100
AcDbLine
 10
228.6334206737182
 20
147.7010167136596
 11
228.762829702783
 21
147.2180531921581
  0
LINE
  5
164
100
AcDbEntity
  8
plate
  6
ByLayer
 62
    4
370
   -1
100
AcDbLine
 10
229.6686951826386
 20
143.8373124845015
 11
230.9627887252893
 21
139.0076829021349
  0
LINE
  5
165
100
AcDbEntity
  8
plate
  6
ByLayer
 62
    4
370
   -1
100
AcDbLine
 10
231.8686542051449
 20
135.6269421944783
 11
231.9980649916705
 21
135.1439784093201
  0
LINE
  5
166
100
AcDbEntity
  8
plate
  6
ByLayer
 62
    4
370
   -1
100
AcDbLine
 10
231.6445108180924
 20
134.5316064256859
 11
219.0874728639467
 21
131.1669634056911
  0
LINE
  5
167
100
AcDbEntity
  8
plate
  6
ByLayer
 62
    4
370
   -1
100
AcDbLine
 10
218.4751004615435
 20
131.5205168539428
 11
218.3456913745187
 21
132.0034802750562
  0
LINE
  5
168
100
AcDbEntity
  8
plate
  6
ByLayer
 62
    4
370
   -1
100
AcDbLine
 10
217.4398258946631
 20
135.3842209827129
 11
216.1457323520123
 21
140.2138505650793
  0
LINE
  5
169
100
AcDbEntity
  8
plate
  6
ByLayer
 62
    4
370
   -1
100
AcDbLine
 10
215.2398668721568
 20
143.594591272736
 11
215.1104575178917
 21
144.0775542309726
  0
LINE
  5
16A
100
AcDbEntity
  8
plate
  6
ByLayer
 62
    4
370
   -1
100
AcDbLine
 10
215.4640124930913
 20
144.6899257517929
 11
228.0210480360162
 21
148.0545697543636
  0
LINE
  5
16B
100
AcDbEntity
  8
plate
  6
ByLayer
 62
    4
370
   -1
100
AcDbLine
 10
249.4988936236848
 20
143.4329849753293
 11
249.6283026527496
 21
142.9500214538278
  0
LINE
  5
16C
100
AcDbEntity
  8
plate
  6
ByLayer
 62
    4
370
   -1
100
AcDbLine
 10
250.5341681326052
 20
139.5692807461712
 11
251.8282616752559
 21
134.7396511638046
  0
LINE
  5
16D
100
AcDbEntity
  8
plate
  6
ByLayer
 62
    4
370
   -1
100
AcDbLine
 10
252.7341271551115
 20
131.358910456148
 11
252.863537941637
 21
130.8759466709898
  0
LINE
  5
16E
100
AcDbEntity
  8
plate
  6
ByLayer
 62
    4
370
   -1
100
AcDbLine
 10
252.509983768059
 20
130.2635746873556
 11
239.9529458139132
 21
126.8989316673608
  0
LINE
  5
16F
100
AcDbEntity
  8
plate
  6
ByLayer
 62
    4
370
   -1
100
AcDbLine
 10
239.3405734115101
 20
127.2524851156125
 11
239.2111643244853
 21
127.7354485367259
  0
LINE
  5
170
100
AcDbEntity
  8
plate
  6
ByLayer
 62
    4
370
   -1
100
AcDbLine
 10
238.3052988446297
 20
131.1161892443826
 11
237.0112053019789
 21
135.945818826749
  0
LINE
  5
171
100
AcDbEntity
  8
plate
  6
ByLayer
 62
    4
370
   -1
100
AcDbLine
 10
236.1053398221234
 20
139.3265595344056
 11
235.9759304678583
 21
139.8095224926423
  0
LINE
  5
172
100
AcDbEntity
  8
plate
  6
ByLayer
 62
    4
370
   -1
100
AcDbLine
 10
236.3294854430579
 20
140.4218940134626
 11
248.8865209859828
 21
143.7865380160333
  0
LINE
  5
173
100
AcDbEntity
  8
plate
  6
ByLayer
 62
    4
370
   -1
100
AcDbLine
 10
267.900360583994
 20
148.3634687922255
 11
268.0297696130588
 21
147.880505270724
  0
LINE
  5
174
100
AcDbEntity
  8
plate
  6
ByLayer
 62
    4
370
   -1
100
AcDbLine
 10
268.9356350929144
 20
144.4997645630674
 11
270.2297286355651
 21
139.6701349807008
  0
LINE
  5
175
100
AcDbEntity
  8
plate
  6
ByLayer
 62
    4
370
   -1
100
AcDbLine
 10
271.1355941154206
 20
136.2893942730442
 11
271.2650049019462
 21
135.806430487886
  0
LINE
  5
176
100
AcDbEntity
  8
plate
  6
ByLayer
 62
    4
370
   -1
100
AcDbLine
 10
270.9114507283681
 20
135.1940585042518
 11
258.3544127742224
 21
131.829415484257
  0
LINE
  5
177
100
AcDbEntity
  8
plate
  6
ByLayer
 62
    4
370
   -1
100
AcDbLine
 10
257.7420403718193
 20
132.1829689325087
 11
257.6126312847944
 21
132.6659323536221
  0
LINE
  5
178
100
AcDbEntity
  8
plate
  6
ByLayer
 62
    4
370
   -1
100
AcDbLine
 10
256.7067658049389
 20
136.0466730612787
 11
255.4126722622881
 21
140.8763026436452
  0
LINE
  5
179
100
AcDbEntity
  8
plate
  6
ByLayer
 62
    4
370
   -1
100
AcDbLine
 10
254.5068067824326
 20
144.2570433513018
 11
254.3773974281675
 21
144.7400063095385
  0
LINE
  5
17A
100
AcDbEntity
  8
plate
  6
ByLayer
 62
    4
370
   -1
100
AcDbLine
 10
254.7309524033671
 20
145.3523778303588
 11
267.287987946292
 21
148.7170218329295
  0
LINE
  5
17B
100
AcDbEntity
  8
plate
  6
ByLayer
 62
    4
370
   -1
100
AcDbLine
 10
179.2821073690895
 20
110.8281879862139
 11
179.4115163981542
 21
110.3452244647124
  0
LINE
  5
17C
100
AcDbEntity
  8
plate
  6
ByLayer
 62
    4
370
   -1
100
AcDbLine
 10
180.3173818780098
 20
106.9644837570558
 11
181.6114754206606
 21
102.1348541746892
  0
LINE
  5
17D
100
AcDbEntity
  8
plate
  6
ByLayer
 62
    4
370
   -1
100
AcDbLine
 10
182.5173409005161
 20
98.75411346703261
 11
182.6467516870417
 21
98.27114968187441
  0
LINE
  5
17E
100
AcDbEntity
  8
plate
  6
ByLayer
 62
    4
370
   -1
100
AcDbLine
 10
182.2931975134636
 20
97.65877769824023
 11
169.7361595593179
 21
94.29413467824547
  0
LINE
  5
17F
100
AcDbEntity
  8
plate
  6
ByLayer
 62
    4
370
   -1
100
AcDbLine
 10
169.1237871569147
 20
94.64768812649716
 11
168.9943780698899
 21
95.13065154761055
  0
LINE
  5
180
100
AcDbEntity
  8
plate
  6
ByLayer
 62
    4
370
   -1
100
AcDbLine
 10
168.0885125900343
 20
98.51139225526718
 11
166.7944190473836
 21
103.3410218376336
  0
LINE
  5
181
100
AcDbEntity
  8
plate
  6
ByLayer
 62
    4
370
   -1
100
AcDbLine
 10
165.888553567528
 20
106.7217625452903
 11
165.7591442132629
 21
107.2047255035269
  0
LINE
  5
182
100
AcDbEntity
  8
plate
  6
ByLayer
 62
    4
370
   -1
100
AcDbLine
 10
166.1126991884626
 20
107.8170970243472
 11
178.6697347313875
 21
111.1817410269179
  0
LINE
  5
183
100
AcDbEntity
  8
plate
  6
ByLayer
 62
    4
370
   -1
100
AcDbLine
 10
197.1900873854662
 20
117.5983749127409
 11
197.3194964145309
 21
117.1154113912394
  0
LINE
  5
184
100
AcDbEntity
  8
plate
  6
ByLayer
 62
    4
370
   -1
100
AcDbLine
 10
198.2253618943865
 20
113.7346706835828
 11
199.5194554370373
 21
108.9050411012162
  0
LINE
  5
185
100
AcDbEntity
  8
plate
  6
ByLayer
 62
    4
370
   -1
100
AcDbLine
 10
200.4253209168928
 20
105.5243003935596
 11
200.5547317034184
 21
105.0413366084014
  0
LINE
  5
186
100
AcDbEntity
  8
plate
  6
ByLayer
 62
    4
370
   -1
100
AcDbLine
 10
200.2011775298403
 20
104.4289646247672
 11
187.6441395756946
 21
101.0643216047724
  0
LINE
  5
187
100
AcDbEntity
  8
plate
  6
ByLayer
 62
    4
370
   -1
100
AcDbLine
 10
187.0317671732914
 20
101.4178750530242
 11
186.9023580862666
 21
101.9008384741375
  0
LINE
  5
188
100
AcDbEntity
  8
plate
  6
ByLayer
 62
    4
370
   -1
100
AcDbLine
 10
185.996492606411
 20
105.2815791817942
 11
184.7023990637603
 21
110.1112087641606
  0
LINE
  5
189
100
AcDbEntity
  8
plate
  6
ByLayer
 62
    4
370
   -1
100
AcDbLine
 10
183.7965335839048
 20
113.4919494718173
 11
183.6671242296396
 21
113.9749124300539
  0
LINE
  5
18A
100
AcDbEntity
  8
plate
  6
ByLayer
 62
    4
370
   -1
100
AcDbLine
 10
184.0206792048393
 20
114.5872839508742
 11
196.5777147477642
 21
117.9519279534449
  0
LINE
  5
18B
100
AcDbEntity
  8
plate
  6
ByLayer
 62
    4
370
   -1
100
AcDbLine
 10
214.1119824418823
 20
128.0489839803531
 11
214.2413914709471
 21
127.5660204588516
  0
LINE
  5
18C
100
AcDbEntity
  8
plate
  6
ByLayer
 62
    4
370
   -1
100
AcDbLine
 10
215.1472569508027
 20
124.185279751195
 11
216.4413504934534
 21
119.3556501688283
  0
LINE
  5
18D
100
AcDbEntity
  8
plate
  6
ByLayer
 62
    4
370
   -1
100
AcDbLine
 10
217.3472159733089
 20
115.9749094611717
 11
217.4766267598345
 21
115.4919456760135
  0
LINE
  5
18E
100
AcDbEntity
  8
plate
  6
ByLayer
 62
    4
370
   -1
100
AcDbLine
 10
217.1230725862565
 20
114.8795736923793
 11
204.5660346321107
 21
111.5149306723846
  0
LINE
  5
18F
100
AcDbEntity
  8
plate
  6
ByLayer
 62
    4
370
   -1
100
AcDbLine
 10
203.9536622297076
 20
111.8684841206363
 11
203.8242531426827
 21
112.3514475417496
  0
LINE
  5
190
100
AcDbEntity
  8
plate
  6
ByLayer
 62
    4
370
   -1
100
AcDbLine
 10
202.9183876628272
 20
115.7321882494063
 11
201.6242941201764
 21
120.5618178317727
  0
LINE
  5
191
100
AcDbEntity
  8
plate
  6
ByLayer
 62
    4
370
   -1
100
AcDbLine
 10
200.7184286403209
 20
123.9425585394294
 11
200.5890192860558
 21
124.4255214976661
  0
LINE
  5
192
100
AcDbEntity
  8
plate
  6
ByLayer
 62
    4
370
   -1
100
AcDbLine
 10
200.9425742612554
 20
125.0378930184863
 11
213.4996098041803
 21
128.402537021057
  0
LINE
  5
193
100
AcDbEntity
  8
plate
  6
ByLayer
 62
    4
370
   -1
100
AcDbLine
 10
233.4996613518925
 20
129.2991726464189
 11
233.6290703809573
 21
128.8162091249173
  0
LINE
  5
194
100
AcDbEntity
  8
plate
  6
ByLayer
 62
    4
370
   -1
100
AcDbLine
 10
234.5349358608129
 20
125.4354684172608
 11
235.8290294034636
 21
120.6058388348942
  0
LINE
  5
195
100
AcDbEntity
  8
plate
  6
ByLayer
 62
    4
370
   -1
100
AcDbLine
 10
236.7348948833192
 20
117.2250981272375
 11
236.8643056698448
 21
116.7421343420793
  0
LINE
  5
196
100
AcDbEntity
  8
plate
  6
ByLayer
 62
    4
370
   -1
100
AcDbLine
 10
236.5107514962666
 20
116.1297623584451
 11
223.9537135421209
 21
112.7651193384504
  0
LINE
  5
197
100
AcDbEntity
  8
plate
  6
ByLayer
 62
    4
370
   -1
100
AcDbLine
 10
223.3413411397178
 20
113.1186727867021
 11
223.2119320526929
 21
113.6016362078154
  0
LINE
  5
198
100
AcDbEntity
  8
plate
  6
ByLayer
 62
    4
370
   -1
100
AcDbLine
 10
222.3060665728374
 20
116.9823769154721
 11
221.0119730301866
 21
121.8120064978385
  0
LINE
  5
199
100
AcDbEntity
  8
plate
  6
ByLayer
 62
    4
370
   -1
100
AcDbLine
 10
220.1061075503311
 20
125.1927472054952
 11
219.976698196066
 21
125.6757101637319
  0
LINE
  5
19A
100
AcDbEntity
  8
plate
  6
ByLayer
 62
    4
370
   -1
100
AcDbLine
 10
220.3302531712656
 20
126.2880816845522
 11
232.8872887141905
 21
129.6527256871228
  0
LINE
  5
19B
100
AcDbEntity
  8
plate
  6
ByLayer
 62
    4
370
   -1
100
AcDbLine
 10
254.3651343018591
 20
125.0311409080885
 11
254.4945433309239
 21
124.5481773865871
  0
LINE
  5
19C
100
AcDbEntity
  8
plate
  6
ByLayer
 62
    4
370
   -1
100
AcDbLine
 10
255.4004088107795
 20
121.1674366789305
 11
256.6945023534302
 21
116.3378070965638
  0
LINE
  5
19D
100
AcDbEntity
  8
plate
  6
ByLayer
 62
    4
370
   -1
100
AcDbLine
 10
257.6003678332858
 20
112.9570663889072
 11
257.7297786198113
 21
112.474102603749
  0
LINE
  5
19E
100
AcDbEntity
  8
plate
  6
ByLayer
 62
    4
370
   -1
100
AcDbLine
 10
257.3762244462332
 20
111.8617306201148
 11
244.8191864920875
 21
108.4970876001201
  0
LINE
  5
19F
100
AcDbEntity
  8
plate
  6
ByLayer
 62
    4
370
   -1
100
AcDbLine
 10
244.2068140896844
 20
108.8506410483718
 11
244.0774050026595
 21
109.3336044694851
  0
LINE
  5
1A0
100
AcDbEntity
  8
plate
  6
ByLayer
 62
    4
370
   -1
100
AcDbLine
 10
243.171539522804
 20
112.7143451771418
 11
241.8774459801532
 21
117.5439747595082
  0
LINE
  5
1A1
100
AcDbEntity
  8
plate
  6
ByLayer
 62
    4
370
   -1
100
AcDbLine
 10
240.9715805002977
 20
120.9247154671649
 11
240.8421711460326
 21
121.4076784254016
  0
LINE
  5
1A2
100
AcDbEntity
  8
plate
  6
ByLayer
 62
    4
370
   -1
100
AcDbLine
 10
241.1957261212322
 20
122.0200499462218
 11
253.7527616641571
 21
125.3846939487925
  0
LINE
  5
1A3
100
AcDbEntity
  8
plate
  6
ByLayer
 62
    4
370
   -1
100
AcDbLine
 10
272.7666012621683
 20
129.9616247249847
 11
272.896010291233
 21
129.4786612034832
  0
LINE
  5
1A4
100
AcDbEntity
  8
plate
  6
ByLayer
 62
    4
370
   -1
100
AcDbLine
 10
273.8018757710886
 20
126.0979204958266
 11
275.0959693137394
 21
121.26829091346
  0
LINE
  5
1A5
100
AcDbEntity
  8
plate
  6
ByLayer
 62
    4
370
   -1
100
AcDbLine
 10
276.0018347935949
 20
117.8875502058034
 11
276.1312455801205
 21
117.4045864206452
  0
LINE
  5
1A6
100
AcDbEntity
  8
plate
  6
ByLayer
 62
    4
370
   -1
100
AcDbLine
 10
275.7776914065424
 20
116.792214437011
 11
263.2206534523967
 21
113.4275714170162
  0
LINE
  5
1A7
100
AcDbEntity
  8
plate
  6
ByLayer
 62
    4
370
   -1
100
AcDbLine
 10
262.6082810499935
 20
113.781124865268
 11
262.4788719629687
 21
114.2640882863813
  0
LINE
  5
1A8
100
AcDbEntity
  8
plate
  6
ByLayer
 62
    4
370
   -1
100
AcDbLine
 10
261.5730064831131
 20
117.644828994038
 11
260.2789129404624
 21
122.4744585764044
  0
LINE
  5
1A9
100
AcDbEntity
  8
plate
  6
ByLayer
 62
    4
370
   -1
100
AcDbLine
 10
259.3730474606069
 20
125.8551992840611
 11
259.2436381063417
 21
126.3381622422977
  0
LINE
  5
1AA
100
AcDbEntity
  8
plate
  6
ByLayer
 62
    4
370
   -1
100
AcDbLine
 10
259.5971930815414
 20
126.950533763118
 11
272.1542286244663
 21
130.3151777656887
  0
LINE
  5
1AB
100
AcDbEntity
  8
plate
  6
ByLayer
 62
    4
370
   -1
100
AcDbLine
 10
184.2129616528233
 20
92.4276151261722
 11
184.342370681888
 21
91.94465160467071
  0
LINE
  5
1AC
100
AcDbEntity
  8
plate
  6
ByLayer
 62
    4
370
   -1
100
AcDbLine
 10
185.2482361617436
 20
88.56391089701411
 11
186.5423297043943
 21
83.7342813146475
  0
LINE
  5
1AD
100
AcDbEntity
  8
plate
  6
ByLayer
 62
    4
370
   -1
100
AcDbLine
 10
187.4481951842499
 20
80.35354060699088
 11
187.5776059707755
 21
79.87057682183267
  0
LINE
  5
1AE
100
AcDbEntity
  8
plate
  6
ByLayer
 62
    4
370
   -1
100
AcDbLine
 10
187.2240517971974
 20
79.25820483819849
 11
174.6670138430516
 21
75.89356181820374
  0
LINE
  5
1AF
100
AcDbEntity
  8
plate
  6
ByLayer
 62
    4
370
   -1
100
AcDbLine
 10
174.0546414406485
 20
76.24711526645542
 11
173.9252323536237
 21
76.73007868756882
  0
LINE
  5
1B0
100
AcDbEntity
  8
plate
  6
ByLayer
 62
    4
370
   -1
100
AcDbLine
 10
173.0193668737681
 20
80.11081939522545
 11
171.7252733311174
 21
84.94044897759188
  0
LINE
  5
1B1
100
AcDbEntity
  8
plate
  6
ByLayer
 62
    4
370
   -1
100
AcDbLine
 10
170.8194078512618
 20
88.32118968524854
 11
170.6899984969967
 21
88.80415264348521
  0
LINE
  5
1B2
100
AcDbEntity
  8
plate
  6
ByLayer
 62
    4
370
   -1
100
AcDbLine
 10
171.0435534721964
 20
89.4165241643055
 11
183.6005890151212
 21
92.78116816687618
  0
LINE
  5
1B3
100
AcDbEntity
  8
plate
  6
ByLayer
 62
    4
370
   -1
100
AcDbLine
 10
202.1209416692
 20
99.1978020526992
 11
202.2503506982647
 21
98.71483853119771
  0
LINE
  5
1B4
100
AcDbEntity
  8
plate
  6
ByLayer
 62
    4
370
   -1
100
AcDbLine
 10
203.1562161781203
 20
95.33409782354111
 11
204.4503097207711
 21
90.50446824117451
  0
LINE
  5
1B5
100
AcDbEntity
  8
plate
  6
ByLayer
 62
    4
370
   -1
100
AcDbLine
 10
205.3561752006266
 20
87.12372753351788
 11
205.4855859871522
 21
86.64076374835967
  0
LINE
  5
1B6
100
AcDbEntity
  8
plate
  6
ByLayer
 62
    4
370
   -1
100
AcDbLine
 10
205.1320318135741
 20
86.0283917647255
 11
192.5749938594284
 21
82.66374874473071
  0
LINE
  5
1B7
100
AcDbEntity
  8
plate
  6
ByLayer
 62
    4
370
   -1
100
AcDbLine
 10
191.9626214570252
 20
83.01730219298243
 11
191.8332123700004
 21
83.5002656140958
  0
LINE
  5
1B8
100
AcDbEntity
  8
plate
  6
ByLayer
 62
    4
370
   -1
100
AcDbLine
 10
190.9273468901448
 20
86.88100632175245
 11
189.6332533474941
 21
91.71063590411889
  0
LINE
  5
1B9
100
AcDbEntity
  8
plate
  6
ByLayer
 62
    4
370
   -1
100
AcDbLine
 10
188.7273878676386
 20
95.09137661177554
 11
188.5979785133734
 21
95.57433957001221
  0
LINE
  5
1BA
100
AcDbEntity
  8
plate
  6
ByLayer
 62
    4
370
   -1
100
AcDbLine
 10
188.9515334885731
 20
96.1867110908325
 11
201.508569031498
 21
99.55135509340319
  0
LINE
  5
1BB
100
AcDbEntity
  8
plate
  6
ByLayer
 62
    4
370
   -1
100
AcDbLine
 10
219.0428367256161
 20
109.6484111203113
 11
219.1722457546809
 21
109.1654475988098
  0
LINE
  5
1BC
100
AcDbEntity
  8
plate
  6
ByLayer
 62
    4
370
   -1
100
AcDbLine
 10
220.0781112345365
 20
105.7847068911532
 11
221.3722047771872
 21
100.9550773087866
  0
LINE
  5
1BD
100
AcDbEntity
  8
plate
  6
ByLayer
 62
    4
370
   -1
100
AcDbLine
 10
222.2780702570427
 20
97.57433660112999
 11
222.4074810435683
 21
97.09137281597178
  0
LINE
  5
1BE
100
AcDbEntity
  8
plate
  6
ByLayer
 62
    4
370
   -1
100
AcDbLine
 10
222.0539268699902
 20
96.4790008323376
 11
209.4968889158445
 21
93.11435781234282
  0
LINE
  5
1BF
100
AcDbEntity
  8
plate
  6
ByLayer
 62
    4
370
   -1
100
AcDbLine
 10
208.8845165134414
 20
93.46791126059453
 11
208.7551074264165
 21
93.9508746817079
  0
LINE
  5
1C0
100
AcDbEntity
  8
plate
  6
ByLayer
 62
    4
370
   -1
100
AcDbLine
 10
207.849241946561
 20
97.33161538936456
 11
206.5551484039102
 21
102.161244971731
  0
LINE
  5
1C1
100
AcDbEntity
  8
plate
  6
ByLayer
 62
    4
370
   -1
100
AcDbLine
 10
205.6492829240547
 20
105.5419856793877
 11
205.5198735697896
 21
106.0249486376243
  0
LINE
  5
1C2
100
AcDbEntity
  8
plate
  6
ByLayer
 62
    4
370
   -1
100
AcDbLine
 10
205.8734285449892
 20
106.6373201584446
 11
218.4304640879141
 21
110.0019641610153
  0
LINE
  5
1C3
100
AcDbEntity
  8
plate
  6
ByLayer
 62
    4
370
   -1
100
AcDbLine
 10
238.4305156356263
 20
110.8985997863771
 11
238.5599246646911
 21
110.4156362648756
  0
LINE
  5
1C4
100
AcDbEntity
  8
plate
  6
ByLayer
 62
    4
370
   -1
100
AcDbLine
 10
239.4657901445467
 20
107.034895557219
 11
240.7598836871974
 21
102.2052659748524
  0
LINE
  5
1C5
100
AcDbEntity
  8
plate
  6
ByLayer
 62
    4
370
   -1
100
AcDbLine
 10
241.665749167053
 20
98.8245252671958
 11
241.7951599535785
 21
98.34156148203759
  0
LINE
  5
1C6
100
AcDbEntity
  8
plate
  6
ByLayer
 62
    4
370
   -1
100
AcDbLine
 10
241.4416057800004
 20
97.72918949840341
 11
228.8845678258547
 21
94.36454647840863
  0
LINE
  5
1C7
100
AcDbEntity
  8
plate
  6
ByLayer
 62
    4
370
   -1
100
AcDbLine
 10
228.2721954234516
 20
94.71809992666034
 11
228.1427863364267
 21
95.20106334777371
  0
LINE
  5
1C8
100
AcDbEntity
  8
plate
  6
ByLayer
 62
    4
370
   -1
100
AcDbLine
 10
227.2369208565712
 20
98.58180405543037
 11
225.9428273139204
 21
103.4114336377968
  0
LINE
  5
1C9
100
AcDbEntity
  8
plate
  6
ByLayer
 62
    4
370
   -1
100
AcDbLine
 10
225.0369618340649
 20
106.7921743454535
 11
224.9075524797998
 21
107.2751373036901
  0
LINE
  5
1CA
100
AcDbEntity
  8
plate
  6
ByLayer
 62
    4
370
   -1
100
AcDbLine
 10
225.2611074549994
 20
107.8875088245104
 11
237.8181429979243
 21
111.2521528270811
  0
LINE
  5
1CB
100
AcDbEntity
  8
plate
  6
ByLayer
 62
    4
370
   -1
100
AcDbLine
 10
259.2959885855929
 20
106.6305680480468
 11
259.4253976146576
 21
106.1476045265453
  0
LINE
  5
1CC
100
AcDbEntity
  8
plate
  6
ByLayer
 62
    4
370
   -1
100
AcDbLine
 10
260.3312630945132
 20
102.7668638188887
 11
261.625356637164
 21
97.93723423652212
  0
LINE
  5
1CD
100
AcDbEntity
  8
plate
  6
ByLayer
 62
    4
370
   -1
100
AcDbLine
 10
262.5312221170195
 20
94.55649352886549
 11
262.6606329035451
 21
94.07352974370728
  0
LINE
  5
1CE
100
AcDbEntity
  8
plate
  6
ByLayer
 62
    4
370
   -1
100
AcDbLine
 10
262.307078729967
 20
93.46115776007311
 11
249.7500407758213
 21
90.09651474007832
  0
LINE
  5
1CF
100
AcDbEntity
  8
plate
  6
ByLayer
 62
    4
370
   -1
100
AcDbLine
 10
249.1376683734182
 20
90.45006818833004
 11
249.0082592863933
 21
90.9330316094434
  0
LINE
  5
1D0
100
AcDbEntity
  8
plate
  6
ByLayer
 62
    4
370
   -1
100
AcDbLine
 10
248.1023938065378
 20
94.31377231710006
 11
246.808300263887
 21
99.1434018994665
  0
LINE
  5
1D1
100
AcDbEntity
  8
plate
  6
ByLayer
 62
    4
370
   -1
100
AcDbLine
 10
245.9024347840315
 20
102.5241426071232
 11
245.7730254297664
 21
103.0071055653598
  0
LINE
  5
1D2
100
AcDbEntity
  8
plate
  6
ByLayer
 62
    4
370
   -1
100
AcDbLine
 10
246.126580404966
 20
103.6194770861801
 11
258.6836159478909
 21
106.9841210887508
  0
LINE
  5
1D3
100
AcDbEntity
  8
plate
  6
ByLayer
 62
    4
370
   -1
100
AcDbLine
 10
277.6974555459021
 20
111.561051864943
 11
277.8268645749669
 21
111.0780883434415
  0
LINE
  5
1D4
100
AcDbEntity
  8
plate
  6
ByLayer
 62
    4
370
   -1
100
AcDbLine
 10
278.7327300548225
 20
107.6973476357849
 11
280.0268235974731
 21
102.8677180534183
  0
LINE
  5
1D5
100
AcDbEntity
  8
plate
  6
ByLayer
 62
    4
370
   -1
100
AcDbLine
 10
280.9326890773287
 20
99.48697734576167
 11
281.0620998638543
 21
99.00401356060347
  0
LINE
  5
1D6
100
AcDbEntity
  8
plate
  6
ByLayer
 62
    4
370
   -1
100
AcDbLine
 10
280.7085456902762
 20
98.39164157696929
 11
268.1515077361305
 21
95.0269985569745
  0
LINE
  5
1D7
100
AcDbEntity
  8
plate
  6
ByLayer
 62
    4
370
   -1
100
AcDbLine
 10
267.5391353337274
 20
95.38055200522622
 11
267.4097262467025
 21
95.86351542633959
  0
LINE
  5
1D8
100
AcDbEntity
  8
plate
  6
ByLayer
 62
    4
370
   -1
100
AcDbLine
 10
266.503860766847
 20
99.24425613399625
 11
265.2097672241962
 21
104.0738857163627
  0
LINE
  5
1D9
100
AcDbEntity
  8
plate
  6
ByLayer
 62
    4
370
   -1
100
AcDbLine
 10
264.3039017443407
 20
107.4546264240193
 11
264.1744923900756
 21
107.937589382256
  0
LINE
  5
1DA
100
AcDbEntity
  8
plate
  6
ByLayer
 62
    4
370
   -1
100
AcDbLine
 10
264.5280473652751
 20
108.5499609030763
 11
277.0850829082001
 21
111.914604905647
  0
LINE
  5
1DB
100
AcDbEntity
  8
plate
  6
ByLayer
 62
    4
370
   -1
100
AcDbLine
 10
189.1434811332972
 20
74.02679153936707
 11
189.2728901623619
 21
73.54382801786558
  0
LINE
  5
1DC
100
AcDbEntity
  8
plate
  6
ByLayer
 62
    4
370
   -1
100
AcDbLine
 10
190.1787556422175
 20
70.16308731020898
 11
191.4728491848683
 21
65.33345772784237
  0
LINE
  5
1DD
100
AcDbEntity
  8
plate
  6
ByLayer
 62
    4
370
   -1
100
AcDbLine
 10
192.3787146647238
 20
61.95271702018574
 11
192.5081254512494
 21
61.46975323502754
  0
LINE
  5
1DE
100
AcDbEntity
  8
plate
  6
ByLayer
 62
    4
370
   -1
100
AcDbLine
 10
192.1545712776713
 20
60.85738125139336
 11
179.5975333235256
 21
57.4927382313986
  0
LINE
  5
1DF
100
AcDbEntity
  8
plate
  6
ByLayer
 62
    4
370
   -1
100
AcDbLine
 10
178.9851609211224
 20
57.84629167965029
 11
178.8557518340976
 21
58.32925510076369
  0
LINE
  5
1E0
100
AcDbEntity
  8
plate
  6
ByLayer
 62
    4
370
   -1
100
AcDbLine
 10
177.949886354242
 20
61.70999580842032
 11
176.6557928115913
 21
66.53962539078675
  0
LINE
  5
1E1
100
AcDbEntity
  8
plate
  6
ByLayer
 62
    4
370
   -1
100
AcDbLine
 10
175.7499273317358
 20
69.92036609844341
 11
175.6205179774706
 21
70.40332905668008
  0
LINE
  5
1E2
100
AcDbEntity
  8
plate
  6
ByLayer
 62
    4
370
   -1
100
AcDbLine
 10
175.9740729526703
 20
71.01570057750037
 11
188.5311084955952
 21
74.38034458007105
  0
LINE
  5
1E3
100
AcDbEntity
  8
plate
  6
ByLayer
 62
    4
370
   -1
100
AcDbLine
 10
207.0514611496739
 20
80.79697846589407
 11
207.1808701787386
 21
80.31401494439258
  0
LINE
  5
1E4
100
AcDbEntity
  8
plate
  6
ByLayer
 62
    4
370
   -1
100
AcDbLine
 10
208.0867356585943
 20
76.93327423673598
 11
209.380829201245
 21
72.10364465436938
  0
LINE
  5
1E5
100
AcDbEntity
  8
plate
  6
ByLayer
 62
    4
370
   -1
100
AcDbLine
 10
210.2866946811005
 20
68.72290394671275
 11
210.4161054676261
 21
68.23994016155454
  0
LINE
  5
1E6
100
AcDbEntity
  8
plate
  6
ByLayer
 62
    4
370
   -1
100
AcDbLine
 10
210.062551294048
 20
67.62756817792037
 11
197.5055133399023
 21
64.26292515792558
  0
LINE
  5
1E7
100
AcDbEntity
  8
plate
  6
ByLayer
 62
    4
370
   -1
100
AcDbLine
 10
196.8931409374991
 20
64.6164786061773
 11
196.7637318504743
 21
65.09944202729066
  0
LINE
  5
1E8
100
AcDbEntity
  8
plate
  6
ByLayer
 62
    4
370
   -1
100
AcDbLine
 10
195.8578663706188
 20
68.48018273494732
 11
194.563772827968
 21
73.30981231731376
  0
LINE
  5
1E9
100
AcDbEntity
  8
plate
  6
ByLayer
 62
    4
370
   -1
100
AcDbLine
 10
193.6579073481125
 20
76.69055302497041
 11
193.5284979938473
 21
77.17351598320708
  0
LINE
  5
1EA
100
AcDbEntity
  8
plate
  6
ByLayer
 62
    4
370
   -1
100
AcDbLine
 10
193.882052969047
 20
77.78588750402737
 11
206.4390885119719
 21
81.15053150659806
  0
LINE
  5
1EB
100
AcDbEntity
  8
plate
  6
ByLayer
 62
    4
370
   -1
100
AcDbLine
 10
223.97335620609
 20
91.24758753350618
 11
224.1027652351548
 21
90.76462401200469
  0
LINE
  5
1EC
100
AcDbEntity
  8
plate
  6
ByLayer
 62
    4
370
   -1
100
AcDbLine
 10
225.0086307150104
 20
87.38388330434809
 11
226.3027242576611
 21
82.55425372198148
  0
LINE
  5
1ED
100
AcDbEntity
  8
plate
  6
ByLayer
 62
    4
370
   -1
100
AcDbLine
 10
227.2085897375167
 20
79.17351301432485
 11
227.3380005240423
 21
78.69054922916665
  0
LINE
  5
1EE
100
AcDbEntity
  8
plate
  6
ByLayer
 62
    4
370
   -1
100
AcDbLine
 10
226.9844463504642
 20
78.07817724553247
 11
214.4274083963184
 21
74.71353422553769
  0
LINE
  5
1EF
100
AcDbEntity
  8
plate
  6
ByLayer
 62
    4
370
   -1
100
AcDbLine
 10
213.8150359939153
 20
75.0670876737894
 11
213.6856269068904
 21
75.55005109490277
  0
LINE
  5
1F0
100
AcDbEntity
  8
plate
  6
ByLayer
 62
    4
370
   -1
100
AcDbLine
 10
212.7797614270349
 20
78.93079180255943
 11
211.4856678843842
 21
83.76042138492586
  0
LINE
  5
1F1
100
AcDbEntity
  8
plate
  6
ByLayer
 62
    4
370
   -1
100
AcDbLine
 10
210.5798024045286
 20
87.14116209258252
 11
210.4503930502635
 21
87.62412505081919
  0
LINE
  5
1F2
100
AcDbEntity
  8
plate
  6
ByLayer
 62
    4
370
   -1
100
AcDbLine
 10
210.8039480254631
 20
88.23649657163948
 11
223.360983568388
 21
91.60114057421016
  0
LINE
  5
1F3
100
AcDbEntity
  8
plate
  6
ByLayer
 62
    4
370
   -1
100
AcDbLine
 10
243.3610351161002
 20
92.49777619957199
 11
243.490444145165
 21
92.0148126780705
  0
LINE
  5
1F4
100
AcDbEntity
  8
plate
  6
ByLayer
 62
    4
370
   -1
100
AcDbLine
 10
244.3963096250206
 20
88.6340719704139
 11
245.6904031676713
 21
83.80444238804729
  0
LINE
  5
1F5
100
AcDbEntity
  8
plate
  6
ByLayer
 62
    4
370
   -1
100
AcDbLine
 10
246.5962686475269
 20
80.42370168039066
 11
246.7256794340525
 21
79.94073789523246
  0
LINE
  5
1F6
100
AcDbEntity
  8
plate
  6
ByLayer
 62
    4
370
   -1
100
AcDbLine
 10
246.3721252604743
 20
79.32836591159828
 11
233.8150873063286
 21
75.9637228916035
  0
LINE
  5
1F7
100
AcDbEntity
  8
plate
  6
ByLayer
 62
    4
370
   -1
100
AcDbLine
 10
233.2027149039255
 20
76.31727633985521
 11
233.0733058169006
 21
76.80023976096858
  0
LINE
  5
1F8
100
AcDbEntity
  8
plate
  6
ByLayer
 62
    4
370
   -1
100
AcDbLine
 10
232.1674403370451
 20
80.18098046862524
 11
230.8733467943943
 21
85.01061005099167
  0
LINE
  5
1F9
100
AcDbEntity
  8
plate
  6
ByLayer
 62
    4
370
   -1
100
AcDbLine
 10
229.9674813145388
 20
88.39135075864833
 11
229.8380719602737
 21
88.874313716885
  0
LINE
  5
1FA
100
AcDbEntity
  8
plate
  6
ByLayer
 62
    4
370
   -1
100
AcDbLine
 10
230.1916269354733
 20
89.48668523770529
 11
242.7486624783982
 21
92.85132924027597
  0
LINE
  5
1FB
100
AcDbEntity
  8
plate
  6
ByLayer
 62
    4
370
   -1
100
AcDbLine
 10
264.2265080660668
 20
88.22974446124168
 11
264.3559170951316
 21
87.74678093974019
  0
LINE
  5
1FC
100
AcDbEntity
  8
plate
  6
ByLayer
 62
    4
370
   -1
100
AcDbLine
 10
265.2617825749872
 20
84.36604023208359
 11
266.5558761176379
 21
79.53641064971698
  0
LINE
  5
1FD
100
AcDbEntity
  8
plate
  6
ByLayer
 62
    4
370
   -1
100
AcDbLine
 10
267.4617415974935
 20
76.15566994206036
 11
267.591152384019
 21
75.67270615690215
  0
LINE
  5
1FE
100
AcDbEntity
  8
plate
  6
ByLayer
 62
    4
370
   -1
100
AcDbLine
 10
267.237598210441
 20
75.06033417326798
 11
254.6805602562952
 21
71.69569115327319
  0
LINE
  5
1FF
100
AcDbEntity
  8
plate
  6
ByLayer
 62
    4
370
   -1
100
AcDbLine
 10
254.0681878538921
 20
72.0492446015249
 11
253.9387787668672
 21
72.53220802263827
  0
LINE
  5
200
100
AcDbEntity
  8
plate
  6
ByLayer
 62
    4
370
   -1
100
AcDbLine
 10
253.0329132870117
 20
75.91294873029493
 11
251.7388197443609
 21
80.74257831266137
  0
LINE
  5
201
100
AcDbEntity
  8
plate
  6
ByLayer
 62
    4
370
   -1
100
AcDbLine
 10
250.8329542645054
 20
84.12331902031802
 11
250.7035449102403
 21
84.60628197855469
  0
LINE
  5
202
100
AcDbEntity
  8
plate
  6
ByLayer
 62
    4
370
   -1
100
AcDbLine
 10
251.0570998854399
 20
85.21865349937498
 11
263.6141354283648
 21
88.58329750194567
  0
LINE
  5
203
100
AcDbEntity
  8
plate
  6
ByLayer
 62
    4
370
   -1
100
AcDbLine
 10
282.627975026376
 20
93.16022827813786
 11
282.7573840554408
 21
92.67726475663638
  0
LINE
  5
204
100
AcDbEntity
  8
plate
  6
ByLayer
 62
    4
370
   -1
100
AcDbLine
 10
283.6632495352964
 20
89.29652404897978
 11
284.9573430779471
 21
84.46689446661317
  0
LINE
  5
205
100
AcDbEntity
  8
plate
  6
ByLayer
 62
    4
370
   -1
100
AcDbLine
 10
285.8632085578026
 20
81.08615375895654
 11
285.9926193443282
 21
80.60318997379834
  0
LINE
  5
206
100
AcDbEntity
  8
plate
  6
ByLayer
 62
    4
370
   -1
100
AcDbLine
 10
285.6390651707501
 20
79.99081799016416
 11
273.0820272166044
 21
76.62617497016937
  0
LINE
  5
207
100
AcDbEntity
  8
plate
  6
ByLayer
 62
    4
370
   -1
100
AcDbLine
 10
272.4696548142012
 20
76.97972841842109
 11
272.3402457271764
 21
77.46269183953446
  0
LINE
  5
208
100
AcDbEntity
  8
plate
  6
ByLayer
 62
    4
370
   -1
100
AcDbLine
 10
271.4343802473209
 20
80.84343254719111
 11
270.1402867046701
 21
85.67306212955755
  0
LINE
  5
209
100
AcDbEntity
  8
plate
  6
ByLayer
 62
    4
370
   -1
100
AcDbLine
 10
269.2344212248146
 20
89.05380283721421
 11
269.1050118705494
 21
89.53676579545088
  0
LINE
  5
20A
100
AcDbEntity
  8
plate
  6
ByLayer
 62
    4
370
   -1
100
AcDbLine
 10
269.4585668457491
 20
90.14913731627117
 11
282.015602388674
 21
93.51378131884185
  0
LINE
  5
20B
100
AcDbEntity
  8
plate
  6
ByLayer
 62
    4
370
   -1
100
AcDbLine
 10
215.8998648157832
 20
62.21522612362718
 11
216.0292738448479
 21
61.73226260212569
  0
LINE
  5
20C
100
AcDbEntity
  8
plate
  6
ByLayer
 62
    4
370
   -1
100
AcDbLine
 10
216.9351393247035
 20
58.35152189446909
 11
218.2292328673543
 21
53.52189231210248
  0
LINE
  5
20D
100
AcDbEntity
  8
plate
  6
ByLayer
 62
    4
370
   -1
100
AcDbLine
 10
219.1350983472098
 20
50.14115160444585
 11
219.2645091337354
 21
49.65818781928765
  0
LINE
  5
20E
100
AcDbEntity
  8
plate
  6
ByLayer
 62
    4
370
   -1
100
AcDbLine
 10
218.9109549601573
 20
49.04581583565347
 11
206.3539170060116
 21
45.68117281565871
  0
LINE
  5
20F
100
AcDbEntity
  8
plate
  6
ByLayer
 62
    4
370
   -1
100
AcDbLine
 10
205.7415446036084
 20
46.0347262639104
 11
205.6121355165836
 21
46.5176896850238
  0
LINE
  5
210
100
AcDbEntity
  8
plate
  6
ByLayer
 62
    4
370
   -1
100
AcDbLine
 10
204.706270036728
 20
49.89843039268042
 11
203.4121764940773
 21
54.72805997504686
  0
LINE
  5
211
100
AcDbEntity
  8
plate
  6
ByLayer
 62
    4
370
   -1
100
AcDbLine
 10
202.5063110142218
 20
58.10880068270352
 11
202.3769016599566
 21
58.59176364094019
  0
LINE
  5
212
100
AcDbEntity
  8
plate
  6
ByLayer
 62
    4
370
   -1
100
AcDbLine
 10
202.7304566351563
 20
59.20413516176048
 11
215.2874921780812
 21
62.56877916433116
  0
LINE
  5
213
100
AcDbEntity
  8
plate
  6
ByLayer
 62
    4
370
   -1
100
AcDbLine
 10
194.9802911230505
 20
55.7095345530394
 11
195.2111449536447
 21
55.26601795943262
  0
LINE
  5
214
100
AcDbEntity
  8
plate
  6
ByLayer
 62
    4
370
   -1
100
AcDbLine
 10
196.8271231370543
 20
52.16140614621911
 11
199.1356633990678
 21
47.7262464130569
  0
LINE
  5
215
100
AcDbEntity
  8
plate
  6
ByLayer
 62
    4
370
   -1
100
AcDbLine
 10
200.7516415824773
 20
44.62163459984335
 11
200.9824971859449
 21
44.17811812913327
  0
LINE
  5
216
100
AcDbEntity
  8
plate
  6
ByLayer
 62
    4
370
   -1
100
AcDbLine
 10
200.7698346115545
 20
43.50374832743083
 11
189.2384182486727
 21
37.50154360752017
  0
LINE
  5
217
100
AcDbEntity
  8
plate
  6
ByLayer
 62
    4
370
   -1
100
AcDbLine
 10
188.5640481950809
 20
37.71420538315055
 11
188.3331943296234
 21
38.15772186620556
  0
LINE
  5
218
100
AcDbEntity
  8
plate
  6
ByLayer
 62
    4
370
   -1
100
AcDbLine
 10
186.7172161462139
 20
41.26233367941911
 11
184.4086758842004
 21
45.69749341258115
  0
LINE
  5
219
100
AcDbEntity
  8
plate
  6
ByLayer
 62
    4
370
   -1
100
AcDbLine
 10
182.7926977007909
 20
48.80210522579473
 11
182.5618436745895
 21
49.24562119911094
  0
LINE
  5
21A
100
AcDbEntity
  8
plate
  6
ByLayer
 62
    4
370
   -1
100
AcDbLine
 10
182.7745071317584
 20
49.91999072243263
 11
194.3059209279265
 21
55.92219587986101
  0
LINE
  5
21B
100
AcDbEntity
  8
plate
  6
ByLayer
 62
    4
370
   -1
100
AcDbLine
 10
176.0162584624025
 20
44.75242275684684
 11
176.3376440550128
 21
44.36939304420418
  0
LINE
  5
21C
100
AcDbEntity
  8
plate
  6
ByLayer
 62
    4
370
   -1
100
AcDbLine
 10
178.5873436001791
 20
41.68818959118555
 11
181.8012000932737
 21
37.85789894401598
  0
LINE
  5
21D
100
AcDbEntity
  8
plate
  6
ByLayer
 62
    4
370
   -1
100
AcDbLine
 10
184.0508996384399
 20
35.1766954909973
 11
184.3722869352873
 21
34.79366628209984
  0
LINE
  5
21E
100
AcDbEntity
  8
plate
  6
ByLayer
 62
    4
370
   -1
100
AcDbLine
 10
184.3106428646568
 20
34.08925162541627
 11
174.3518861587804
 21
25.73322447688346
  0
LINE
  5
21F
100
AcDbEntity
  8
plate
  6
ByLayer
 62
    4
370
   -1
100
AcDbLine
 10
173.647471429082
 20
25.79486771316715
 11
173.3260858263654
 21
26.17789731033253
  0
LINE
  5
220
100
AcDbEntity
  8
plate
  6
ByLayer
 62
    4
370
   -1
100
AcDbLine
 10
171.0763862811991
 20
28.85910076335121
 11
167.8625297881046
 21
32.68939141052061
  0
LINE
  5
221
100
AcDbEntity
  8
plate
  6
ByLayer
 62
    4
370
   -1
100
AcDbLine
 10
165.6128302429383
 20
35.37059486353933
 11
165.2914445936288
 21
35.75362392825627
  0
LINE
  5
222
100
AcDbEntity
  8
plate
  6
ByLayer
 62
    4
370
   -1
100
AcDbLine
 10
165.3530895863671
 20
36.45803850424861
 11
175.3118436916781
 21
44.81406552432613
  0
LINE
  5
223
100
AcDbEntity
  8
plate
  6
ByLayer
 62
    4
370
   -1
100
AcDbLine
 10
159.739047578299
 20
30.07959073908708
 11
160.1357093519199
 21
29.77518985661057
  0
LINE
  5
224
100
AcDbEntity
  8
plate
  6
ByLayer
 62
    4
370
   -1
100
AcDbLine
 10
162.9123411732213
 20
27.64438819316618
 11
166.8789580607945
 21
24.60038581681692
  0
LINE
  5
225
100
AcDbEntity
  8
plate
  6
ByLayer
 62
    4
370
   -1
100
AcDbLine
 10
169.6555898820958
 20
22.46958415337247
 11
170.0522532105502
 21
22.16518413152139
  0
LINE
  5
226
100
AcDbEntity
  8
plate
  6
ByLayer
 62
    4
370
   -1
100
AcDbLine
 10
170.1445140095673
 20
21.46412211931472
 11
162.2301068897434
 21
11.15091773001187
  0
LINE
  5
227
100
AcDbEntity
  8
plate
  6
ByLayer
 62
    4
370
   -1
100
AcDbLine
 10
161.5290449868151
 20
11.05865610061892
 11
161.1323832283181
 21
11.3630568681676
  0
LINE
  5
228
100
AcDbEntity
  8
plate
  6
ByLayer
 62
    4
370
   -1
100
AcDbLine
 10
158.3557514070168
 20
13.49385853161206
 11
154.3891345194436
 21
16.53786090796116
  0
LINE
  5
229
100
AcDbEntity
  8
plate
  6
ByLayer
 62
    4
370
   -1
100
AcDbLine
 10
151.6125026981424
 20
18.66866257140565
 11
151.215841009385
 21
18.97306280904055
  0
LINE
  5
22A
100
AcDbEntity
  8
plate
  6
ByLayer
 62
    4
370
   -1
100
AcDbLine
 10
151.1235811280862
 20
19.67412494202371
 11
159.0379857367721
 21
29.98732864312092
  0
LINE
  5
22B
100
AcDbEntity
  8
plate
  6
ByLayer
 62
    4
370
   -1
100
AcDbLine
 10
77.50088261429153
 20
62.21522612362777
 11
77.37147358522677
 21
61.73226260212628
  0
LINE
  5
22C
100
AcDbEntity
  8
plate
  6
ByLayer
 62
    4
370
   -1
100
AcDbLine
 10
76.46560810537116
 20
58.35152189446966
 11
75.1715145627204
 21
53.52189231210307
  0
LINE
  5
22D
100
AcDbEntity
  8
plate
  6
ByLayer
 62
    4
370
   -1
100
AcDbLine
 10
74.26564908286491
 20
50.14115160444644
 11
74.13623829633934
 21
49.65818781928824
  0
LINE
  5
22E
100
AcDbEntity
  8
plate
  6
ByLayer
 62
    4
370
   -1
100
AcDbLine
 10
74.4897924699174
 20
49.04581583565406
 11
87.04683042406313
 21
45.6811728156593
  0
LINE
  5
22F
100
AcDbEntity
  8
plate
  6
ByLayer
 62
    4
370
   -1
100
AcDbLine
 10
87.65920282646627
 20
46.03472626391099
 11
87.78861191349111
 21
46.51768968502439
  0
LINE
  5
230
100
AcDbEntity
  8
plate
  6
ByLayer
 62
    4
370
   -1
100
AcDbLine
 10
88.69447739334666
 20
49.89843039268101
 11
89.98857093599742
 21
54.72805997504745
  0
LINE
  5
231
100
AcDbEntity
  8
plate
  6
ByLayer
 62
    4
370
   -1
100
AcDbLine
 10
90.89443641585294
 20
58.10880068270411
 11
91.02384577011807
 21
58.59176364094078
  0
LINE
  5
232
100
AcDbEntity
  8
plate
  6
ByLayer
 62
    4
370
   -1
100
AcDbLine
 10
90.67029079491843
 20
59.20413516176107
 11
78.11325525199354
 21
62.56877916433175
  0
LINE
  5
233
100
AcDbEntity
  8
plate
  6
ByLayer
 62
    4
370
   -1
100
AcDbLine
 10
98.42045630702421
 20
55.70953455303999
 11
98.18960247642994
 21
55.26601795943321
  0
LINE
  5
234
100
AcDbEntity
  8
plate
  6
ByLayer
 62
    4
370
   -1
100
AcDbLine
 10
96.5736242930204
 20
52.1614061462197
 11
94.26508403100686
 21
47.72624641305749
  0
LINE
  5
235
100
AcDbEntity
  8
plate
  6
ByLayer
 62
    4
370
   -1
100
AcDbLine
 10
92.64910584759738
 20
44.62163459984394
 11
92.41825024412981
 21
44.17811812913386
  0
LINE
  5
236
100
AcDbEntity
  8
plate
  6
ByLayer
 62
    4
370
   -1
100
AcDbLine
 10
92.63091281852022
 20
43.50374832743142
 11
104.162329181402
 21
37.50154360752076
  0
LINE
  5
237
100
AcDbEntity
  8
plate
  6
ByLayer
 62
    4
370
   -1
100
AcDbLine
 10
104.8366992349938
 20
37.71420538315114
 11
105.0675531004513
 21
38.15772186620615
  0
LINE
  5
238
100
AcDbEntity
  8
plate
  6
ByLayer
 62
    4
370
   -1
100
AcDbLine
 10
106.6835312838608
 20
41.2623336794197
 11
108.9920715458743
 21
45.69749341258174
  0
LINE
  5
239
100
AcDbEntity
  8
plate
  6
ByLayer
 62
    4
370
   -1
100
AcDbLine
 10
110.6080497292838
 20
48.80210522579532
 11
110.8389037554852
 21
49.24562119911153
  0
LINE
  5
23A
100
AcDbEntity
  8
plate
  6
ByLayer
 62
    4
370
   -1
100
AcDbLine
 10
110.6262402983162
 20
49.91999072243322
 11
99.09482650214824
 21
55.9221958798616
  0
LINE
  5
23B
100
AcDbEntity
  8
plate
  6
ByLayer
 62
    4
370
   -1
100
AcDbLine
 10
117.3844889676722
 20
44.75242275684743
 11
117.0631033750619
 21
44.36939304420477
  0
LINE
  5
23C
100
AcDbEntity
  8
plate
  6
ByLayer
 62
    4
370
   -1
100
AcDbLine
 10
114.8134038298956
 20
41.68818959118614
 11
111.599547336801
 21
37.85789894401657
  0
LINE
  5
23D
100
AcDbEntity
  8
plate
  6
ByLayer
 62
    4
370
   -1
100
AcDbLine
 10
109.3498477916347
 20
35.17669549099789
 11
109.0284604947873
 21
34.79366628210043
  0
LINE
  5
23E
100
AcDbEntity
  8
plate
  6
ByLayer
 62
    4
370
   -1
100
AcDbLine
 10
109.0901045654179
 20
34.08925162541686
 11
119.0488612712943
 21
25.73322447688405
  0
LINE
  5
23F
100
AcDbEntity
  8
plate
  6
ByLayer
 62
    4
370
   -1
100
AcDbLine
 10
119.7532760009927
 20
25.79486771316774
 11
120.0746616037093
 21
26.17789731033312
  0
LINE
  5
240
100
AcDbEntity
  8
plate
  6
ByLayer
 62
    4
370
   -1
100
AcDbLine
 10
122.3243611488755
 20
28.8591007633518
 11
125.5382176419701
 21
32.6893914105212
  0
LINE
  5
241
100
AcDbEntity
  8
plate
  6
ByLayer
 62
    4
370
   -1
100
AcDbLine
 10
127.7879171871363
 20
35.37059486353992
 11
128.1093028364459
 21
35.75362392825686
  0
LINE
  5
242
100
AcDbEntity
  8
plate
  6
ByLayer
 62
    4
370
   -1
100
AcDbLine
 10
128.0476578437076
 20
36.4580385042492
 11
118.0889037383966
 21
44.81406552432672
  0
LINE
  5
243
100
AcDbEntity
  8
plate
  6
ByLayer
 62
    4
370
   -1
100
AcDbLine
 10
133.6616998517757
 20
30.07959073908767
 11
133.2650380781548
 21
29.77518985661116
  0
LINE
  5
244
100
AcDbEntity
  8
plate
  6
ByLayer
 62
    4
370
   -1
100
AcDbLine
 10
130.4884062568534
 20
27.64438819316677
 11
126.5217893692802
 21
24.60038581681751
  0
LINE
  5
245
100
AcDbEntity
  8
plate
  6
ByLayer
 62
    4
370
   -1
100
AcDbLine
 10
123.7451575479789
 20
22.46958415337306
 11
123.3484942195245
 21
22.16518413152198
  0
LINE
  5
246
100
AcDbEntity
  8
plate
  6
ByLayer
 62
    4
370
   -1
100
AcDbLine
 10
123.2562334205074
 20
21.4641221193153
 11
131.1706405403313
 21
11.15091773001247
  0
LINE
  5
247
100
AcDbEntity
  8
plate
  6
ByLayer
 62
    4
370
   -1
100
AcDbLine
 10
131.8717024432596
 20
11.05865610061951
 11
132.2683642017566
 21
11.36305686816819
  0
LINE
  5
248
100
AcDbEntity
  8
plate
  6
ByLayer
 62
    4
370
   -1
100
AcDbLine
 10
135.0449960230579
 20
13.49385853161264
 11
139.011612910631
 21
16.53786090796174
  0
LINE
  5
249
100
AcDbEntity
  8
plate
  6
ByLayer
 62
    4
370
   -1
100
AcDbLine
 10
141.7882447319323
 20
18.66866257140624
 11
142.1849064206897
 21
18.97306280904114
  0
LINE
  5
24A
100
AcDbEntity
  8
plate
  6
ByLayer
 62
    4
370
   -1
100
AcDbLine
 10
142.2771663019885
 20
19.6741249420243
 11
134.3627616933026
 21
29.98732864312151
  0
LINE
  5
24B
100
AcDbEntity
  8
plate
  6
ByLayer
 62
  256
370
   -1
100
AcDbLine
 10
36.75710050855295
 20
136.0466730612793
 11
35.8512350286974
 21
132.6659323536227
  0
LINE
  5
24C
100
AcDbEntity
  8
plate
  6
ByLayer
 62
  256
370
   -1
100
AcDbLine
 10
22.32827219807118
 20
136.2893942730448
 11
23.23413767792673
 21
139.6701349807014
  0
LINE
  5
24D
100
AcDbEntity
  8
plate
  6
ByLayer
 62
  256
370
   -1
100
AcDbLine
 10
24.52823122057745
 20
144.499764563068
 11
25.43409670043306
 21
147.8805052707246
  0
ARC
  5
24E
100
AcDbEntity
  8
plate
  6
ByLayer
 62
  256
370
   -1
100
AcDbCircle
 10
1.171090903353714
 20
-0.6260162601626016
 40
1
100
AcDbArc
 50
165.0000199644419
 51
165.0000199644419
  0
LINE
  5
24F
100
AcDbEntity
  8
plate
  6
ByLayer
 62
  256
370
   -1
100
AcDbLine
 10
38.73291391012472
 20
145.3523778303594
 11
39.08646888532436
 21
144.7400063095391
  0
LINE
  5
250
100
AcDbEntity
  8
plate
  6
ByLayer
 62
  256
370
   -1
100
AcDbLine
 10
25.56350572949782
 20
148.3634687922261
 11
26.17587836719983
 21
148.7170218329301
  0
LINE
  5
251
100
AcDbEntity
  8
plate
  6
ByLayer
 62
  256
370
   -1
100
AcDbLine
 10
22.19886141154558
 20
135.8064304878866
 11
22.5524155851237
 21
135.1940585042524
  0
LINE
  5
252
100
AcDbEntity
  8
plate
  6
ByLayer
 62
  256
370
   -1
100
AcDbLine
 10
35.1094535392694
 20
131.8294154842576
 11
35.72182594167256
 21
132.1829689325093
  0
LINE
  5
253
100
AcDbEntity
  8
plate
  6
ByLayer
 62
  256
370
   -1
100
AcDbLine
 10
38.05119405120371
 20
140.8763026436458
 11
39.08646888532436
 21
144.7400063095391
  0
LINE
  5
254
100
AcDbEntity
  8
plate
  6
ByLayer
 62
  256
370
   -1
100
AcDbLine
 10
42.92969818088662
 20
139.5692807461718
 11
43.83556366074222
 21
142.9500214538284
  0
LINE
  5
255
100
AcDbEntity
  8
plate
  6
ByLayer
 62
  256
370
   -1
100
AcDbLine
 10
43.96497268980698
 20
143.4329849753299
 11
44.57734532750899
 21
143.7865380160339
  0
LINE
  5
256
100
AcDbEntity
  8
plate
  6
ByLayer
 62
  256
370
   -1
100
AcDbLine
 10
41.63560463823589
 20
134.7396511638052
 11
40.72973915838035
 21
131.3589104561486
  0
LINE
  5
257
100
AcDbEntity
  8
plate
  6
ByLayer
 62
  256
370
   -1
100
AcDbLine
 10
40.60032837185476
 20
130.8759466709904
 11
40.95388254543286
 21
130.2635746873562
  0
LINE
  5
258
100
AcDbEntity
  8
plate
  6
ByLayer
 62
  256
370
   -1
100
AcDbLine
 10
57.1343808704339
 20
140.4218940134632
 11
57.48793584563353
 21
139.8095224926429
  0
LINE
  5
259
100
AcDbEntity
  8
plate
  6
ByLayer
 62
  256
370
   -1
100
AcDbLine
 10
57.35852649136839
 20
139.3265595344062
 11
56.45266101151287
 21
135.9458188267496
  0
LINE
  5
25A
100
AcDbEntity
  8
plate
  6
ByLayer
 62
  256
370
   -1
100
AcDbLine
 10
55.15856746886213
 20
131.1161892443832
 11
54.25270198900658
 21
127.7354485367265
  0
LINE
  5
25B
100
AcDbEntity
  8
plate
  6
ByLayer
 62
  256
370
   -1
100
AcDbLine
 10
54.12329290198174
 20
127.2524851156131
 11
53.51092049957857
 21
126.8989316673614
  0
LINE
  5
25C
100
AcDbEntity
  8
plate
  6
ByLayer
 62
  256
370
   -1
100
AcDbLine
 10
64.83044563977359
 20
147.7010167136602
 11
65.4428182774756
 21
148.0545697543642
  0
LINE
  5
25D
100
AcDbEntity
  8
plate
  6
ByLayer
 62
  256
370
   -1
100
AcDbLine
 10
64.70103661070883
 20
147.2180531921587
 11
63.79517113085322
 21
143.8373124845021
  0
LINE
  5
25E
100
AcDbEntity
  8
plate
  6
ByLayer
 62
  256
370
   -1
100
AcDbLine
 10
62.50107758820249
 20
139.0076829021355
 11
61.59521210834694
 21
135.6269421944789
  0
LINE
  5
25F
100
AcDbEntity
  8
plate
  6
ByLayer
 62
  256
370
   -1
100
AcDbLine
 10
77.99985382040049
 20
144.6899257517935
 11
78.35340879560013
 21
144.0775542309732
  0
LINE
  5
260
100
AcDbEntity
  8
plate
  6
ByLayer
 62
  256
370
   -1
100
AcDbLine
 10
78.223999441335
 20
143.5945912727366
 11
77.31813396147948
 21
140.2138505650799
  0
LINE
  5
261
100
AcDbEntity
  8
plate
  6
ByLayer
 62
  256
370
   -1
100
AcDbLine
 10
76.02404041882872
 20
135.3842209827135
 11
75.11817493897317
 21
132.0034802750568
  0
LINE
  5
262
100
AcDbEntity
  8
plate
  6
ByLayer
 62
  256
370
   -1
100
AcDbLine
 10
74.98876585194833
 20
131.5205168539434
 11
74.37639344954516
 21
131.1669634056917
  0
LINE
  5
263
100
AcDbEntity
  8
plate
  6
ByLayer
 62
  256
370
   -1
100
AcDbLine
 10
61.81935549539946
 20
134.5316064256865
 11
61.46580132182135
 21
135.1439784093207
  0
LINE
  5
264
100
AcDbEntity
  8
plate
  6
ByLayer
 62
  256
370
   -1
100
AcDbLine
 10
84.21812454978378
 20
146.4508280475944
 11
84.83049718748579
 21
146.8043810882984
  0
LINE
  5
265
100
AcDbEntity
  8
plate
  6
ByLayer
 62
  256
370
   -1
100
AcDbLine
 10
84.08871552071902
 20
145.9678645260929
 11
83.18285004086341
 21
142.5871238184363
  0
LINE
  5
266
100
AcDbEntity
  8
plate
  6
ByLayer
 62
  256
370
   -1
100
AcDbLine
 10
81.88875649821269
 20
137.7574942360697
 11
80.98289101835715
 21
134.3767535284131
  0
LINE
  5
267
100
AcDbEntity
  8
plate
  6
ByLayer
 62
  256
370
   -1
100
AcDbLine
 10
80.85348023183155
 20
133.8937897432549
 11
81.20703440540966
 21
133.2814177596207
  0
LINE
  5
268
100
AcDbEntity
  8
plate
  6
ByLayer
 62
  256
370
   -1
100
AcDbLine
 10
94.50585384898338
 20
130.753291608991
 11
95.41171932883893
 21
134.1340323166476
  0
LINE
  5
269
100
AcDbEntity
  8
plate
  6
ByLayer
 62
  256
370
   -1
100
AcDbLine
 10
94.37644476195854
 20
130.2703281878776
 11
93.76407235955537
 21
129.9167747396259
  0
LINE
  5
26A
100
AcDbEntity
  8
plate
  6
ByLayer
 62
  256
370
   -1
100
AcDbLine
 10
96.70581287148967
 20
138.9636618990141
 11
97.61167835134519
 21
142.3444026066707
  0
LINE
  5
26B
100
AcDbEntity
  8
plate
  6
ByLayer
 62
  256
370
   -1
100
AcDbLine
 10
97.74108770561033
 20
142.8273655649074
 11
97.3875327304107
 21
143.4397370857277
  0
LINE
  5
26C
100
AcDbEntity
  8
plate
  6
ByLayer
 62
  256
370
   -1
100
AcDbLine
 10
101.7523922439019
 20
136.3537720206863
 11
101.1400196061999
 21
136.0002189799823
  0
LINE
  5
26D
100
AcDbEntity
  8
plate
  6
ByLayer
 62
  256
370
   -1
100
AcDbLine
 10
101.0106105771352
 20
135.5172554584808
 11
100.1047450972795
 21
132.1365147508242
  0
LINE
  5
26E
100
AcDbEntity
  8
plate
  6
ByLayer
 62
  256
370
   -1
100
AcDbLine
 10
114.3094277868268
 20
132.9891280181156
 11
114.6629827620265
 21
132.3767564972953
  0
LINE
  5
26F
100
AcDbEntity
  8
plate
  6
ByLayer
 62
  256
370
   -1
100
AcDbLine
 10
114.5335734077613
 20
131.8937935390586
 11
113.6277079279058
 21
128.513052831402
  0
LINE
  5
270
100
AcDbEntity
  8
plate
  6
ByLayer
 62
  256
370
   -1
100
AcDbLine
 10
98.81065155462882
 20
127.3068851684576
 11
97.90478607477328
 21
123.926144460801
  0
LINE
  5
271
100
AcDbEntity
  8
plate
  6
ByLayer
 62
  256
370
   -1
100
AcDbLine
 10
97.77537528824769
 20
123.4431806756428
 11
98.12892946182579
 21
122.8308086920086
  0
LINE
  5
272
100
AcDbEntity
  8
plate
  6
ByLayer
 62
  256
370
   -1
100
AcDbLine
 10
110.6859674159715
 20
119.4661656720138
 11
111.2983398183747
 21
119.8197191202655
  0
LINE
  5
273
100
AcDbEntity
  8
plate
  6
ByLayer
 62
  256
370
   -1
100
AcDbLine
 10
111.4277489053995
 20
120.3026825413789
 11
112.3336143852551
 21
123.6834232490355
  0
LINE
  5
274
100
AcDbEntity
  8
plate
  6
ByLayer
 62
  256
370
   -1
100
AcDbLine
 10
119.0479996225766
 20
129.2300320534553
 11
119.6603722602786
 21
129.5835850941593
  0
LINE
  5
275
100
AcDbEntity
  8
plate
  6
ByLayer
 62
  256
370
   -1
100
AcDbLine
 10
132.2174078032036
 20
126.2189410915886
 11
132.5709627784032
 21
125.6065695707683
  0
LINE
  5
276
100
AcDbEntity
  8
plate
  6
ByLayer
 62
  256
370
   -1
100
AcDbLine
 10
132.441553424138
 20
125.1236066125316
 11
131.5356879442825
 21
121.742865904875
  0
LINE
  5
277
100
AcDbEntity
  8
plate
  6
ByLayer
 62
  256
370
   -1
100
AcDbLine
 10
130.2415944016318
 20
116.9132363225085
 11
129.3357289217763
 21
113.5324956148519
  0
LINE
  5
278
100
AcDbEntity
  8
plate
  6
ByLayer
 62
  256
370
   -1
100
AcDbLine
 10
129.2063198347514
 20
113.0495321937385
 11
128.5939474323482
 21
112.6959787454868
  0
LINE
  5
279
100
AcDbEntity
  8
plate
  6
ByLayer
 62
  256
370
   -1
100
AcDbLine
 10
116.0369094782025
 20
116.0606217654816
 11
115.6833553046244
 21
116.6729937491158
  0
LINE
  5
27A
100
AcDbEntity
  8
plate
  6
ByLayer
 62
  256
370
   -1
100
AcDbLine
 10
115.81276609115
 20
117.155957534274
 11
116.7186315710055
 21
120.5366982419306
  0
LINE
  5
27B
100
AcDbEntity
  8
plate
  6
ByLayer
 62
  256
370
   -1
100
AcDbLine
 10
118.0127251136563
 20
125.3663278242972
 11
118.9185905935119
 21
128.7470685319538
  0
LINE
  5
27C
100
AcDbEntity
  8
plate
  6
ByLayer
 62
  256
370
   -1
100
AcDbLine
 10
21.24651880560822
 20
130.3151777656893
 11
20.63414616790621
 21
129.9616247249853
  0
LINE
  5
27D
100
AcDbEntity
  8
plate
  6
ByLayer
 62
  256
370
   -1
100
AcDbLine
 10
20.50473713884145
 20
129.4786612034838
 11
19.59887165898584
 21
126.0979204958272
  0
LINE
  5
27E
100
AcDbEntity
  8
plate
  6
ByLayer
 62
  256
370
   -1
100
AcDbLine
 10
18.30477811633511
 20
121.2682909134606
 11
17.39891263647957
 21
117.887550205804
  0
LINE
  5
27F
100
AcDbEntity
  8
plate
  6
ByLayer
 62
  256
370
   -1
100
AcDbLine
 10
17.26950184995397
 20
117.4045864206458
 11
17.62305602353209
 21
116.7922144370116
  0
LINE
  5
280
100
AcDbEntity
  8
plate
  6
ByLayer
 62
  256
370
   -1
100
AcDbLine
 10
30.18009397767779
 20
113.4275714170168
 11
30.79246638008095
 21
113.7811248652685
  0
LINE
  5
281
100
AcDbEntity
  8
plate
  6
ByLayer
 62
  256
370
   -1
100
AcDbLine
 10
30.92187546710579
 20
114.2640882863819
 11
31.82774094696134
 21
117.6448289940385
  0
LINE
  5
282
100
AcDbEntity
  8
plate
  6
ByLayer
 62
  256
370
   -1
100
AcDbLine
 10
33.1218344896121
 20
122.474458576405
 11
34.02769996946762
 21
125.8551992840616
  0
LINE
  5
283
100
AcDbEntity
  8
plate
  6
ByLayer
 62
  256
370
   -1
100
AcDbLine
 10
34.15710932373275
 20
126.3381622422983
 11
33.80355434853311
 21
126.9505337631186
  0
LINE
  5
284
100
AcDbEntity
  8
plate
  6
ByLayer
 62
  256
370
   -1
100
AcDbLine
 10
39.03561312821537
 20
125.0311409080891
 11
39.64798576591738
 21
125.3846939487931
  0
LINE
  5
285
100
AcDbEntity
  8
plate
  6
ByLayer
 62
  256
370
   -1
100
AcDbLine
 10
38.90620409915061
 20
124.5481773865876
 11
38.00033861929501
 21
121.167436678931
  0
LINE
  5
286
100
AcDbEntity
  8
plate
  6
ByLayer
 62
  256
370
   -1
100
AcDbLine
 10
36.70624507664428
 20
116.3378070965644
 11
35.80037959678874
 21
112.9570663889078
  0
LINE
  5
287
100
AcDbEntity
  8
plate
  6
ByLayer
 62
  256
370
   -1
100
AcDbLine
 10
35.67096881026315
 20
112.4741026037496
 11
36.02452298384125
 21
111.8617306201154
  0
LINE
  5
288
100
AcDbEntity
  8
plate
  6
ByLayer
 62
  256
370
   -1
100
AcDbLine
 10
48.58156093798696
 20
108.4970876001206
 11
49.19393334039013
 21
108.8506410483723
  0
LINE
  5
289
100
AcDbEntity
  8
plate
  6
ByLayer
 62
  256
370
   -1
100
AcDbLine
 10
49.32334242741497
 20
109.3336044694857
 11
50.22920790727052
 21
112.7143451771424
  0
LINE
  5
28A
100
AcDbEntity
  8
plate
  6
ByLayer
 62
  256
370
   -1
100
AcDbLine
 10
51.52330144992126
 20
117.5439747595088
 11
52.42916692977678
 21
120.9247154671655
  0
LINE
  5
28B
100
AcDbEntity
  8
plate
  6
ByLayer
 62
  256
370
   -1
100
AcDbLine
 10
52.55857628404192
 20
121.4076784254021
 11
52.20502130884229
 21
122.0200499462224
  0
LINE
  5
28C
100
AcDbEntity
  8
plate
  6
ByLayer
 62
  256
370
   -1
100
AcDbLine
 10
59.90108607818198
 20
129.2991726464194
 11
60.51345871588398
 21
129.6527256871234
  0
LINE
  5
28D
100
AcDbEntity
  8
plate
  6
ByLayer
 62
  256
370
   -1
100
AcDbLine
 10
73.07049425880888
 20
126.2880816845527
 11
73.42404923400852
 21
125.6757101637324
  0
LINE
  5
28E
100
AcDbEntity
  8
plate
  6
ByLayer
 62
  256
370
   -1
100
AcDbLine
 10
73.29463987974339
 20
125.1927472054958
 11
72.38877439988786
 21
121.8120064978391
  0
LINE
  5
28F
100
AcDbEntity
  8
plate
  6
ByLayer
 62
  256
370
   -1
100
AcDbLine
 10
71.09468085723711
 20
116.9823769154727
 11
70.18881537738156
 21
113.601636207816
  0
LINE
  5
290
100
AcDbEntity
  8
plate
  6
ByLayer
 62
  256
370
   -1
100
AcDbLine
 10
70.05940629035672
 20
113.1186727867026
 11
69.44703388795355
 21
112.7651193384509
  0
LINE
  5
291
100
AcDbEntity
  8
plate
  6
ByLayer
 62
  256
370
   -1
100
AcDbLine
 10
56.88999593380785
 20
116.1297623584457
 11
56.53644176022974
 21
116.7421343420799
  0
LINE
  5
292
100
AcDbEntity
  8
plate
  6
ByLayer
 62
  256
370
   -1
100
AcDbLine
 10
56.66585254675533
 20
117.2250981272381
 11
57.57171802661088
 21
120.6058388348947
  0
LINE
  5
293
100
AcDbEntity
  8
plate
  6
ByLayer
 62
  256
370
   -1
100
AcDbLine
 10
58.86581156926161
 20
125.4354684172613
 11
59.77167704911722
 21
128.8162091249179
  0
LINE
  5
294
100
AcDbEntity
  8
plate
  6
ByLayer
 62
  256
370
   -1
100
AcDbLine
 10
79.28876498819217
 20
128.0489839803536
 11
79.90113762589418
 21
128.4025370210576
  0
LINE
  5
295
100
AcDbEntity
  8
plate
  6
ByLayer
 62
  256
370
   -1
100
AcDbLine
 10
92.45817316881909
 20
125.0378930184869
 11
92.81172814401872
 21
124.4255214976666
  0
LINE
  5
296
100
AcDbEntity
  8
plate
  6
ByLayer
 62
  256
370
   -1
100
AcDbLine
 10
92.68231878975358
 20
123.94255853943
 11
91.77645330989806
 21
120.5618178317733
  0
LINE
  5
297
100
AcDbEntity
  8
plate
  6
ByLayer
 62
  256
370
   -1
100
AcDbLine
 10
90.48235976724732
 20
115.7321882494069
 11
89.57649428739177
 21
112.3514475417502
  0
LINE
  5
298
100
AcDbEntity
  8
plate
  6
ByLayer
 62
  256
370
   -1
100
AcDbLine
 10
89.44708520036693
 20
111.8684841206368
 11
88.83471279796376
 21
111.5149306723851
  0
LINE
  5
299
100
AcDbEntity
  8
plate
  6
ByLayer
 62
  256
370
   -1
100
AcDbLine
 10
76.27767484381805
 20
114.8795736923799
 11
75.92412067023994
 21
115.4919456760141
  0
LINE
  5
29A
100
AcDbEntity
  8
plate
  6
ByLayer
 62
  256
370
   -1
100
AcDbLine
 10
76.05353145676554
 20
115.9749094611723
 11
76.95939693662108
 21
119.3556501688289
  0
LINE
  5
29B
100
AcDbEntity
  8
plate
  6
ByLayer
 62
  256
370
   -1
100
AcDbLine
 10
78.2534904792718
 20
124.1852797511955
 11
79.15935595912741
 21
127.5660204588521
  0
LINE
  5
29C
100
AcDbEntity
  8
plate
  6
ByLayer
 62
  256
370
   -1
100
AcDbLine
 10
114.118640060985
 20
110.8281879862145
 11
114.731012698687
 21
111.1817410269185
  0
LINE
  5
29D
100
AcDbEntity
  8
plate
  6
ByLayer
 62
  256
370
   -1
100
AcDbLine
 10
127.2880482416119
 20
107.8170970243478
 11
127.6416032168116
 21
107.2047255035275
  0
LINE
  5
29E
100
AcDbEntity
  8
plate
  6
ByLayer
 62
  256
370
   -1
100
AcDbLine
 10
127.5121938625464
 20
106.7217625452908
 11
126.6063283826909
 21
103.3410218376342
  0
LINE
  5
29F
100
AcDbEntity
  8
plate
  6
ByLayer
 62
  256
370
   -1
100
AcDbLine
 10
125.3122348400402
 20
98.51139225526775
 11
124.4063693601846
 21
95.13065154761111
  0
LINE
  5
2A0
100
AcDbEntity
  8
plate
  6
ByLayer
 62
  256
370
   -1
100
AcDbLine
 10
124.2769602731598
 20
94.64768812649771
 11
123.6645878707566
 21
94.29413467824602
  0
LINE
  5
2A1
100
AcDbEntity
  8
plate
  6
ByLayer
 62
  256
370
   -1
100
AcDbLine
 10
111.1075499166109
 20
97.65877769824078
 11
110.7539957430328
 21
98.27114968187497
  0
LINE
  5
2A2
100
AcDbEntity
  8
plate
  6
ByLayer
 62
  256
370
   -1
100
AcDbLine
 10
110.8834065295584
 20
98.75411346703316
 11
111.7892720094139
 21
102.1348541746898
  0
LINE
  5
2A3
100
AcDbEntity
  8
plate
  6
ByLayer
 62
  256
370
   -1
100
AcDbLine
 10
113.0833655520647
 20
106.9644837570564
 11
113.9892310319203
 21
110.345224464713
  0
LINE
  5
2A4
100
AcDbEntity
  8
plate
  6
ByLayer
 62
  256
370
   -1
100
AcDbLine
 10
107.4042548236635
 20
105.2815791817948
 11
106.4983893438079
 21
101.9008384741381
  0
LINE
  5
2A5
100
AcDbEntity
  8
plate
  6
ByLayer
 62
  256
370
   -1
100
AcDbLine
 10
106.3689802567831
 20
101.4178750530247
 11
105.7566078543799
 21
101.064321604773
  0
LINE
  5
2A6
100
AcDbEntity
  8
plate
  6
ByLayer
 62
  256
370
   -1
100
AcDbLine
 10
108.6983483663142
 20
110.1112087641612
 11
109.6042138461697
 21
113.4919494718178
  0
LINE
  5
2A7
100
AcDbEntity
  8
plate
  6
ByLayer
 62
  256
370
   -1
100
AcDbLine
 10
109.7336232004348
 20
113.9749124300545
 11
109.3800682252352
 21
114.5872839508748
  0
LINE
  5
2A8
100
AcDbEntity
  8
plate
  6
ByLayer
 62
  256
370
   -1
100
AcDbLine
 10
96.82303268231031
 20
117.9519279534455
 11
96.2106600446083
 21
117.5983749127415
  0
LINE
  5
2A9
100
AcDbEntity
  8
plate
  6
ByLayer
 62
  256
370
   -1
100
AcDbLine
 10
96.08125101554354
 20
117.11541139124
 11
95.17538553568794
 21
113.7346706835834
  0
LINE
  5
2AA
100
AcDbEntity
  8
plate
  6
ByLayer
 62
  256
370
   -1
100
AcDbLine
 10
93.88129199303721
 20
108.9050411012168
 11
92.97542651318167
 21
105.5243003935602
  0
LINE
  5
2AB
100
AcDbEntity
  8
plate
  6
ByLayer
 62
  256
370
   -1
100
AcDbLine
 10
92.84601572665608
 20
105.041336608402
 11
93.19956990023418
 21
104.4289646247678
  0
LINE
  5
2AC
100
AcDbEntity
  8
plate
  6
ByLayer
 62
  256
370
   -1
100
AcDbLine
 10
16.31566452187451
 20
111.9146049056476
 11
15.7032918841725
 21
111.5610518649436
  0
LINE
  5
2AD
100
AcDbEntity
  8
plate
  6
ByLayer
 62
  256
370
   -1
100
AcDbLine
 10
15.57388285510774
 20
111.0780883434421
 11
14.66801737525213
 21
107.6973476357855
  0
LINE
  5
2AE
100
AcDbEntity
  8
plate
  6
ByLayer
 62
  256
370
   -1
100
AcDbLine
 10
13.37392383260141
 20
102.8677180534189
 11
12.46805835274586
 21
99.48697734576228
  0
LINE
  5
2AF
100
AcDbEntity
  8
plate
  6
ByLayer
 62
  256
370
   -1
100
AcDbLine
 10
12.33864756622026
 20
99.00401356060409
 11
12.69220173979838
 21
98.3916415769699
  0
LINE
  5
2B0
100
AcDbEntity
  8
plate
  6
ByLayer
 62
  256
370
   -1
100
AcDbLine
 10
25.24923969394408
 20
95.02699855697514
 11
25.86161209634724
 21
95.38055200522683
  0
LINE
  5
2B1
100
AcDbEntity
  8
plate
  6
ByLayer
 62
  256
370
   -1
100
AcDbLine
 10
25.99102118337208
 20
95.86351542634023
 11
26.89688666322763
 21
99.24425613399687
  0
LINE
  5
2B2
100
AcDbEntity
  8
plate
  6
ByLayer
 62
  256
370
   -1
100
AcDbLine
 10
28.19098020587839
 20
104.0738857163633
 11
29.09684568573391
 21
107.45462642402
  0
LINE
  5
2B3
100
AcDbEntity
  8
plate
  6
ByLayer
 62
  256
370
   -1
100
AcDbLine
 10
29.22625503999905
 20
107.9375893822566
 11
28.8727000647994
 21
108.5499609030769
  0
LINE
  5
2B4
100
AcDbEntity
  8
plate
  6
ByLayer
 62
  256
370
   -1
100
AcDbLine
 10
34.10475884448167
 20
106.6305680480474
 11
34.71713148218367
 21
106.9841210887514
  0
LINE
  5
2B5
100
AcDbEntity
  8
plate
  6
ByLayer
 62
  256
370
   -1
100
AcDbLine
 10
33.97534981541691
 20
106.147604526546
 11
33.0694843355613
 21
102.7668638188893
  0
LINE
  5
2B6
100
AcDbEntity
  8
plate
  6
ByLayer
 62
  256
370
   -1
100
AcDbLine
 10
31.77539079291057
 20
97.93723423652276
 11
30.86952531305504
 21
94.5564935288661
  0
LINE
  5
2B7
100
AcDbEntity
  8
plate
  6
ByLayer
 62
  256
370
   -1
100
AcDbLine
 10
31.09366870010754
 20
93.46115776007372
 11
30.74011452652944
 21
94.07352974370791
  0
LINE
  5
2B8
100
AcDbEntity
  8
plate
  6
ByLayer
 62
  256
370
   -1
100
AcDbLine
 10
47.27416702510858
 20
103.6194770861807
 11
47.62772200030821
 21
103.0071055653604
  0
LINE
  5
2B9
100
AcDbEntity
  8
plate
  6
ByLayer
 62
  256
370
   -1
100
AcDbLine
 10
47.49831264604308
 20
102.5241426071238
 11
46.59244716618755
 21
99.14340189946711
  0
LINE
  5
2BA
100
AcDbEntity
  8
plate
  6
ByLayer
 62
  256
370
   -1
100
AcDbLine
 10
45.29835362353681
 20
94.31377231710069
 11
44.39248814368126
 21
90.93303160944404
  0
LINE
  5
2BB
100
AcDbEntity
  8
plate
  6
ByLayer
 62
  256
370
   -1
100
AcDbLine
 10
44.26307905665642
 20
90.45006818833065
 11
43.65070665425326
 21
90.09651474007896
  0
LINE
  5
2BC
100
AcDbEntity
  8
plate
  6
ByLayer
 62
  256
370
   -1
100
AcDbLine
 10
55.58260443215027
 20
111.2521528270817
 11
54.97023179444827
 21
110.8985997863777
  0
LINE
  5
2BD
100
AcDbEntity
  8
plate
  6
ByLayer
 62
  256
370
   -1
100
AcDbLine
 10
54.84082276538351
 20
110.4156362648763
 11
53.9349572855279
 21
107.0348955572197
  0
LINE
  5
2BE
100
AcDbEntity
  8
plate
  6
ByLayer
 62
  256
370
   -1
100
AcDbLine
 10
52.64086374287717
 20
102.2052659748531
 11
51.73499826302162
 21
98.82452526719641
  0
LINE
  5
2BF
100
AcDbEntity
  8
plate
  6
ByLayer
 62
  256
370
   -1
100
AcDbLine
 10
51.60558747649603
 20
98.34156148203822
 11
51.95914165007414
 21
97.72918949840403
  0
LINE
  5
2C0
100
AcDbEntity
  8
plate
  6
ByLayer
 62
  256
370
   -1
100
AcDbLine
 10
64.51617960421984
 20
94.36454647840927
 11
65.12855200662301
 21
94.71809992666095
  0
LINE
  5
2C1
100
AcDbEntity
  8
plate
  6
ByLayer
 62
  256
370
   -1
100
AcDbLine
 10
65.25796109364785
 20
95.20106334777435
 11
66.1638265735034
 21
98.58180405543099
  0
LINE
  5
2C2
100
AcDbEntity
  8
plate
  6
ByLayer
 62
  256
370
   -1
100
AcDbLine
 10
67.45792011615416
 20
103.4114336377974
 11
68.36378559600968
 21
106.7921743454541
  0
LINE
  5
2C3
100
AcDbEntity
  8
plate
  6
ByLayer
 62
  256
370
   -1
100
AcDbLine
 10
68.13963997507517
 20
107.887508824511
 11
68.49319495027481
 21
107.2751373036908
  0
LINE
  5
2C4
100
AcDbEntity
  8
plate
  6
ByLayer
 62
  256
370
   -1
100
AcDbLine
 10
74.35791070445846
 20
109.6484111203119
 11
74.97028334216047
 21
110.0019641610159
  0
LINE
  5
2C5
100
AcDbEntity
  8
plate
  6
ByLayer
 62
  256
370
   -1
100
AcDbLine
 10
74.2285016753937
 20
109.1654475988105
 11
73.3226361955381
 21
105.7847068911538
  0
LINE
  5
2C6
100
AcDbEntity
  8
plate
  6
ByLayer
 62
  256
370
   -1
100
AcDbLine
 10
72.02854265288737
 20
100.9550773087873
 11
71.12267717303183
 21
97.5743366011306
  0
LINE
  5
2C7
100
AcDbEntity
  8
plate
  6
ByLayer
 62
  256
370
   -1
100
AcDbLine
 10
70.99326638650624
 20
97.09137281597241
 11
71.34682056008434
 21
96.47900083233822
  0
LINE
  5
2C8
100
AcDbEntity
  8
plate
  6
ByLayer
 62
  256
370
   -1
100
AcDbLine
 10
84.51623091663322
 20
93.46791126059514
 11
83.90385851423005
 21
93.11435781234346
  0
LINE
  5
2C9
100
AcDbEntity
  8
plate
  6
ByLayer
 62
  256
370
   -1
100
AcDbLine
 10
84.64564000365806
 20
93.95087468170854
 11
85.55150548351361
 21
97.33161538936518
  0
LINE
  5
2CA
100
AcDbEntity
  8
plate
  6
ByLayer
 62
  256
370
   -1
100
AcDbLine
 10
86.84559902616435
 20
102.1612449717316
 11
87.75146450601987
 21
105.5419856793883
  0
LINE
  5
2CB
100
AcDbEntity
  8
plate
  6
ByLayer
 62
  256
370
   -1
100
AcDbLine
 10
87.88087386028501
 20
106.0249486376249
 11
87.52731888508538
 21
106.6373201584452
  0
LINE
  5
2CC
100
AcDbEntity
  8
plate
  6
ByLayer
 62
  256
370
   -1
100
AcDbLine
 10
91.27980576087459
 20
99.19780205269983
 11
91.8921783985766
 21
99.5513550934038
  0
LINE
  5
2CD
100
AcDbEntity
  8
plate
  6
ByLayer
 62
  256
370
   -1
100
AcDbLine
 10
91.15039673180983
 20
98.71483853119835
 11
90.24453125195423
 21
95.33409782354174
  0
LINE
  5
2CE
100
AcDbEntity
  8
plate
  6
ByLayer
 62
  256
370
   -1
100
AcDbLine
 10
88.9504377093035
 20
90.50446824117515
 11
88.04457222944797
 21
87.12372753351849
  0
LINE
  5
2CF
100
AcDbEntity
  8
plate
  6
ByLayer
 62
  256
370
   -1
100
AcDbLine
 10
87.91516144292237
 20
86.6407637483603
 11
88.26871561650047
 21
86.02839176472611
  0
LINE
  5
2D0
100
AcDbEntity
  8
plate
  6
ByLayer
 62
  256
370
   -1
100
AcDbLine
 10
100.8257535706462
 20
82.66374874473135
 11
101.4381259730494
 21
83.01730219298304
  0
LINE
  5
2D1
100
AcDbEntity
  8
plate
  6
ByLayer
 62
  256
370
   -1
100
AcDbLine
 10
101.5675350600742
 20
83.50026561409643
 11
102.4734005399297
 21
86.88100632175308
  0
LINE
  5
2D2
100
AcDbEntity
  8
plate
  6
ByLayer
 62
  256
370
   -1
100
AcDbLine
 10
103.7674940825805
 20
91.7106359041195
 11
104.673359562436
 21
95.09137661177617
  0
LINE
  5
2D3
100
AcDbEntity
  8
plate
  6
ByLayer
 62
  256
370
   -1
100
AcDbLine
 10
104.8027689167011
 20
95.57433957001284
 11
104.4492139415015
 21
96.18671109083311
  0
LINE
  5
2D4
100
AcDbEntity
  8
plate
  6
ByLayer
 62
  256
370
   -1
100
AcDbLine
 10
109.8001584149533
 20
92.7811681668768
 11
109.1877857772513
 21
92.42761512617282
  0
LINE
  5
2D5
100
AcDbEntity
  8
plate
  6
ByLayer
 62
  256
370
   -1
100
AcDbLine
 10
109.0583767481866
 20
91.94465160467135
 11
108.152511268331
 21
88.56391089701474
  0
LINE
  5
2D6
100
AcDbEntity
  8
plate
  6
ByLayer
 62
  256
370
   -1
100
AcDbLine
 10
106.8584177256802
 20
83.73428131464814
 11
105.9525522458247
 21
80.35354060699149
  0
LINE
  5
2D7
100
AcDbEntity
  8
plate
  6
ByLayer
 62
  256
370
   -1
100
AcDbLine
 10
105.8231414592991
 20
79.8705768218333
 11
106.1766956328772
 21
79.25820483819911
  0
LINE
  5
2D8
100
AcDbEntity
  8
plate
  6
ByLayer
 62
  256
370
   -1
100
AcDbLine
 10
122.3571939578782
 20
89.41652416430611
 11
122.7107489330779
 21
88.80415264348584
  0
LINE
  5
2D9
100
AcDbEntity
  8
plate
  6
ByLayer
 62
  256
370
   -1
100
AcDbLine
 10
122.5813395788127
 20
88.32118968524917
 11
121.6754740989572
 21
84.9404489775925
  0
LINE
  5
2DA
100
AcDbEntity
  8
plate
  6
ByLayer
 62
  256
370
   -1
100
AcDbLine
 10
120.3813805563065
 20
80.11081939522607
 11
119.4755150764509
 21
76.73007868756943
  0
LINE
  5
2DB
100
AcDbEntity
  8
plate
  6
ByLayer
 62
  256
370
   -1
100
AcDbLine
 10
119.3461059894261
 20
76.24711526645603
 11
118.7337335870229
 21
75.89356181820435
  0
LINE
  5
2DC
100
AcDbEntity
  8
plate
  6
ByLayer
 62
  256
370
   -1
100
AcDbLine
 10
104.2572662967774
 20
74.02679153936769
 11
104.8696389344794
 21
74.38034458007166
  0
LINE
  5
2DD
100
AcDbEntity
  8
plate
  6
ByLayer
 62
  256
370
   -1
100
AcDbLine
 10
117.4266744774043
 20
71.01570057750098
 11
117.780229452604
 21
70.4033290566807
  0
LINE
  5
2DE
100
AcDbEntity
  8
plate
  6
ByLayer
 62
  256
370
   -1
100
AcDbLine
 10
117.6508200983388
 20
69.92036609844403
 11
116.7449546184833
 21
66.53962539078736
  0
LINE
  5
2DF
100
AcDbEntity
  8
plate
  6
ByLayer
 62
  256
370
   -1
100
AcDbLine
 10
115.4508610758326
 20
61.70999580842094
 11
114.544995595977
 21
58.32925510076431
  0
LINE
  5
2E0
100
AcDbEntity
  8
plate
  6
ByLayer
 62
  256
370
   -1
100
AcDbLine
 10
114.4155865089522
 20
57.8462916796509
 11
113.803214106549
 21
57.49273823139922
  0
LINE
  5
2E1
100
AcDbEntity
  8
plate
  6
ByLayer
 62
  256
370
   -1
100
AcDbLine
 10
101.2461761524033
 20
60.85738125139398
 11
100.8926219788252
 21
61.46975323502816
  0
LINE
  5
2E2
100
AcDbEntity
  8
plate
  6
ByLayer
 62
  256
370
   -1
100
AcDbLine
 10
101.0220327653508
 20
61.95271702018636
 11
101.9278982452063
 21
65.33345772784301
  0
LINE
  5
2E3
100
AcDbEntity
  8
plate
  6
ByLayer
 62
  256
370
   -1
100
AcDbLine
 10
103.2219917878571
 20
70.1630873102096
 11
104.1278572677127
 21
73.54382801786622
  0
LINE
  5
2E4
100
AcDbEntity
  8
plate
  6
ByLayer
 62
  256
370
   -1
100
AcDbLine
 10
97.54288105945585
 20
68.48018273494795
 11
96.6370155796003
 21
65.0994420272913
  0
LINE
  5
2E5
100
AcDbEntity
  8
plate
  6
ByLayer
 62
  256
370
   -1
100
AcDbLine
 10
96.50760649257546
 20
64.61647860617791
 11
95.89523409017229
 21
64.26292515792622
  0
LINE
  5
2E6
100
AcDbEntity
  8
plate
  6
ByLayer
 62
  256
370
   -1
100
AcDbLine
 10
98.83697460210659
 20
73.30981231731437
 11
99.74284008196211
 21
76.69055302497104
  0
LINE
  5
2E7
100
AcDbEntity
  8
plate
  6
ByLayer
 62
  256
370
   -1
100
AcDbLine
 10
99.51869446102762
 20
77.78588750402798
 11
99.87224943622725
 21
77.17351598320771
  0
LINE
  5
2E8
100
AcDbEntity
  8
plate
  6
ByLayer
 62
  256
370
   -1
100
AcDbLine
 10
86.96165891810271
 20
81.15053150659867
 11
86.3492862804007
 21
80.7969784658947
  0
LINE
  5
2E9
100
AcDbEntity
  8
plate
  6
ByLayer
 62
  256
370
   -1
100
AcDbLine
 10
86.21987725133594
 20
80.31401494439322
 11
85.31401177148034
 21
76.93327423673661
  0
LINE
  5
2EA
100
AcDbEntity
  8
plate
  6
ByLayer
 62
  256
370
   -1
100
AcDbLine
 10
84.01991822882961
 20
72.10364465437002
 11
83.11405274897407
 21
68.72290394671336
  0
LINE
  5
2EB
100
AcDbEntity
  8
plate
  6
ByLayer
 62
  256
370
   -1
100
AcDbLine
 10
82.98464196244848
 20
68.23994016155517
 11
83.33819613602658
 21
67.62756817792098
  0
LINE
  5
2EC
100
AcDbEntity
  8
plate
  6
ByLayer
 62
  256
370
   -1
100
AcDbLine
 10
82.59679940461149
 20
88.23649657164009
 11
82.95035437981112
 21
87.62412505081981
  0
LINE
  5
2ED
100
AcDbEntity
  8
plate
  6
ByLayer
 62
  256
370
   -1
100
AcDbLine
 10
82.82094502554598
 20
87.14116209258314
 11
81.91507954569046
 21
83.76042138492647
  0
LINE
  5
2EE
100
AcDbEntity
  8
plate
  6
ByLayer
 62
  256
370
   -1
100
AcDbLine
 10
80.62098600303972
 20
78.93079180256005
 11
79.71512052318417
 21
75.55005109490341
  0
LINE
  5
2EF
100
AcDbEntity
  8
plate
  6
ByLayer
 62
  256
370
   -1
100
AcDbLine
 10
79.58571143615933
 20
75.06708767379001
 11
78.97333903375616
 21
74.71353422553833
  0
LINE
  5
2F0
100
AcDbEntity
  8
plate
  6
ByLayer
 62
  256
370
   -1
100
AcDbLine
 10
70.03976386168658
 20
91.60114057421077
 11
69.42739122398457
 21
91.2475875335068
  0
LINE
  5
2F1
100
AcDbEntity
  8
plate
  6
ByLayer
 62
  256
370
   -1
100
AcDbLine
 10
69.29798219491981
 20
90.76462401200533
 11
68.3921167150642
 21
87.38388330434871
  0
LINE
  5
2F2
100
AcDbEntity
  8
plate
  6
ByLayer
 62
  256
370
   -1
100
AcDbLine
 10
67.09802317241348
 20
82.55425372198212
 11
66.19215769255794
 21
79.17351301432547
  0
LINE
  5
2F3
100
AcDbEntity
  8
plate
  6
ByLayer
 62
  256
370
   -1
100
AcDbLine
 10
66.06274690603234
 20
78.69054922916727
 11
66.41630107961045
 21
78.07817724553308
  0
LINE
  5
2F4
100
AcDbEntity
  8
plate
  6
ByLayer
 62
  256
370
   -1
100
AcDbLine
 10
63.43326611553578
 20
88.39135075864895
 11
62.52740063568026
 21
85.01061005099228
  0
LINE
  5
2F5
100
AcDbEntity
  8
plate
  6
ByLayer
 62
  256
370
   -1
100
AcDbLine
 10
63.20912049460129
 20
89.4866852377059
 11
63.56267546980092
 21
88.87431371688562
  0
LINE
  5
2F6
100
AcDbEntity
  8
plate
  6
ByLayer
 62
  256
370
   -1
100
AcDbLine
 10
61.23330709302952
 20
80.18098046862586
 11
60.32744161317397
 21
76.80023976096922
  0
LINE
  5
2F7
100
AcDbEntity
  8
plate
  6
ByLayer
 62
  256
370
   -1
100
AcDbLine
 10
60.19803252614913
 20
76.31727633985582
 11
59.58566012374596
 21
75.96372289160414
  0
LINE
  5
2F8
100
AcDbEntity
  8
plate
  6
ByLayer
 62
  256
370
   -1
100
AcDbLine
 10
47.02862216960025
 20
79.32836591159889
 11
46.67506799602214
 21
79.94073789523308
  0
LINE
  5
2F9
100
AcDbEntity
  8
plate
  6
ByLayer
 62
  256
370
   -1
100
AcDbLine
 10
46.80447878254774
 20
80.42370168039128
 11
47.71034426240328
 21
83.80444238804793
  0
LINE
  5
2FA
100
AcDbEntity
  8
plate
  6
ByLayer
 62
  256
370
   -1
100
AcDbLine
 10
49.004437805054
 20
88.63407197041452
 11
49.91030328490961
 21
92.01481267807114
  0
LINE
  5
2FB
100
AcDbEntity
  8
plate
  6
ByLayer
 62
  256
370
   -1
100
AcDbLine
 10
50.03971231397437
 20
92.49777619957261
 11
50.65208495167638
 21
92.85132924027658
  0
LINE
  5
2FC
100
AcDbEntity
  8
plate
  6
ByLayer
 62
  256
370
   -1
100
AcDbLine
 10
25.80959504605555
 20
75.67270615690278
 11
26.16314921963365
 21
75.06033417326859
  0
LINE
  5
2FD
100
AcDbEntity
  8
plate
  6
ByLayer
 62
  256
370
   -1
100
AcDbLine
 10
25.93900583258115
 20
76.15566994206097
 11
26.84487131243668
 21
79.53641064971762
  0
LINE
  5
2FE
100
AcDbEntity
  8
plate
  6
ByLayer
 62
  256
370
   -1
100
AcDbLine
 10
28.13896485508741
 20
84.36604023208422
 11
29.04483033494301
 21
87.74678093974083
  0
LINE
  5
2FF
100
AcDbEntity
  8
plate
  6
ByLayer
 62
  256
370
   -1
100
AcDbLine
 10
29.17423936400778
 20
88.2297444612423
 11
29.78661200170978
 21
88.58329750194628
  0
LINE
  5
300
100
AcDbEntity
  8
plate
  6
ByLayer
 62
  256
370
   -1
100
AcDbLine
 10
42.34364754463469
 20
85.21865349937559
 11
42.69720251983432
 21
84.60628197855532
  0
LINE
  5
301
100
AcDbEntity
  8
plate
  6
ByLayer
 62
  256
370
   -1
100
AcDbLine
 10
42.56779316556919
 20
84.12331902031865
 11
41.66192768571366
 21
80.74257831266198
  0
LINE
  5
302
100
AcDbEntity
  8
plate
  6
ByLayer
 62
  256
370
   -1
100
AcDbLine
 10
40.36783414306292
 20
75.91294873029555
 11
39.46196866320737
 21
72.53220802263891
  0
LINE
  5
303
100
AcDbEntity
  8
plate
  6
ByLayer
 62
  256
370
   -1
100
AcDbLine
 10
39.33255957618253
 20
72.04924460152552
 11
38.72018717377937
 21
71.69569115327383
  0
LINE
  5
304
100
AcDbEntity
  8
plate
  6
ByLayer
 62
  256
370
   -1
100
AcDbLine
 10
10.7727724036986
 20
93.16022827813849
 11
11.38514504140061
 21
93.51378131884246
  0
LINE
  5
305
100
AcDbEntity
  8
plate
  6
ByLayer
 62
  256
370
   -1
100
AcDbLine
 10
10.64336337463384
 20
92.67726475663702
 11
9.737497894778237
 21
89.2965240489804
  0
LINE
  5
306
100
AcDbEntity
  8
plate
  6
ByLayer
 62
  256
370
   -1
100
AcDbLine
 10
8.443404352127509
 20
84.46689446661381
 11
7.537538872271973
 21
81.08615375895715
  0
LINE
  5
307
100
AcDbEntity
  8
plate
  6
ByLayer
 62
  256
370
   -1
100
AcDbLine
 10
7.408128085746377
 20
80.60318997379896
 11
7.761682259324481
 21
79.99081799016477
  0
LINE
  5
308
100
AcDbEntity
  8
plate
  6
ByLayer
 62
  256
370
   -1
100
AcDbLine
 10
20.31872021347019
 20
76.62617497017001
 11
20.93109261587336
 21
76.9797284184217
  0
LINE
  5
309
100
AcDbEntity
  8
plate
  6
ByLayer
 62
  256
370
   -1
100
AcDbLine
 10
21.0605017028982
 20
77.4626918395351
 11
21.96636718275375
 21
80.84343254719174
  0
LINE
  5
30A
100
AcDbEntity
  8
plate
  6
ByLayer
 62
  256
370
   -1
100
AcDbLine
 10
23.26046072540449
 20
85.67306212955816
 11
24.16632620526001
 21
89.05380283721483
  0
LINE
  5
30B
100
AcDbEntity
  8
plate
  6
ByLayer
 62
  256
370
   -1
100
AcDbLine
 10
24.29573555952515
 20
89.5367657954515
 11
23.94218058432552
 21
90.14913731627178
  0
LINE
  5
30C
100
AcDbEntity
  8
plate
  6
ByLayer
 62
  256
370
   -1
100
AcDbLine
 10
77.50088261429153
 20
62.21522612362777
 11
78.11325525199354
 21
62.56877916433175
  0
LINE
  5
30D
100
AcDbEntity
  8
plate
  6
ByLayer
 62
  256
370
   -1
100
AcDbLine
 10
90.67029079491843
 20
59.20413516176107
 11
91.02384577011807
 21
58.59176364094078
  0
LINE
  5
30E
100
AcDbEntity
  8
plate
  6
ByLayer
 62
  256
370
   -1
100
AcDbLine
 10
90.89443641585294
 20
58.10880068270411
 11
89.98857093599742
 21
54.72805997504745
  0
LINE
  5
30F
100
AcDbEntity
  8
plate
  6
ByLayer
 62
  256
370
   -1
100
AcDbLine
 10
88.69447739334666
 20
49.89843039268101
 11
87.78861191349111
 21
46.51768968502439
  0
LINE
  5
310
100
AcDbEntity
  8
plate
  6
ByLayer
 62
  256
370
   -1
100
AcDbLine
 10
87.65920282646627
 20
46.03472626391099
 11
87.04683042406313
 21
45.6811728156593
  0
LINE
  5
311
100
AcDbEntity
  8
plate
  6
ByLayer
 62
  256
370
   -1
100
AcDbLine
 10
74.4897924699174
 20
49.04581583565406
 11
74.13623829633934
 21
49.65818781928824
  0
LINE
  5
312
100
AcDbEntity
  8
plate
  6
ByLayer
 62
  256
370
   -1
100
AcDbLine
 10
74.26564908286491
 20
50.14115160444644
 11
75.1715145627204
 21
53.52189231210307
  0
LINE
  5
313
100
AcDbEntity
  8
plate
  6
ByLayer
 62
  256
370
   -1
100
AcDbLine
 10
76.46560810537116
 20
58.35152189446966
 11
77.37147358522677
 21
61.73226260212628
  0
LINE
  5
314
100
AcDbEntity
  8
plate
  6
ByLayer
 62
  256
370
   -1
100
AcDbLine
 10
94.26508403100686
 20
47.72624641305749
 11
92.64910584759738
 21
44.62163459984394
  0
LINE
  5
315
100
AcDbEntity
  8
plate
  6
ByLayer
 62
  256
370
   -1
100
AcDbLine
 10
92.41825024412981
 20
44.17811812913386
 11
92.63091281852022
 21
43.50374832743142
  0
LINE
  5
316
100
AcDbEntity
  8
plate
  6
ByLayer
 62
  256
370
   -1
100
AcDbLine
 10
96.5736242930204
 20
52.1614061462197
 11
98.18960247642994
 21
55.26601795943321
  0
LINE
  5
317
100
AcDbEntity
  8
plate
  6
ByLayer
 62
  256
370
   -1
100
AcDbLine
 10
98.42045630702421
 20
55.70953455303999
 11
99.09482650214824
 21
55.9221958798616
  0
LINE
  5
318
100
AcDbEntity
  8
plate
  6
ByLayer
 62
  256
370
   -1
100
AcDbLine
 10
104.162329181402
 20
37.50154360752076
 11
104.8366992349938
 21
37.71420538315114
  0
LINE
  5
319
100
AcDbEntity
  8
plate
  6
ByLayer
 62
  256
370
   -1
100
AcDbLine
 10
105.0675531004513
 20
38.15772186620615
 11
106.6835312838608
 21
41.2623336794197
  0
LINE
  5
31A
100
AcDbEntity
  8
plate
  6
ByLayer
 62
  256
370
   -1
100
AcDbLine
 10
108.9920715458743
 20
45.69749341258174
 11
110.6080497292838
 21
48.80210522579532
  0
LINE
  5
31B
100
AcDbEntity
  8
plate
  6
ByLayer
 62
  256
370
   -1
100
AcDbLine
 10
110.8389037554852
 20
49.24562119911153
 11
110.6262402983162
 21
49.91999072243322
  0
LINE
  5
31C
100
AcDbEntity
  8
plate
  6
ByLayer
 62
  256
370
   -1
100
AcDbLine
 10
109.0901045654179
 20
34.08925162541686
 11
109.0284604947873
 21
34.79366628210043
  0
LINE
  5
31D
100
AcDbEntity
  8
plate
  6
ByLayer
 62
  256
370
   -1
100
AcDbLine
 10
109.3498477916347
 20
35.17669549099789
 11
111.599547336801
 21
37.85789894401657
  0
LINE
  5
31E
100
AcDbEntity
  8
plate
  6
ByLayer
 62
  256
370
   -1
100
AcDbLine
 10
114.8134038298956
 20
41.68818959118614
 11
117.0631033750619
 21
44.36939304420477
  0
LINE
  5
31F
100
AcDbEntity
  8
plate
  6
ByLayer
 62
  256
370
   -1
100
AcDbLine
 10
117.3844889676722
 20
44.75242275684743
 11
118.0889037383966
 21
44.81406552432672
  0
LINE
  5
320
100
AcDbEntity
  8
plate
  6
ByLayer
 62
  256
370
   -1
100
AcDbLine
 10
119.0488612712943
 20
25.73322447688405
 11
119.7532760009927
 21
25.79486771316774
  0
LINE
  5
321
100
AcDbEntity
  8
plate
  6
ByLayer
 62
  256
370
   -1
100
AcDbLine
 10
120.0746616037093
 20
26.17789731033312
 11
122.3243611488755
 21
28.8591007633518
  0
LINE
  5
322
100
AcDbEntity
  8
plate
  6
ByLayer
 62
  256
370
   -1
100
AcDbLine
 10
125.5382176419701
 20
32.6893914105212
 11
127.7879171871363
 21
35.37059486353992
  0
LINE
  5
323
100
AcDbEntity
  8
plate
  6
ByLayer
 62
  256
370
   -1
100
AcDbLine
 10
128.1093028364459
 20
35.75362392825686
 11
128.0476578437076
 21
36.4580385042492
  0
LINE
  5
324
100
AcDbEntity
  8
plate
  6
ByLayer
 62
  256
370
   -1
100
AcDbLine
 10
123.2562334205074
 20
21.4641221193153
 11
123.3484942195245
 21
22.16518413152198
  0
LINE
  5
325
100
AcDbEntity
  8
plate
  6
ByLayer
 62
  256
370
   -1
100
AcDbLine
 10
123.7451575479789
 20
22.46958415337306
 11
126.5217893692802
 21
24.60038581681751
  0
LINE
  5
326
100
AcDbEntity
  8
plate
  6
ByLayer
 62
  256
370
   -1
100
AcDbLine
 10
130.4884062568534
 20
27.64438819316677
 11
133.2650380781548
 21
29.77518985661116
  0
LINE
  5
327
100
AcDbEntity
  8
plate
  6
ByLayer
 62
  256
370
   -1
100
AcDbLine
 10
133.6616998517757
 20
30.07959073908767
 11
134.3627616933026
 21
29.98732864312151
  0
LINE
  5
328
100
AcDbEntity
  8
plate
  6
ByLayer
 62
  256
370
   -1
100
AcDbLine
 10
131.1706405403313
 20
11.15091773001247
 11
131.8717024432596
 21
11.05865610061951
  0
LINE
  5
329
100
AcDbEntity
  8
plate
  6
ByLayer
 62
  256
370
   -1
100
AcDbLine
 10
132.2683642017566
 20
11.36305686816819
 11
135.0449960230579
 21
13.49385853161264
  0
LINE
  5
32A
100
AcDbEntity
  8
plate
  6
ByLayer
 62
  256
370
   -1
100
AcDbLine
 10
139.011612910631
 20
16.53786090796174
 11
141.7882447319323
 21
18.66866257140624
  0
LINE
  5
32B
100
AcDbEntity
  8
plate
  6
ByLayer
 62
  256
370
   -1
100
AcDbLine
 10
142.1849064206897
 20
18.97306280904114
 11
142.2771663019885
 21
19.6741249420243
  0
LINE
  5
32C
100
AcDbEntity
  8
plate
  6
ByLayer
 62
  256
370
   -1
100
AcDbLine
 10
161.5290449868151
 20
11.05865610061892
 11
162.2301068897434
 21
11.15091773001187
  0
LINE
  5
32D
100
AcDbEntity
  8
plate
  6
ByLayer
 62
  256
370
   -1
100
AcDbLine
 10
161.1323832283181
 20
11.3630568681676
 11
158.3557514070168
 21
13.49385853161206
  0
LINE
  5
32E
100
AcDbEntity
  8
plate
  6
ByLayer
 62
  256
370
   -1
100
AcDbLine
 10
154.3891345194436
 20
16.53786090796116
 11
151.6125026981424
 21
18.66866257140565
  0
LINE
  5
32F
100
AcDbEntity
  8
plate
  6
ByLayer
 62
  256
370
   -1
100
AcDbLine
 10
151.215841009385
 20
18.97306280904055
 11
151.1235811280862
 21
19.67412494202371
  0
LINE
  5
330
100
AcDbEntity
  8
plate
  6
ByLayer
 62
  256
370
   -1
100
AcDbLine
 10
159.0379857367721
 20
29.98732864312092
 11
159.739047578299
 21
30.07959073908708
  0
LINE
  5
331
100
AcDbEntity
  8
plate
  6
ByLayer
 62
  256
370
   -1
100
AcDbLine
 10
160.1357093519199
 20
29.77518985661057
 11
162.9123411732213
 21
27.64438819316618
  0
LINE
  5
332
100
AcDbEntity
  8
plate
  6
ByLayer
 62
  256
370
   -1
100
AcDbLine
 10
166.8789580607945
 20
24.60038581681692
 11
169.6555898820958
 21
22.46958415337247
  0
LINE
  5
333
100
AcDbEntity
  8
plate
  6
ByLayer
 62
  256
370
   -1
100
AcDbLine
 10
170.0522532105502
 20
22.16518413152139
 11
170.1445140095673
 21
21.46412211931472
  0
LINE
  5
334
100
AcDbEntity
  8
plate
  6
ByLayer
 62
  256
370
   -1
100
AcDbLine
 10
175.3118436916781
 20
44.81406552432613
 11
176.0162584624025
 21
44.75242275684684
  0
LINE
  5
335
100
AcDbEntity
  8
plate
  6
ByLayer
 62
  256
370
   -1
100
AcDbLine
 10
176.3376440550128
 20
44.36939304420418
 11
178.5873436001791
 21
41.68818959118555
  0
LINE
  5
336
100
AcDbEntity
  8
plate
  6
ByLayer
 62
  256
370
   -1
100
AcDbLine
 10
181.8012000932737
 20
37.85789894401598
 11
184.0508996384399
 21
35.1766954909973
  0
LINE
  5
337
100
AcDbEntity
  8
plate
  6
ByLayer
 62
  256
370
   -1
100
AcDbLine
 10
184.3722869352873
 20
34.79366628209984
 11
184.3106428646568
 21
34.08925162541627
  0
LINE
  5
338
100
AcDbEntity
  8
plate
  6
ByLayer
 62
  256
370
   -1
100
AcDbLine
 10
174.3518861587804
 20
25.73322447688346
 11
173.647471429082
 21
25.79486771316715
  0
LINE
  5
339
100
AcDbEntity
  8
plate
  6
ByLayer
 62
  256
370
   -1
100
AcDbLine
 10
173.3260858263654
 20
26.17789731033253
 11
171.0763862811991
 21
28.85910076335121
  0
LINE
  5
33A
100
AcDbEntity
  8
plate
  6
ByLayer
 62
  256
370
   -1
100
AcDbLine
 10
167.8625297881046
 20
32.68939141052061
 11
165.6128302429383
 21
35.37059486353933
  0
LINE
  5
33B
100
AcDbEntity
  8
plate
  6
ByLayer
 62
  256
370
   -1
100
AcDbLine
 10
165.2914445936288
 20
35.75362392825627
 11
165.3530895863671
 21
36.45803850424861
  0
LINE
  5
33C
100
AcDbEntity
  8
plate
  6
ByLayer
 62
  256
370
   -1
100
AcDbLine
 10
188.5640481950809
 20
37.71420538315055
 11
189.2384182486727
 21
37.50154360752017
  0
LINE
  5
33D
100
AcDbEntity
  8
plate
  6
ByLayer
 62
  256
370
   -1
100
AcDbLine
 10
188.3331943296234
 20
38.15772186620556
 11
186.7172161462139
 21
41.26233367941911
  0
LINE
  5
33E
100
AcDbEntity
  8
plate
  6
ByLayer
 62
  256
370
   -1
100
AcDbLine
 10
184.4086758842004
 20
45.69749341258115
 11
182.7926977007909
 21
48.80210522579473
  0
LINE
  5
33F
100
AcDbEntity
  8
plate
  6
ByLayer
 62
  256
370
   -1
100
AcDbLine
 10
182.5618436745895
 20
49.24562119911094
 11
182.7745071317584
 21
49.91999072243263
  0
LINE
  5
340
100
AcDbEntity
  8
plate
  6
ByLayer
 62
  256
370
   -1
100
AcDbLine
 10
194.3059209279265
 20
55.92219587986101
 11
194.9802911230505
 21
55.7095345530394
  0
LINE
  5
341
100
AcDbEntity
  8
plate
  6
ByLayer
 62
  256
370
   -1
100
AcDbLine
 10
195.2111449536447
 20
55.26601795943262
 11
196.8271231370543
 21
52.16140614621911
  0
LINE
  5
342
100
AcDbEntity
  8
plate
  6
ByLayer
 62
  256
370
   -1
100
AcDbLine
 10
199.1356633990678
 20
47.7262464130569
 11
200.7516415824773
 21
44.62163459984335
  0
LINE
  5
343
100
AcDbEntity
  8
plate
  6
ByLayer
 62
  256
370
   -1
100
AcDbLine
 10
200.9824971859449
 20
44.17811812913327
 11
200.7698346115545
 21
43.50374832743083
  0
LINE
  5
344
100
AcDbEntity
  8
plate
  6
ByLayer
 62
  256
370
   -1
100
AcDbLine
 10
205.7415446036084
 20
46.0347262639104
 11
206.3539170060116
 21
45.68117281565871
  0
LINE
  5
345
100
AcDbEntity
  8
plate
  6
ByLayer
 62
  256
370
   -1
100
AcDbLine
 10
205.6121355165836
 20
46.5176896850238
 11
204.706270036728
 21
49.89843039268042
  0
LINE
  5
346
100
AcDbEntity
  8
plate
  6
ByLayer
 62
  256
370
   -1
100
AcDbLine
 10
203.4121764940773
 20
54.72805997504686
 11
202.5063110142218
 21
58.10880068270352
  0
LINE
  5
347
100
AcDbEntity
  8
plate
  6
ByLayer
 62
  256
370
   -1
100
AcDbLine
 10
202.3769016599566
 20
58.59176364094019
 11
202.7304566351563
 21
59.20413516176048
  0
LINE
  5
348
100
AcDbEntity
  8
plate
  6
ByLayer
 62
  256
370
   -1
100
AcDbLine
 10
218.9109549601573
 20
49.04581583565347
 11
219.2645091337354
 21
49.65818781928765
  0
LINE
  5
349
100
AcDbEntity
  8
plate
  6
ByLayer
 62
  256
370
   -1
100
AcDbLine
 10
219.1350983472098
 20
50.14115160444585
 11
218.2292328673543
 21
53.52189231210248
  0
LINE
  5
34A
100
AcDbEntity
  8
plate
  6
ByLayer
 62
  256
370
   -1
100
AcDbLine
 10
216.9351393247035
 20
58.35152189446909
 11
216.0292738448479
 21
61.73226260212569
  0
LINE
  5
34B
100
AcDbEntity
  8
plate
  6
ByLayer
 62
  256
370
   -1
100
AcDbLine
 10
215.8998648157832
 20
62.21522612362718
 11
215.2874921780812
 21
62.56877916433116
  0
LINE
  5
34C
100
AcDbEntity
  8
plate
  6
ByLayer
 62
  256
370
   -1
100
AcDbLine
 10
175.6205179774706
 20
70.40332905668008
 11
175.9740729526703
 21
71.01570057750037
  0
LINE
  5
34D
100
AcDbEntity
  8
plate
  6
ByLayer
 62
  256
370
   -1
100
AcDbLine
 10
175.7499273317358
 20
69.92036609844341
 11
176.6557928115913
 21
66.53962539078675
  0
LINE
  5
34E
100
AcDbEntity
  8
plate
  6
ByLayer
 62
  256
370
   -1
100
AcDbLine
 10
177.949886354242
 20
61.70999580842032
 11
178.8557518340976
 21
58.32925510076369
  0
LINE
  5
34F
100
AcDbEntity
  8
plate
  6
ByLayer
 62
  256
370
   -1
100
AcDbLine
 10
178.9851609211224
 20
57.84629167965029
 11
179.5975333235256
 21
57.4927382313986
  0
LINE
  5
350
100
AcDbEntity
  8
plate
  6
ByLayer
 62
  256
370
   -1
100
AcDbLine
 10
192.1545712776713
 20
60.85738125139336
 11
192.5081254512494
 21
61.46975323502754
  0
LINE
  5
351
100
AcDbEntity
  8
plate
  6
ByLayer
 62
  256
370
   -1
100
AcDbLine
 10
192.3787146647238
 20
61.95271702018574
 11
191.4728491848683
 21
65.33345772784237
  0
LINE
  5
352
100
AcDbEntity
  8
plate
  6
ByLayer
 62
  256
370
   -1
100
AcDbLine
 10
190.1787556422175
 20
70.16308731020898
 11
189.2728901623619
 21
73.54382801786558
  0
LINE
  5
353
100
AcDbEntity
  8
plate
  6
ByLayer
 62
  256
370
   -1
100
AcDbLine
 10
189.1434811332972
 20
74.02679153936707
 11
188.5311084955952
 21
74.38034458007105
  0
LINE
  5
354
100
AcDbEntity
  8
plate
  6
ByLayer
 62
  256
370
   -1
100
AcDbLine
 10
196.7637318504743
 20
65.09944202729066
 11
195.8578663706188
 21
68.48018273494732
  0
LINE
  5
355
100
AcDbEntity
  8
plate
  6
ByLayer
 62
  256
370
   -1
100
AcDbLine
 10
196.8931409374991
 20
64.6164786061773
 11
197.5055133399023
 21
64.26292515792558
  0
LINE
  5
356
100
AcDbEntity
  8
plate
  6
ByLayer
 62
  256
370
   -1
100
AcDbLine
 10
194.563772827968
 20
73.30981231731376
 11
193.6579073481125
 21
76.69055302497041
  0
LINE
  5
357
100
AcDbEntity
  8
plate
  6
ByLayer
 62
  256
370
   -1
100
AcDbLine
 10
193.5284979938473
 20
77.17351598320708
 11
193.882052969047
 21
77.78588750402737
  0
LINE
  5
358
100
AcDbEntity
  8
plate
  6
ByLayer
 62
  256
370
   -1
100
AcDbLine
 10
206.4390885119719
 20
81.15053150659806
 11
207.0514611496739
 21
80.79697846589407
  0
LINE
  5
359
100
AcDbEntity
  8
plate
  6
ByLayer
 62
  256
370
   -1
100
AcDbLine
 10
207.1808701787386
 20
80.31401494439258
 11
208.0867356585943
 21
76.93327423673598
  0
LINE
  5
35A
100
AcDbEntity
  8
plate
  6
ByLayer
 62
  256
370
   -1
100
AcDbLine
 10
209.380829201245
 20
72.10364465436938
 11
210.2866946811005
 21
68.72290394671275
  0
LINE
  5
35B
100
AcDbEntity
  8
plate
  6
ByLayer
 62
  256
370
   -1
100
AcDbLine
 10
210.4161054676261
 20
68.23994016155454
 11
210.062551294048
 21
67.62756817792037
  0
LINE
  5
35C
100
AcDbEntity
  8
plate
  6
ByLayer
 62
  256
370
   -1
100
AcDbLine
 10
214.4274083963184
 20
74.71353422553769
 11
213.8150359939153
 21
75.0670876737894
  0
LINE
  5
35D
100
AcDbEntity
  8
plate
  6
ByLayer
 62
  256
370
   -1
100
AcDbLine
 10
213.6856269068904
 20
75.55005109490277
 11
212.7797614270349
 21
78.93079180255943
  0
LINE
  5
35E
100
AcDbEntity
  8
plate
  6
ByLayer
 62
  256
370
   -1
100
AcDbLine
 10
211.4856678843842
 20
83.76042138492586
 11
210.5798024045286
 21
87.14116209258252
  0
LINE
  5
35F
100
AcDbEntity
  8
plate
  6
ByLayer
 62
  256
370
   -1
100
AcDbLine
 10
205.1320318135741
 20
86.0283917647255
 11
205.4855859871522
 21
86.64076374835967
  0
LINE
  5
360
100
AcDbEntity
  8
plate
  6
ByLayer
 62
  256
370
   -1
100
AcDbLine
 10
205.3561752006266
 20
87.12372753351788
 11
204.4503097207711
 21
90.50446824117451
  0
LINE
  5
361
100
AcDbEntity
  8
plate
  6
ByLayer
 62
  256
370
   -1
100
AcDbLine
 10
203.1562161781203
 20
95.33409782354111
 11
202.2503506982647
 21
98.71483853119771
  0
LINE
  5
362
100
AcDbEntity
  8
plate
  6
ByLayer
 62
  256
370
   -1
100
AcDbLine
 10
202.1209416692
 20
99.1978020526992
 11
201.508569031498
 21
99.55135509340319
  0
LINE
  5
363
100
AcDbEntity
  8
plate
  6
ByLayer
 62
  256
370
   -1
100
AcDbLine
 10
188.9515334885731
 20
96.1867110908325
 11
188.5979785133734
 21
95.57433957001221
  0
LINE
  5
364
100
AcDbEntity
  8
plate
  6
ByLayer
 62
  256
370
   -1
100
AcDbLine
 10
188.7273878676386
 20
95.09137661177554
 11
189.6332533474941
 21
91.71063590411889
  0
LINE
  5
365
100
AcDbEntity
  8
plate
  6
ByLayer
 62
  256
370
   -1
100
AcDbLine
 10
190.9273468901448
 20
86.88100632175245
 11
191.8332123700004
 21
83.5002656140958
  0
LINE
  5
366
100
AcDbEntity
  8
plate
  6
ByLayer
 62
  256
370
   -1
100
AcDbLine
 10
191.9626214570252
 20
83.01730219298243
 11
192.5749938594284
 21
82.66374874473071
  0
LINE
  5
367
100
AcDbEntity
  8
plate
  6
ByLayer
 62
  256
370
   -1
100
AcDbLine
 10
186.5423297043943
 20
83.7342813146475
 11
187.4481951842499
 21
80.35354060699088
  0
LINE
  5
368
100
AcDbEntity
  8
plate
  6
ByLayer
 62
  256
370
   -1
100
AcDbLine
 10
187.5776059707755
 20
79.87057682183267
 11
187.2240517971974
 21
79.25820483819849
  0
LINE
  5
369
100
AcDbEntity
  8
plate
  6
ByLayer
 62
  256
370
   -1
100
AcDbLine
 10
185.2482361617436
 20
88.56391089701411
 11
184.342370681888
 21
91.94465160467071
  0
LINE
  5
36A
100
AcDbEntity
  8
plate
  6
ByLayer
 62
  256
370
   -1
100
AcDbLine
 10
184.2129616528233
 20
92.4276151261722
 11
183.6005890151212
 21
92.78116816687618
  0
LINE
  5
36B
100
AcDbEntity
  8
plate
  6
ByLayer
 62
  256
370
   -1
100
AcDbLine
 10
182.2931975134636
 20
97.65877769824023
 11
182.6467516870417
 21
98.27114968187441
  0
LINE
  5
36C
100
AcDbEntity
  8
plate
  6
ByLayer
 62
  256
370
   -1
100
AcDbLine
 10
182.5173409005161
 20
98.75411346703261
 11
181.6114754206606
 21
102.1348541746892
  0
LINE
  5
36D
100
AcDbEntity
  8
plate
  6
ByLayer
 62
  256
370
   -1
100
AcDbLine
 10
180.3173818780098
 20
106.9644837570558
 11
179.4115163981542
 21
110.3452244647124
  0
LINE
  5
36E
100
AcDbEntity
  8
plate
  6
ByLayer
 62
  256
370
   -1
100
AcDbLine
 10
179.2821073690895
 20
110.8281879862139
 11
178.6697347313875
 21
111.1817410269179
  0
LINE
  5
36F
100
AcDbEntity
  8
plate
  6
ByLayer
 62
  256
370
   -1
100
AcDbLine
 10
166.1126991884626
 20
107.8170970243472
 11
165.7591442132629
 21
107.2047255035269
  0
LINE
  5
370
100
AcDbEntity
  8
plate
  6
ByLayer
 62
  256
370
   -1
100
AcDbLine
 10
165.888553567528
 20
106.7217625452903
 11
166.7944190473836
 21
103.3410218376336
  0
LINE
  5
371
100
AcDbEntity
  8
plate
  6
ByLayer
 62
  256
370
   -1
100
AcDbLine
 10
168.0885125900343
 20
98.51139225526718
 11
168.9943780698899
 21
95.13065154761055
  0
LINE
  5
372
100
AcDbEntity
  8
plate
  6
ByLayer
 62
  256
370
   -1
100
AcDbLine
 10
169.1237871569147
 20
94.64768812649716
 11
169.7361595593179
 21
94.29413467824547
  0
LINE
  5
373
100
AcDbEntity
  8
plate
  6
ByLayer
 62
  256
370
   -1
100
AcDbLine
 10
160.8929035350886
 20
125.6065695707677
 11
161.2464585102883
 21
126.218941091588
  0
LINE
  5
374
100
AcDbEntity
  8
plate
  6
ByLayer
 62
  256
370
   -1
100
AcDbLine
 10
161.0223128893538
 20
125.123606612531
 11
161.9281783692093
 21
121.7428659048744
  0
LINE
  5
375
100
AcDbEntity
  8
plate
  6
ByLayer
 62
  256
370
   -1
100
AcDbLine
 10
163.22227191186
 20
116.9132363225079
 11
164.1281373917156
 21
113.5324956148513
  0
LINE
  5
376
100
AcDbEntity
  8
plate
  6
ByLayer
 62
  256
370
   -1
100
AcDbLine
 10
164.2575464787404
 20
113.0495321937379
 11
164.8699188811436
 21
112.6959787454862
  0
LINE
  5
377
100
AcDbEntity
  8
plate
  6
ByLayer
 62
  256
370
   -1
100
AcDbLine
 10
177.4269568352893
 20
116.060621765481
 11
177.7805110088674
 21
116.6729937491152
  0
LINE
  5
378
100
AcDbEntity
  8
plate
  6
ByLayer
 62
  256
370
   -1
100
AcDbLine
 10
177.6511002223418
 20
117.1559575342734
 11
176.7452347424863
 21
120.53669824193
  0
LINE
  5
379
100
AcDbEntity
  8
plate
  6
ByLayer
 62
  256
370
   -1
100
AcDbLine
 10
175.4511411998355
 20
125.3663278242966
 11
174.5452757199799
 21
128.7470685319532
  0
LINE
  5
37A
100
AcDbEntity
  8
plate
  6
ByLayer
 62
  256
370
   -1
100
AcDbLine
 10
174.4158666909152
 20
129.2300320534547
 11
173.8034940532132
 21
129.5835850941587
  0
LINE
  5
37B
100
AcDbEntity
  8
plate
  6
ByLayer
 62
  256
370
   -1
100
AcDbLine
 10
179.154438526665
 20
132.989128018115
 11
178.8008835514653
 21
132.3767564972947
  0
LINE
  5
37C
100
AcDbEntity
  8
plate
  6
ByLayer
 62
  256
370
   -1
100
AcDbLine
 10
178.9302929057305
 20
131.893793539058
 11
179.836158385586
 21
128.5130528314014
  0
LINE
  5
37D
100
AcDbEntity
  8
plate
  6
ByLayer
 62
  256
370
   -1
100
AcDbLine
 10
181.1302519282368
 20
123.6834232490349
 11
182.0361174080923
 21
120.3026825413783
  0
LINE
  5
37E
100
AcDbEntity
  8
plate
  6
ByLayer
 62
  256
370
   -1
100
AcDbLine
 10
182.1655264951171
 20
119.8197191202649
 11
182.7778988975203
 21
119.4661656720132
  0
LINE
  5
37F
100
AcDbEntity
  8
plate
  6
ByLayer
 62
  256
370
   -1
100
AcDbLine
 10
195.334936851666
 20
122.830808692008
 11
195.6884910252441
 21
123.4431806756422
  0
LINE
  5
380
100
AcDbEntity
  8
plate
  6
ByLayer
 62
  256
370
   -1
100
AcDbLine
 10
195.5590802387185
 20
123.9261444608004
 11
194.653214758863
 21
127.306885168457
  0
LINE
  5
381
100
AcDbEntity
  8
plate
  6
ByLayer
 62
  256
370
   -1
100
AcDbLine
 10
193.3591212162123
 20
132.1365147508236
 11
192.4532557363567
 21
135.5172554584802
  0
LINE
  5
382
100
AcDbEntity
  8
plate
  6
ByLayer
 62
  256
370
   -1
100
AcDbLine
 10
192.3238467072919
 20
136.0002189799817
 11
191.7114740695899
 21
136.3537720206857
  0
LINE
  5
383
100
AcDbEntity
  8
plate
  6
ByLayer
 62
  256
370
   -1
100
AcDbLine
 10
198.9580124645084
 20
130.7532916089904
 11
198.0521469846529
 21
134.1340323166471
  0
LINE
  5
384
100
AcDbEntity
  8
plate
  6
ByLayer
 62
  256
370
   -1
100
AcDbLine
 10
199.0874215515333
 20
130.270328187877
 11
199.6997939539364
 21
129.9167747396253
  0
LINE
  5
385
100
AcDbEntity
  8
plate
  6
ByLayer
 62
  256
370
   -1
100
AcDbLine
 10
196.7580534420022
 20
138.9636618990135
 11
195.8521879621466
 21
142.3444026066701
  0
LINE
  5
386
100
AcDbEntity
  8
plate
  6
ByLayer
 62
  256
370
   -1
100
AcDbLine
 10
195.7227786078815
 20
142.8273655649068
 11
196.0763335830811
 21
143.4397370857271
  0
LINE
  5
387
100
AcDbEntity
  8
plate
  6
ByLayer
 62
  256
370
   -1
100
AcDbLine
 10
208.633369126006
 20
146.8043810882978
 11
209.2457417637081
 21
146.4508280475938
  0
LINE
  5
388
100
AcDbEntity
  8
plate
  6
ByLayer
 62
  256
370
   -1
100
AcDbLine
 10
209.3751507927728
 20
145.9678645260923
 11
210.2810162726284
 21
142.5871238184357
  0
LINE
  5
389
100
AcDbEntity
  8
plate
  6
ByLayer
 62
  256
370
   -1
100
AcDbLine
 10
211.5751098152791
 20
137.7574942360691
 11
212.4809752951347
 21
134.3767535284125
  0
LINE
  5
38A
100
AcDbEntity
  8
plate
  6
ByLayer
 62
  256
370
   -1
100
AcDbLine
 10
212.6103860816603
 20
133.8937897432543
 11
212.2568319080822
 21
133.2814177596201
  0
LINE
  5
38B
100
AcDbEntity
  8
plate
  6
ByLayer
 62
  256
370
   -1
100
AcDbLine
 10
218.3456913745187
 20
132.0034802750562
 11
217.4398258946631
 21
135.3842209827129
  0
LINE
  5
38C
100
AcDbEntity
  8
plate
  6
ByLayer
 62
  256
370
   -1
100
AcDbLine
 10
218.4751004615435
 20
131.5205168539428
 11
219.0874728639467
 21
131.1669634056911
  0
LINE
  5
38D
100
AcDbEntity
  8
plate
  6
ByLayer
 62
  256
370
   -1
100
AcDbLine
 10
216.1457323520123
 20
140.2138505650793
 11
215.2398668721568
 21
143.594591272736
  0
LINE
  5
38E
100
AcDbEntity
  8
plate
  6
ByLayer
 62
  256
370
   -1
100
AcDbLine
 10
215.1104575178917
 20
144.0775542309726
 11
215.4640124930913
 21
144.6899257517929
  0
LINE
  5
38F
100
AcDbEntity
  8
plate
  6
ByLayer
 62
  256
370
   -1
100
AcDbLine
 10
228.0210480360162
 20
148.0545697543636
 11
228.6334206737182
 21
147.7010167136596
  0
LINE
  5
390
100
AcDbEntity
  8
plate
  6
ByLayer
 62
  256
370
   -1
100
AcDbLine
 10
228.762829702783
 20
147.2180531921581
 11
229.6686951826386
 21
143.8373124845015
  0
LINE
  5
391
100
AcDbEntity
  8
plate
  6
ByLayer
 62
  256
370
   -1
100
AcDbLine
 10
230.9627887252893
 20
139.0076829021349
 11
231.8686542051449
 21
135.6269421944783
  0
LINE
  5
392
100
AcDbEntity
  8
plate
  6
ByLayer
 62
  256
370
   -1
100
AcDbLine
 10
231.9980649916705
 20
135.1439784093201
 11
231.6445108180924
 21
134.5316064256859
  0
LINE
  5
393
100
AcDbEntity
  8
plate
  6
ByLayer
 62
  256
370
   -1
100
AcDbLine
 10
236.3294854430579
 20
140.4218940134626
 11
235.9759304678583
 21
139.8095224926423
  0
LINE
  5
394
100
AcDbEntity
  8
plate
  6
ByLayer
 62
  256
370
   -1
100
AcDbLine
 10
236.1053398221234
 20
139.3265595344056
 11
237.0112053019789
 21
135.945818826749
  0
LINE
  5
395
100
AcDbEntity
  8
plate
  6
ByLayer
 62
  256
370
   -1
100
AcDbLine
 10
238.3052988446297
 20
131.1161892443826
 11
239.2111643244853
 21
127.7354485367259
  0
LINE
  5
396
100
AcDbEntity
  8
plate
  6
ByLayer
 62
  256
370
   -1
100
AcDbLine
 10
248.8865209859828
 20
143.7865380160333
 11
249.4988936236848
 21
143.4329849753293
  0
LINE
  5
397
100
AcDbEntity
  8
plate
  6
ByLayer
 62
  256
370
   -1
100
AcDbLine
 10
249.6283026527496
 20
142.9500214538278
 11
250.5341681326052
 21
139.5692807461712
  0
LINE
  5
398
100
AcDbEntity
  8
plate
  6
ByLayer
 62
  256
370
   -1
100
AcDbLine
 10
251.8282616752559
 20
134.7396511638046
 11
252.7341271551115
 21
131.358910456148
  0
LINE
  5
399
100
AcDbEntity
  8
plate
  6
ByLayer
 62
  256
370
   -1
100
AcDbLine
 10
252.863537941637
 20
130.8759466709898
 11
252.509983768059
 21
130.2635746873556
  0
LINE
  5
39A
100
AcDbEntity
  8
plate
  6
ByLayer
 62
  256
370
   -1
100
AcDbLine
 10
171.0435534721964
 20
89.4165241643055
 11
170.6899984969967
 21
88.80415264348521
  0
LINE
  5
39B
100
AcDbEntity
  8
plate
  6
ByLayer
 62
  256
370
   -1
100
AcDbLine
 10
170.8194078512618
 20
88.32118968524854
 11
171.7252733311174
 21
84.94044897759188
  0
LINE
  5
39C
100
AcDbEntity
  8
plate
  6
ByLayer
 62
  256
370
   -1
100
AcDbLine
 10
173.0193668737681
 20
80.11081939522545
 11
173.9252323536237
 21
76.73007868756882
  0
LINE
  5
39D
100
AcDbEntity
  8
plate
  6
ByLayer
 62
  256
370
   -1
100
AcDbLine
 10
174.6670138430516
 20
75.89356181820374
 11
174.0546414406485
 21
76.24711526645542
  0
LINE
  5
39E
100
AcDbEntity
  8
plate
  6
ByLayer
 62
  256
370
   -1
100
AcDbLine
 10
205.8734285449892
 20
106.6373201584446
 11
205.5198735697896
 21
106.0249486376243
  0
LINE
  5
39F
100
AcDbEntity
  8
plate
  6
ByLayer
 62
  256
370
   -1
100
AcDbLine
 10
205.6492829240547
 20
105.5419856793877
 11
206.5551484039102
 21
102.161244971731
  0
LINE
  5
3A0
100
AcDbEntity
  8
plate
  6
ByLayer
 62
  256
370
   -1
100
AcDbLine
 10
207.849241946561
 20
97.33161538936456
 11
208.7551074264165
 21
93.9508746817079
  0
LINE
  5
3A1
100
AcDbEntity
  8
plate
  6
ByLayer
 62
  256
370
   -1
100
AcDbLine
 10
208.8845165134414
 20
93.46791126059453
 11
209.4968889158445
 21
93.11435781234282
  0
LINE
  5
3A2
100
AcDbEntity
  8
plate
  6
ByLayer
 62
  256
370
   -1
100
AcDbLine
 10
222.0539268699902
 20
96.4790008323376
 11
222.4074810435683
 21
97.09137281597178
  0
LINE
  5
3A3
100
AcDbEntity
  8
plate
  6
ByLayer
 62
  256
370
   -1
100
AcDbLine
 10
222.2780702570427
 20
97.57433660112999
 11
221.3722047771872
 21
100.9550773087866
  0
LINE
  5
3A4
100
AcDbEntity
  8
plate
  6
ByLayer
 62
  256
370
   -1
100
AcDbLine
 10
220.0781112345365
 20
105.7847068911532
 11
219.1722457546809
 21
109.1654475988098
  0
LINE
  5
3A5
100
AcDbEntity
  8
plate
  6
ByLayer
 62
  256
370
   -1
100
AcDbLine
 10
219.0428367256161
 20
109.6484111203113
 11
218.4304640879141
 21
110.0019641610153
  0
LINE
  5
3A6
100
AcDbEntity
  8
plate
  6
ByLayer
 62
  256
370
   -1
100
AcDbLine
 10
223.360983568388
 20
91.60114057421016
 11
223.97335620609
 21
91.24758753350618
  0
LINE
  5
3A7
100
AcDbEntity
  8
plate
  6
ByLayer
 62
  256
370
   -1
100
AcDbLine
 10
228.8845678258547
 20
94.36454647840863
 11
228.2721954234516
 21
94.71809992666034
  0
LINE
  5
3A8
100
AcDbEntity
  8
plate
  6
ByLayer
 62
  256
370
   -1
100
AcDbLine
 10
228.1427863364267
 20
95.20106334777371
 11
227.2369208565712
 21
98.58180405543037
  0
LINE
  5
3A9
100
AcDbEntity
  8
plate
  6
ByLayer
 62
  256
370
   -1
100
AcDbLine
 10
225.9428273139204
 20
103.4114336377968
 11
225.0369618340649
 21
106.7921743454535
  0
LINE
  5
3AA
100
AcDbEntity
  8
plate
  6
ByLayer
 62
  256
370
   -1
100
AcDbLine
 10
224.9075524797998
 20
107.2751373036901
 11
225.2611074549994
 21
107.8875088245104
  0
LINE
  5
3AB
100
AcDbEntity
  8
plate
  6
ByLayer
 62
  256
370
   -1
100
AcDbLine
 10
204.5660346321107
 20
111.5149306723846
 11
203.9536622297076
 21
111.8684841206363
  0
LINE
  5
3AC
100
AcDbEntity
  8
plate
  6
ByLayer
 62
  256
370
   -1
100
AcDbLine
 10
237.8181429979243
 20
111.2521528270811
 11
238.4305156356263
 21
110.8985997863771
  0
LINE
  5
3AD
100
AcDbEntity
  8
plate
  6
ByLayer
 62
  256
370
   -1
100
AcDbLine
 10
238.5599246646911
 20
110.4156362648756
 11
239.4657901445467
 21
107.034895557219
  0
LINE
  5
3AE
100
AcDbEntity
  8
plate
  6
ByLayer
 62
  256
370
   -1
100
AcDbLine
 10
240.7598836871974
 20
102.2052659748524
 11
241.665749167053
 21
98.8245252671958
  0
LINE
  5
3AF
100
AcDbEntity
  8
plate
  6
ByLayer
 62
  256
370
   -1
100
AcDbLine
 10
241.7951599535785
 20
98.34156148203759
 11
241.4416057800004
 21
97.72918949840341
  0
LINE
  5
3B0
100
AcDbEntity
  8
plate
  6
ByLayer
 62
  256
370
   -1
100
AcDbLine
 10
203.8242531426827
 20
112.3514475417496
 11
202.9183876628272
 21
115.7321882494063
  0
LINE
  5
3B1
100
AcDbEntity
  8
plate
  6
ByLayer
 62
  256
370
   -1
100
AcDbLine
 10
201.6242941201764
 20
120.5618178317727
 11
200.7184286403209
 21
123.9425585394294
  0
LINE
  5
3B2
100
AcDbEntity
  8
plate
  6
ByLayer
 62
  256
370
   -1
100
AcDbLine
 10
200.5890192860558
 20
124.4255214976661
 11
200.9425742612554
 21
125.0378930184863
  0
LINE
  5
3B3
100
AcDbEntity
  8
plate
  6
ByLayer
 62
  256
370
   -1
100
AcDbLine
 10
213.4996098041803
 20
128.402537021057
 11
214.1119824418823
 21
128.0489839803531
  0
LINE
  5
3B4
100
AcDbEntity
  8
plate
  6
ByLayer
 62
  256
370
   -1
100
AcDbLine
 10
214.2413914709471
 20
127.5660204588516
 11
215.1472569508027
 21
124.185279751195
  0
LINE
  5
3B5
100
AcDbEntity
  8
plate
  6
ByLayer
 62
  256
370
   -1
100
AcDbLine
 10
216.4413504934534
 20
119.3556501688283
 11
217.3472159733089
 21
115.9749094611717
  0
LINE
  5
3B6
100
AcDbEntity
  8
plate
  6
ByLayer
 62
  256
370
   -1
100
AcDbLine
 10
217.4766267598345
 20
115.4919456760135
 11
217.1230725862565
 21
114.8795736923793
  0
LINE
  5
3B7
100
AcDbEntity
  8
plate
  6
ByLayer
 62
  256
370
   -1
100
AcDbLine
 10
220.1061075503311
 20
125.1927472054952
 11
221.0119730301866
 21
121.8120064978385
  0
LINE
  5
3B8
100
AcDbEntity
  8
plate
  6
ByLayer
 62
  256
370
   -1
100
AcDbLine
 10
222.3060665728374
 20
116.9823769154721
 11
223.2119320526929
 21
113.6016362078154
  0
LINE
  5
3B9
100
AcDbEntity
  8
plate
  6
ByLayer
 62
  256
370
   -1
100
AcDbLine
 10
223.3413411397178
 20
113.1186727867021
 11
223.9537135421209
 21
112.7651193384504
  0
LINE
  5
3BA
100
AcDbEntity
  8
plate
  6
ByLayer
 62
  256
370
   -1
100
AcDbLine
 10
219.976698196066
 20
125.6757101637319
 11
220.3302531712656
 21
126.2880816845522
  0
LINE
  5
3BB
100
AcDbEntity
  8
plate
  6
ByLayer
 62
  256
370
   -1
100
AcDbLine
 10
232.8872887141905
 20
129.6527256871228
 11
233.4996613518925
 21
129.2991726464189
  0
LINE
  5
3BC
100
AcDbEntity
  8
plate
  6
ByLayer
 62
  256
370
   -1
100
AcDbLine
 10
233.6290703809573
 20
128.8162091249173
 11
234.5349358608129
 21
125.4354684172608
  0
LINE
  5
3BD
100
AcDbEntity
  8
plate
  6
ByLayer
 62
  256
370
   -1
100
AcDbLine
 10
235.8290294034636
 20
120.6058388348942
 11
236.7348948833192
 21
117.2250981272375
  0
LINE
  5
3BE
100
AcDbEntity
  8
plate
  6
ByLayer
 62
  256
370
   -1
100
AcDbLine
 10
236.5107514962666
 20
116.1297623584451
 11
236.8643056698448
 21
116.7421343420793
  0
LINE
  5
3BF
100
AcDbEntity
  8
plate
  6
ByLayer
 62
  256
370
   -1
100
AcDbLine
 10
254.3773974281675
 20
144.7400063095385
 11
254.7309524033671
 21
145.3523778303588
  0
LINE
  5
3C0
100
AcDbEntity
  8
plate
  6
ByLayer
 62
  256
370
   -1
100
AcDbLine
 10
267.287987946292
 20
148.7170218329295
 11
267.900360583994
 21
148.3634687922255
  0
LINE
  5
3C1
100
AcDbEntity
  8
plate
  6
ByLayer
 62
  256
370
   -1
100
AcDbLine
 10
268.0297696130588
 20
147.880505270724
 11
268.9356350929144
 21
144.4997645630674
  0
LINE
  5
3C2
100
AcDbEntity
  8
plate
  6
ByLayer
 62
  256
370
   -1
100
AcDbLine
 10
270.2297286355651
 20
139.6701349807008
 11
271.1355941154206
 21
136.2893942730442
  0
LINE
  5
3C3
100
AcDbEntity
  8
plate
  6
ByLayer
 62
  256
370
   -1
100
AcDbLine
 10
271.2650049019462
 20
135.806430487886
 11
270.9114507283681
 21
135.1940585042518
  0
LINE
  5
3C4
100
AcDbEntity
  8
plate
  6
ByLayer
 62
  256
370
   -1
100
AcDbLine
 10
258.3544127742224
 20
131.829415484257
 11
257.7420403718193
 21
132.1829689325087
  0
LINE
  5
3C5
100
AcDbEntity
  8
plate
  6
ByLayer
 62
  256
370
   -1
100
AcDbLine
 10
257.6126312847944
 20
132.6659323536221
 11
256.7067658049389
 21
136.0466730612787
  0
LINE
  5
3C6
100
AcDbEntity
  8
plate
  6
ByLayer
 62
  256
370
   -1
100
AcDbLine
 10
255.4126722622881
 20
140.8763026436452
 11
254.5068067824326
 21
144.2570433513018
  0
LINE
  5
3C7
100
AcDbEntity
  8
plate
  6
ByLayer
 62
  256
370
   -1
100
AcDbLine
 10
272.1542286244663
 20
130.3151777656887
 11
272.7666012621683
 21
129.9616247249847
  0
LINE
  5
3C8
100
AcDbEntity
  8
plate
  6
ByLayer
 62
  256
370
   -1
100
AcDbLine
 10
259.5971930815414
 20
126.950533763118
 11
259.2436381063417
 21
126.3381622422977
  0
LINE
  5
3C9
100
AcDbEntity
  8
plate
  6
ByLayer
 62
  256
370
   -1
100
AcDbLine
 10
272.896010291233
 20
129.4786612034832
 11
273.8018757710886
 21
126.0979204958266
  0
LINE
  5
3CA
100
AcDbEntity
  8
plate
  6
ByLayer
 62
  256
370
   -1
100
AcDbLine
 10
275.0959693137394
 20
121.26829091346
 11
276.0018347935949
 21
117.8875502058034
  0
LINE
  5
3CB
100
AcDbEntity
  8
plate
  6
ByLayer
 62
  256
370
   -1
100
AcDbLine
 10
276.1312455801205
 20
117.4045864206452
 11
275.7776914065424
 21
116.792214437011
  0
LINE
  5
3CC
100
AcDbEntity
  8
plate
  6
ByLayer
 62
  256
370
   -1
100
AcDbLine
 10
259.3730474606069
 20
125.8551992840611
 11
260.2789129404624
 21
122.4744585764044
  0
LINE
  5
3CD
100
AcDbEntity
  8
plate
  6
ByLayer
 62
  256
370
   -1
100
AcDbLine
 10
253.7527616641571
 20
125.3846939487925
 11
254.3651343018591
 21
125.0311409080885
  0
LINE
  5
3CE
100
AcDbEntity
  8
plate
  6
ByLayer
 62
  256
370
   -1
100
AcDbLine
 10
254.4945433309239
 20
124.5481773865871
 11
255.4004088107795
 21
121.1674366789305
  0
LINE
  5
3CF
100
AcDbEntity
  8
plate
  6
ByLayer
 62
  256
370
   -1
100
AcDbLine
 10
256.6945023534302
 20
116.3378070965638
 11
257.6003678332858
 21
112.9570663889072
  0
LINE
  5
3D0
100
AcDbEntity
  8
plate
  6
ByLayer
 62
  256
370
   -1
100
AcDbLine
 10
257.7297786198113
 20
112.474102603749
 11
257.3762244462332
 21
111.8617306201148
  0
LINE
  5
3D1
100
AcDbEntity
  8
plate
  6
ByLayer
 62
  256
370
   -1
100
AcDbLine
 10
261.5730064831131
 20
117.644828994038
 11
262.4788719629687
 21
114.2640882863813
  0
LINE
  5
3D2
100
AcDbEntity
  8
plate
  6
ByLayer
 62
  256
370
   -1
100
AcDbLine
 10
262.6082810499935
 20
113.781124865268
 11
263.2206534523967
 21
113.4275714170162
  0
LINE
  5
3D3
100
AcDbEntity
  8
plate
  6
ByLayer
 62
  256
370
   -1
100
AcDbLine
 10
241.1957261212322
 20
122.0200499462218
 11
240.8421711460326
 21
121.4076784254016
  0
LINE
  5
3D4
100
AcDbEntity
  8
plate
  6
ByLayer
 62
  256
370
   -1
100
AcDbLine
 10
240.9715805002977
 20
120.9247154671649
 11
241.8774459801532
 21
117.5439747595082
  0
LINE
  5
3D5
100
AcDbEntity
  8
plate
  6
ByLayer
 62
  256
370
   -1
100
AcDbLine
 10
243.171539522804
 20
112.7143451771418
 11
244.0774050026595
 21
109.3336044694851
  0
LINE
  5
3D6
100
AcDbEntity
  8
plate
  6
ByLayer
 62
  256
370
   -1
100
AcDbLine
 10
244.2068140896844
 20
108.8506410483718
 11
244.8191864920875
 21
108.4970876001201
  0
LINE
  5
3D7
100
AcDbEntity
  8
plate
  6
ByLayer
 62
  256
370
   -1
100
AcDbLine
 10
246.126580404966
 20
103.6194770861801
 11
245.7730254297664
 21
103.0071055653598
  0
LINE
  5
3D8
100
AcDbEntity
  8
plate
  6
ByLayer
 62
  256
370
   -1
100
AcDbLine
 10
245.9024347840315
 20
102.5241426071232
 11
246.808300263887
 21
99.1434018994665
  0
LINE
  5
3D9
100
AcDbEntity
  8
plate
  6
ByLayer
 62
  256
370
   -1
100
AcDbLine
 10
258.6836159478909
 20
106.9841210887508
 11
259.2959885855929
 21
106.6305680480468
  0
LINE
  5
3DA
100
AcDbEntity
  8
plate
  6
ByLayer
 62
  256
370
   -1
100
AcDbLine
 10
259.4253976146576
 20
106.1476045265453
 11
260.3312630945132
 21
102.7668638188887
  0
LINE
  5
3DB
100
AcDbEntity
  8
plate
  6
ByLayer
 62
  256
370
   -1
100
AcDbLine
 10
264.5280473652751
 20
108.5499609030763
 11
264.1744923900756
 21
107.937589382256
  0
LINE
  5
3DC
100
AcDbEntity
  8
plate
  6
ByLayer
 62
  256
370
   -1
100
AcDbLine
 10
264.3039017443407
 20
107.4546264240193
 11
265.2097672241962
 21
104.0738857163627
  0
LINE
  5
3DD
100
AcDbEntity
  8
plate
  6
ByLayer
 62
  256
370
   -1
100
AcDbLine
 10
277.0850829082001
 20
111.914604905647
 11
277.6974555459021
 21
111.561051864943
  0
LINE
  5
3DE
100
AcDbEntity
  8
plate
  6
ByLayer
 62
  256
370
   -1
100
AcDbLine
 10
277.8268645749669
 20
111.0780883434415
 11
278.7327300548225
 21
107.6973476357849
  0
LINE
  5
3DF
100
AcDbEntity
  8
plate
  6
ByLayer
 62
  256
370
   -1
100
AcDbLine
 10
280.0268235974731
 20
102.8677180534183
 11
280.9326890773287
 21
99.48697734576167
  0
LINE
  5
3E0
100
AcDbEntity
  8
plate
  6
ByLayer
 62
  256
370
   -1
100
AcDbLine
 10
281.0620998638543
 20
99.00401356060347
 11
280.7085456902762
 21
98.39164157696929
  0
LINE
  5
3E1
100
AcDbEntity
  8
plate
  6
ByLayer
 62
  256
370
   -1
100
AcDbLine
 10
266.503860766847
 20
99.24425613399625
 11
267.4097262467025
 21
95.86351542633959
  0
LINE
  5
3E2
100
AcDbEntity
  8
plate
  6
ByLayer
 62
  256
370
   -1
100
AcDbLine
 10
267.5391353337274
 20
95.38055200522622
 11
268.1515077361305
 21
95.0269985569745
  0
LINE
  5
3E3
100
AcDbEntity
  8
plate
  6
ByLayer
 62
  256
370
   -1
100
AcDbLine
 10
261.625356637164
 20
97.93723423652212
 11
262.5312221170195
 21
94.55649352886549
  0
LINE
  5
3E4
100
AcDbEntity
  8
plate
  6
ByLayer
 62
  256
370
   -1
100
AcDbLine
 10
262.6606329035451
 20
94.07352974370728
 11
262.307078729967
 21
93.46115776007311
  0
LINE
  5
3E5
100
AcDbEntity
  8
plate
  6
ByLayer
 62
  256
370
   -1
100
AcDbLine
 10
248.1023938065378
 20
94.31377231710006
 11
249.0082592863933
 21
90.9330316094434
  0
LINE
  5
3E6
100
AcDbEntity
  8
plate
  6
ByLayer
 62
  256
370
   -1
100
AcDbLine
 10
249.1376683734182
 20
90.45006818833004
 11
249.7500407758213
 21
90.09651474007832
  0
LINE
  5
3E7
100
AcDbEntity
  8
plate
  6
ByLayer
 62
  256
370
   -1
100
AcDbLine
 10
251.0570998854399
 20
85.21865349937498
 11
250.7035449102403
 21
84.60628197855469
  0
LINE
  5
3E8
100
AcDbEntity
  8
plate
  6
ByLayer
 62
  256
370
   -1
100
AcDbLine
 10
250.8329542645054
 20
84.12331902031802
 11
251.7388197443609
 21
80.74257831266137
  0
LINE
  5
3E9
100
AcDbEntity
  8
plate
  6
ByLayer
 62
  256
370
   -1
100
AcDbLine
 10
253.0329132870117
 20
75.91294873029493
 11
253.9387787668672
 21
72.53220802263827
  0
LINE
  5
3EA
100
AcDbEntity
  8
plate
  6
ByLayer
 62
  256
370
   -1
100
AcDbLine
 10
254.0681878538921
 20
72.0492446015249
 11
254.6805602562952
 21
71.69569115327319
  0
LINE
  5
3EB
100
AcDbEntity
  8
plate
  6
ByLayer
 62
  256
370
   -1
100
AcDbLine
 10
267.237598210441
 20
75.06033417326798
 11
267.591152384019
 21
75.67270615690215
  0
LINE
  5
3EC
100
AcDbEntity
  8
plate
  6
ByLayer
 62
  256
370
   -1
100
AcDbLine
 10
267.4617415974935
 20
76.15566994206036
 11
266.5558761176379
 21
79.53641064971698
  0
LINE
  5
3ED
100
AcDbEntity
  8
plate
  6
ByLayer
 62
  256
370
   -1
100
AcDbLine
 10
265.2617825749872
 20
84.36604023208359
 11
264.3559170951316
 21
87.74678093974019
  0
LINE
  5
3EE
100
AcDbEntity
  8
plate
  6
ByLayer
 62
  256
370
   -1
100
AcDbLine
 10
263.6141354283648
 20
88.58329750194567
 11
264.2265080660668
 21
88.22974446124168
  0
LINE
  5
3EF
100
AcDbEntity
  8
plate
  6
ByLayer
 62
  256
370
   -1
100
AcDbLine
 10
269.1050118705494
 20
89.53676579545088
 11
269.4585668457491
 21
90.14913731627117
  0
LINE
  5
3F0
100
AcDbEntity
  8
plate
  6
ByLayer
 62
  256
370
   -1
100
AcDbLine
 10
282.015602388674
 20
93.51378131884185
 11
282.627975026376
 21
93.16022827813786
  0
LINE
  5
3F1
100
AcDbEntity
  8
plate
  6
ByLayer
 62
  256
370
   -1
100
AcDbLine
 10
282.7573840554408
 20
92.67726475663638
 11
283.6632495352964
 21
89.29652404897978
  0
LINE
  5
3F2
100
AcDbEntity
  8
plate
  6
ByLayer
 62
  256
370
   -1
100
AcDbLine
 10
270.1402867046701
 20
85.67306212955755
 11
269.2344212248146
 21
89.05380283721421
  0
LINE
  5
3F3
100
AcDbEntity
  8
plate
  6
ByLayer
 62
  256
370
   -1
100
AcDbLine
 10
271.4343802473209
 20
80.84343254719111
 11
272.3402457271764
 21
77.46269183953446
  0
LINE
  5
3F4
100
AcDbEntity
  8
plate
  6
ByLayer
 62
  256
370
   -1
100
AcDbLine
 10
272.4696548142012
 20
76.97972841842109
 11
273.0820272166044
 21
76.62617497016937
  0
LINE
  5
3F5
100
AcDbEntity
  8
plate
  6
ByLayer
 62
  256
370
   -1
100
AcDbLine
 10
285.6390651707501
 20
79.99081799016416
 11
285.9926193443282
 21
80.60318997379834
  0
LINE
  5
3F6
100
AcDbEntity
  8
plate
  6
ByLayer
 62
  256
370
   -1
100
AcDbLine
 10
285.8632085578026
 20
81.08615375895654
 11
284.9573430779471
 21
84.46689446661317
  0
LINE
  5
3F7
100
AcDbEntity
  8
plate
  6
ByLayer
 62
  256
370
   -1
100
AcDbLine
 10
242.7486624783982
 20
92.85132924027597
 11
243.3610351161002
 21
92.49777619957199
  0
LINE
  5
3F8
100
AcDbEntity
  8
plate
  6
ByLayer
 62
  256
370
   -1
100
AcDbLine
 10
243.490444145165
 20
92.0148126780705
 11
244.3963096250206
 21
88.6340719704139
  0
LINE
  5
3F9
100
AcDbEntity
  8
plate
  6
ByLayer
 62
  256
370
   -1
100
AcDbLine
 10
245.6904031676713
 20
83.80444238804729
 11
246.5962686475269
 21
80.42370168039066
  0
LINE
  5
3FA
100
AcDbEntity
  8
plate
  6
ByLayer
 62
  256
370
   -1
100
AcDbLine
 10
246.7256794340525
 20
79.94073789523246
 11
246.3721252604743
 21
79.32836591159828
  0
LINE
  5
3FB
100
AcDbEntity
  8
plate
  6
ByLayer
 62
  256
370
   -1
100
AcDbLine
 10
233.8150873063286
 20
75.9637228916035
 11
233.2027149039255
 21
76.31727633985521
  0
LINE
  5
3FC
100
AcDbEntity
  8
plate
  6
ByLayer
 62
  256
370
   -1
100
AcDbLine
 10
233.0733058169006
 20
76.80023976096858
 11
232.1674403370451
 21
80.18098046862524
  0
LINE
  5
3FD
100
AcDbEntity
  8
plate
  6
ByLayer
 62
  256
370
   -1
100
AcDbLine
 10
230.8733467943943
 20
85.01061005099167
 11
229.9674813145388
 21
88.39135075864833
  0
LINE
  5
3FE
100
AcDbEntity
  8
plate
  6
ByLayer
 62
  256
370
   -1
100
AcDbLine
 10
229.8380719602737
 20
88.874313716885
 11
230.1916269354733
 21
89.48668523770529
  0
LINE
  5
3FF
100
AcDbEntity
  8
plate
  6
ByLayer
 62
  256
370
   -1
100
AcDbLine
 10
210.4503930502635
 20
87.62412505081919
 11
210.8039480254631
 21
88.23649657163948
  0
LINE
  5
400
100
AcDbEntity
  8
plate
  6
ByLayer
 62
  256
370
   -1
100
AcDbLine
 10
224.1027652351548
 20
90.76462401200469
 11
225.0086307150104
 21
87.38388330434809
  0
LINE
  5
401
100
AcDbEntity
  8
plate
  6
ByLayer
 62
  256
370
   -1
100
AcDbLine
 10
226.3027242576611
 20
82.55425372198148
 11
227.2085897375167
 21
79.17351301432485
  0
LINE
  5
402
100
AcDbEntity
  8
plate
  6
ByLayer
 62
  256
370
   -1
100
AcDbLine
 10
227.3380005240423
 20
78.69054922916665
 11
226.9844463504642
 21
78.07817724553247
  0
LINE
  5
403
100
AcDbEntity
  8
plate
  6
ByLayer
 62
  256
370
   -1
100
AcDbLine
 10
184.0206792048393
 20
114.5872839508742
 11
183.6671242296396
 21
113.9749124300539
  0
LINE
  5
404
100
AcDbEntity
  8
plate
  6
ByLayer
 62
  256
370
   -1
100
AcDbLine
 10
183.7965335839048
 20
113.4919494718173
 11
184.7023990637603
 21
110.1112087641606
  0
LINE
  5
405
100
AcDbEntity
  8
plate
  6
ByLayer
 62
  256
370
   -1
100
AcDbLine
 10
185.996492606411
 20
105.2815791817942
 11
186.9023580862666
 21
101.9008384741375
  0
LINE
  5
406
100
AcDbEntity
  8
plate
  6
ByLayer
 62
  256
370
   -1
100
AcDbLine
 10
187.0317671732914
 20
101.4178750530242
 11
187.6441395756946
 21
101.0643216047724
  0
LINE
  5
407
100
AcDbEntity
  8
plate
  6
ByLayer
 62
  256
370
   -1
100
AcDbLine
 10
200.4253209168928
 20
105.5243003935596
 11
199.5194554370373
 21
108.9050411012162
  0
LINE
  5
408
100
AcDbEntity
  8
plate
  6
ByLayer
 62
  256
370
   -1
100
AcDbLine
 10
200.5547317034184
 20
105.0413366084014
 11
200.2011775298403
 21
104.4289646247672
  0
LINE
  5
409
100
AcDbEntity
  8
plate
  6
ByLayer
 62
  256
370
   -1
100
AcDbLine
 10
198.2253618943865
 20
113.7346706835828
 11
197.3194964145309
 21
117.1154113912394
  0
LINE
  5
40A
100
AcDbEntity
  8
plate
  6
ByLayer
 62
  256
370
   -1
100
AcDbLine
 10
197.1900873854662
 20
117.5983749127409
 11
196.5777147477642
 21
117.9519279534449
  0
LINE
  5
40B
100
AcDbEntity
  8
plate
  6
ByLayer
 62
  256
370
   -1
100
AcDbLine
 10
146.5823795546486
 20
39.24661986567713
 11
160.5823795546486
 21
39.24661986567713
  0
ARC
  5
40C
100
AcDbEntity
  8
plate
  6
ByLayer
 62
  256
370
   -1
100
AcDbCircle
 10
160.5823795546486
 20
40.24661986567714
 40
1
100
AcDbArc
 50
270
 51
0
  0
LINE
  5
40D
100
AcDbEntity
  8
plate
  6
ByLayer
 62
  256
370
   -1
100
AcDbLine
 10
146.5823795546486
 20
39.24661986567713
 11
132.5823795546486
 21
39.24661986567713
  0
ARC
  5
40E
100
AcDbEntity
  8
plate
  6
ByLayer
 62
  256
370
   -1
100
AcDbCircle
 10
132.5823795546486
 20
40.24661986567714
 40
1
100
AcDbArc
 50
180
 51
270
  0
LINE
  5
40F
100
AcDbEntity
  8
plate
  6
ByLayer
 62
  256
370
   -1
100
AcDbLine
 10
161.5823795546486
 20
87.51456905811054
 11
161.5823795546486
 21
40.24661986567714
  0
ARC
  5
410
100
AcDbEntity
  8
plate
  6
ByLayer
 62
  256
370
   -1
100
AcDbCircle
 10
162.5823795546486
 20
87.51456905811054
 40
1
100
AcDbArc
 50
120.0000000000332
 51
180
  0
ARC
  5
411
100
AcDbEntity
  8
plate
  6
ByLayer
 62
  256
370
   -1
100
AcDbCircle
 10
161.5823795546486
 20
89.24661986567713
 40
1
100
AcDbArc
 50
300.0000000000322
 51
150.0000000000207
  0
ARC
  5
412
100
AcDbEntity
  8
plate
  6
ByLayer
 62
  256
370
   -1
100
AcDbCircle
 10
159.8503287470783
 20
90.24661986567715
 40
1
100
AcDbArc
 50
270
 51
330.0000000000199
  0
LINE
  5
413
100
AcDbEntity
  8
plate
  6
ByLayer
 62
  256
370
   -1
100
AcDbLine
 10
133.3144303622192
 20
89.24661986567713
 11
159.8503287470783
 21
89.24661986567713
  0
ARC
  5
414
100
AcDbEntity
  8
plate
  6
ByLayer
 62
  256
370
   -1
100
AcDbCircle
 10
133.3144303622192
 20
90.24661986567713
 40
1
100
AcDbArc
 50
209.999999999974
 51
270
  0
LINE
  5
415
100
AcDbEntity
  8
plate
  6
ByLayer
 62
  256
370
   -1
100
AcDbLine
 10
131.5823795546486
 20
40.24661986567714
 11
131.5823795546486
 21
87.51456905811027
  0
ARC
  5
416
100
AcDbEntity
  8
plate
  6
ByLayer
 62
  256
370
   -1
100
AcDbCircle
 10
131.5823795546486
 20
89.24661986567713
 40
1
100
AcDbArc
 50
29.99999999997499
 51
239.9999999999718
  0
ARC
  5
417
100
AcDbEntity
  8
plate
  6
ByLayer
 62
  256
370
   -1
100
AcDbCircle
 10
130.5823795546486
 20
87.51456905811027
 40
1
100
AcDbArc
 50
0
 51
59.99999999997054
  0
LINE
  5
418
100
AcDbEntity
  8
plate
  6
ByLayer
 62
    4
370
   -1
100
AcDbLine
 10
156.8304590926302
 20
134.212929200618
 11
187.9478142215714
 21
142.3132806806703
  0
ARC
  5
419
100
AcDbEntity
  8
plate
  6
ByLayer
 62
  256
370
   -1
100
AcDbCircle
 10
157.0823795546486
 20
133.2451812578062
 40
1
100
AcDbArc
 50
104.5911843820381
 51
180
  0
LINE
  5
41A
100
AcDbEntity
  8
plate
  6
ByLayer
 62
    4
370
   -1
100
AcDbLine
 10
105.4537281637806
 20
142.3132813417614
 11
136.3356614829546
 21
134.2277984016601
  0
ARC
  5
41B
100
AcDbEntity
  8
plate
  6
ByLayer
 62
  256
370
   -1
100
AcDbCircle
 10
136.0823795546486
 20
133.2604058935262
 40
1
100
AcDbArc
 50
0
 51
75.3281948451146
  0
LINE
  5
41C
100
AcDbEntity
  8
plate
  6
ByLayer
 62
  256
370
   -1
100
AcDbLine
 10
156.0823795546486
 20
99.88000189112552
 11
156.0823795546486
 21
133.2451812578062
  0
ARC
  5
41D
100
AcDbEntity
  8
plate
  6
ByLayer
 62
  256
370
   -1
100
AcDbCircle
 10
155.0823795546486
 20
99.88000189112552
 40
1
100
AcDbArc
 50
270
 51
0
  0
LINE
  5
41E
100
AcDbEntity
  8
plate
  6
ByLayer
 62
  256
370
   -1
100
AcDbLine
 10
138.0823795546486
 20
98.88000189112552
 11
155.0823795546486
 21
98.88000189112552
  0
LINE
  5
41F
100
AcDbEntity
  8
plate
  6
ByLayer
 62
  256
370
   -1
100
AcDbLine
 10
137.0823795546486
 20
99.88000189112552
 11
137.0823795546486
 21
133.2604058935262
  0
ARC
  5
420
100
AcDbEntity
  8
plate
  6
ByLayer
 62
  256
370
   -1
100
AcDbCircle
 10
138.0823795546486
 20
99.88000189112552
 40
1
100
AcDbArc
 50
180
 51
270
  0
ENDSEC
  0
SECTION
  2
OBJECTS
  0
DICTIONARY
  5
C
330
0
100
AcDbDictionary
281
    1
  3
ACAD_GROUP
350
D
  0
DICTIONARY
  5
D
330
C
100
AcDbDictionary
281
    1
  0
PLOTSETTINGS
  5
421
100
AcDbPlotSettings
  6
1x1
 40
0
 41
0
 42
0
 43
0
  0
ENDSEC
  0
EOF
